{
.appVersion = "1163";
copyright = "Copyright 2018 Google Inc. All Rights Reserved.";
customParameters = (
{
name = description;
value = "Designed by Monotype design team.";
},
{
name = license;
value = "This Font Software is licensed under the SIL Open Font License, Version 1.1. This Font Software is distributed on an \"AS IS\" BASIS, WITHOUT WARRANTIES OR CONDITIONS OF ANY KIND, either express or implied. See the SIL Open Font License for the specific language, permissions and limitations governing your use of this Font Software.";
},
{
name = licenseURL;
value = "http://scripts.sil.org/OFL";
},
{
name = vendorID;
value = GOOG;
},
{
name = unicodeRanges;
value = (
0,
1,
15,
20,
31,
34,
45,
57
);
},
{
name = trademark;
value = "Noto is a trademark of Google Inc.";
},
{
name = "Has WWS Names";
value = 1;
},
{
name = versionString;
value = "Version 2.000";
},
{
name = fsType;
value = (
);
},
{
name = "Don't use Production Names";
value = 1;
},
{
name = glyphOrder;
value = (
.notdef,
NULL,
CR,
space,
nbspace,
ZWJ,
ZWNJ,
dottedCircle,
a_gran,
aa_gran,
i_gran,
ii_gran,
u_gran,
uu_gran,
ee_gran,
ai_gran,
oo_gran,
au_gran,
ka_gran,
kha_gran,
ga_gran,
ga_gran.flat,
gha_gran,
nga_gran,
ca_gran,
cha_gran,
ja_gran,
jha_gran,
nya_gran,
tta_gran,
ttha_gran,
dda_gran,
ddha_gran,
nna_gran,
ta_gran,
ta_gran.flat,
tha_gran,
da_gran,
da_gran.alt,
dha_gran,
na_gran,
na_gran.flat,
pa_gran,
pha_gran,
ba_gran,
bha_gran,
bha_gran.flat,
ma_gran,
ya_gran,
ra_gran,
la_gran,
lla_gran,
va_gran,
sha_gran,
ssa_gran,
ssa_gran.flat,
sa_gran,
ha_gran,
ha_gran.flat,
anusvaraAbove_gran,
candrabindu_gran,
anusvara_gran,
visarga_gran,
binducomb_gran,
nukta_gran,
avagraha_gran,
avagraha_gran.alt,
aaMatra_gran,
auLengthMark_gran,
rVocalicMatra_gran,
rVocalicMatra_gran.d1,
rVocalicMatra_gran.d1b,
rVocalicMatra_gran.d2,
rVocalicMatra_gran.d2b,
rVocalicMatra_gran.d3,
rVocalicMatra_gran.d4,
rVocalicMatra_gran.d4h3,
rVocalicMatra_gran.d3h3,
rVocalicMatra_gran.d3h2,
rVocalicMatra_gran.d2h3,

glyphs = (
{
glyphname = .notdef;
lastChange = "2018-09-18 15:38:24 +0000";
layers = (
{
layerId = "229B7033-F00A-4676-AEB9-BF59C6456AE0";
paths = (
{
closed = 1;
nodes = (
"505 0 LINE",
"505 714 LINE",
"94 714 LINE",
"94 0 LINE"
);
},
{
closed = 1;
nodes = (
"145 663 LINE",
"454 663 LINE",
"454 51 LINE",
"145 51 LINE"
);
}
);
width = 600;
}
);
},
{
glyphname = dottedCircle;
lastChange = "2018-09-18 15:39:55 +0000";
layers = (
{
layerId = "229B7033-F00A-4676-AEB9-BF59C6456AE0";
paths = (
{
closed = 1;
nodes = (
"114 267 OFFCURVE",
"125 278 OFFCURVE",
"125 291 CURVE SMOOTH",
"125 304 OFFCURVE",
"114 315 OFFCURVE",
"101 315 CURVE SMOOTH",
"88 315 OFFCURVE",
"77 304 OFFCURVE",
"77 291 CURVE SMOOTH",
"77 278 OFFCURVE",
"88 267 OFFCURVE",
"101 267 CURVE SMOOTH"
);
},
{
closed = 1;
nodes = (
"140 368 OFFCURVE",
"151 379 OFFCURVE",
"151 392 CURVE SMOOTH",
"151 405 OFFCURVE",
"140 416 OFFCURVE",
"127 416 CURVE SMOOTH",
"114 416 OFFCURVE",
"103 405 OFFCURVE",
"103 392 CURVE SMOOTH",
"103 379 OFFCURVE",
"114 368 OFFCURVE",
"127 368 CURVE SMOOTH"
);
},
{
closed = 1;
nodes = (
"211 438 OFFCURVE",
"222 449 OFFCURVE",
"222 462 CURVE SMOOTH",
"222 475 OFFCURVE",
"211 486 OFFCURVE",
"198 486 CURVE SMOOTH",
"185 486 OFFCURVE",
"174 475 OFFCURVE",
"174 462 CURVE SMOOTH",
"174 449 OFFCURVE",
"185 438 OFFCURVE",
"198 438 CURVE SMOOTH"
);
},
{
closed = 1;
nodes = (
"308 462 OFFCURVE",
"319 473 OFFCURVE",
"319 486 CURVE SMOOTH",
"319 499 OFFCURVE",
"308 510 OFFCURVE",
"295 510 CURVE SMOOTH",
"282 510 OFFCURVE",
"271 499 OFFCURVE",
"271 486 CURVE SMOOTH",
"271 473 OFFCURVE",
"282 462 OFFCURVE",
"295 462 CURVE SMOOTH"
);
},
{
closed = 1;
nodes = (
"405 438 OFFCURVE",
"416 449 OFFCURVE",
"416 462 CURVE SMOOTH",
"416 475 OFFCURVE",
"405 486 OFFCURVE",
"392 486 CURVE SMOOTH",
"379 486 OFFCURVE",
"368 475 OFFCURVE",
"368 462 CURVE SMOOTH",
"368 449 OFFCURVE",
"379 438 OFFCURVE",
"392 438 CURVE SMOOTH"
);
},
{
closed = 1;
nodes = (
"475 366 OFFCURVE",
"486 377 OFFCURVE",
"486 390 CURVE SMOOTH",
"486 403 OFFCURVE",
"475 414 OFFCURVE",
"462 414 CURVE SMOOTH",
"449 414 OFFCURVE",
"438 403 OFFCURVE",
"438 390 CURVE SMOOTH",
"438 377 OFFCURVE",
"449 366 OFFCURVE",
"462 366 CURVE SMOOTH"
);
},
{
closed = 1;
nodes = (
"505 267 OFFCURVE",
"516 278 OFFCURVE",
"516 291 CURVE SMOOTH",
"516 304 OFFCURVE",
"505 315 OFFCURVE",
"492 315 CURVE SMOOTH",
"479 315 OFFCURVE",
"468 304 OFFCURVE",
"468 291 CURVE SMOOTH",
"468 278 OFFCURVE",
"479 267 OFFCURVE",
"492 267 CURVE SMOOTH"
);
},
{
closed = 1;
nodes = (
"477 173 OFFCURVE",
"488 184 OFFCURVE",
"488 197 CURVE SMOOTH",
"488 210 OFFCURVE",
"477 221 OFFCURVE",
"464 221 CURVE SMOOTH",
"451 221 OFFCURVE",
"440 210 OFFCURVE",
"440 197 CURVE SMOOTH",
"440 184 OFFCURVE",
"451 173 OFFCURVE",
"464 173 CURVE SMOOTH"
);
},
{
closed = 1;
nodes = (
"406 101 OFFCURVE",
"417 112 OFFCURVE",
"417 125 CURVE SMOOTH",
"417 138 OFFCURVE",
"406 149 OFFCURVE",
"393 149 CURVE SMOOTH",
"380 149 OFFCURVE",
"369 138 OFFCURVE",
"369 125 CURVE SMOOTH",
"369 112 OFFCURVE",
"380 101 OFFCURVE",
"393 101 CURVE SMOOTH"
);
},
{
closed = 1;
nodes = (
"308 73 OFFCURVE",
"319 84 OFFCURVE",
"319 97 CURVE SMOOTH",
"319 110 OFFCURVE",
"308 121 OFFCURVE",
"295 121 CURVE SMOOTH",
"282 121 OFFCURVE",
"271 110 OFFCURVE",
"271 97 CURVE SMOOTH",
"271 84 OFFCURVE",
"282 73 OFFCURVE",
"295 73 CURVE SMOOTH"
);
},
{
closed = 1;
nodes = (
"211 100 OFFCURVE",
"222 111 OFFCURVE",
"222 124 CURVE SMOOTH",
"222 137 OFFCURVE",
"211 148 OFFCURVE",
"198 148 CURVE SMOOTH",
"185 148 OFFCURVE",
"174 137 OFFCURVE",
"174 124 CURVE SMOOTH",
"174 111 OFFCURVE",
"185 100 OFFCURVE",
"198 100 CURVE SMOOTH"
);
},
{
closed = 1;
nodes = (
"138 172 OFFCURVE",
"149 183 OFFCURVE",
"149 196 CURVE SMOOTH",
"149 209 OFFCURVE",
"138 220 OFFCURVE",
"125 220 CURVE SMOOTH",
"112 220 OFFCURVE",
"101 209 OFFCURVE",
"101 196 CURVE SMOOTH",
"101 183 OFFCURVE",
"112 172 OFFCURVE",
"125 172 CURVE SMOOTH"
);
}
);
width = 600;
}
);
unicode = 25CC;
category = Letter;
},
{
glyphname = a_gran;
lastChange = "2018-09-18 15:39:51 +0000";
layers = (
{
layerId = "229B7033-F00A-4676-AEB9-BF59C6456AE0";
paths = (
{
closed = 1;
nodes = (
"929 330 LINE",
"343 330 LINE SMOOTH",
"140 330 OFFCURVE",
"60 260 OFFCURVE",
"60 152 CURVE SMOOTH",
"60 47 OFFCURVE",
"151 -12 OFFCURVE",
"272 -12 CURVE SMOOTH",
"411 -12 OFFCURVE",
"508 60 OFFCURVE",
"508 226 CURVE SMOOTH",
"508 494 LINE",
"703 494 LINE",
"703 566 LINE",
"171 566 LINE",
"171 286 LINE",
"250 302 LINE",
"250 494 LINE",
"422 494 LINE",
"422 213 LINE SMOOTH",
"422 94 OFFCURVE",
"367 60 OFFCURVE",
"280 60 CURVE SMOOTH",
"203 60 OFFCURVE",
"146 84 OFFCURVE",
"146 152 CURVE SMOOTH",
"146 231 OFFCURVE",
"224 258 OFFCURVE",
"336 258 CURVE SMOOTH",
"929 258 LINE"
);
},
{
closed = 1;
nodes = (
"617 85 OFFCURVE",
"645 -12 OFFCURVE",
"773 -12 CURVE SMOOTH",
"901 -12 OFFCURVE",
"929 85 OFFCURVE",
"929 175 CURVE SMOOTH",
"929 486 LINE",
"843 486 LINE",
"843 166 LINE SMOOTH",
"843 120 OFFCURVE",
"831 60 OFFCURVE",
"773 60 CURVE SMOOTH",
"715 60 OFFCURVE",
"703 120 OFFCURVE",
"703 166 CURVE SMOOTH",
"703 296 LINE",
"617 296 LINE",
"617 175 LINE SMOOTH"
);
}
);
width = 1008;
}
);
unicode = 11305;
},
{
glyphname = aa_gran;
lastChange = "2018-09-18 15:39:51 +0000";
layers = (
{
layerId = "229B7033-F00A-4676-AEB9-BF59C6456AE0";
paths = (
{
closed = 1;
nodes = (
"793 85 OFFCURVE",
"821 -12 OFFCURVE",
"949 -12 CURVE SMOOTH",
"1077 -12 OFFCURVE",
"1105 85 OFFCURVE",
"1105 175 CURVE SMOOTH",
"1105 486 LINE",
"1019 486 LINE",
"1019 166 LINE SMOOTH",
"1019 120 OFFCURVE",
"1007 60 OFFCURVE",
"949 60 CURVE SMOOTH",
"891 60 OFFCURVE",
"879 120 OFFCURVE",
"879 166 CURVE SMOOTH",
"879 296 LINE",
"793 296 LINE",
"793 175 LINE SMOOTH"
);
},
{
closed = 1;
nodes = (
"1035 258 LINE",
"1105 255 OFFCURVE",
"1200 209 OFFCURVE",
"1200 95 CURVE SMOOTH",
"1200 -74 OFFCURVE",
"991 -186 OFFCURVE",
"690 -186 CURVE SMOOTH",
"351 -186 OFFCURVE",
"179 -57 OFFCURVE",
"146 164 CURVE",
"60 164 LINE",
"90 -91 OFFCURVE",
"308 -263 OFFCURVE",
"689 -263 CURVE SMOOTH",
"1053 -263 OFFCURVE",
"1286 -120 OFFCURVE",
"1286 93 CURVE SMOOTH",
"1286 251 OFFCURVE",
"1160 320 OFFCURVE",
"1072 330 CURVE",
"519 330 LINE SMOOTH",
"316 330 OFFCURVE",
"236 260 OFFCURVE",
"236 152 CURVE SMOOTH",
"236 47 OFFCURVE",
"327 -12 OFFCURVE",
"448 -12 CURVE SMOOTH",
"587 -12 OFFCURVE",
"684 60 OFFCURVE",
"684 226 CURVE SMOOTH",
"684 494 LINE",
"879 494 LINE",
"879 566 LINE",
"347 566 LINE",
"347 286 LINE",
"426 302 LINE",
"426 494 LINE",
"598 494 LINE",
"598 213 LINE SMOOTH",
"598 94 OFFCURVE",
"543 60 OFFCURVE",
"456 60 CURVE SMOOTH",
"379 60 OFFCURVE",
"322 85 OFFCURVE",
"322 152 CURVE SMOOTH",
"322 232 OFFCURVE",
"400 258 OFFCURVE",
"512 258 CURVE SMOOTH"
);
}
);
width = 1356;
}
);
rightMetricsKey = ttha_gran;
unicode = 11306;
},
{
glyphname = i_gran;
lastChange = "2018-09-18 15:39:51 +0000";
layers = (
{
layerId = "229B7033-F00A-4676-AEB9-BF59C6456AE0";
paths = (
{
closed = 1;
nodes = (
"148 590 OFFCURVE",
"60 505 OFFCURVE",
"60 399 CURVE SMOOTH",
"60 316 OFFCURVE",
"113 259 OFFCURVE",
"209 259 CURVE SMOOTH",
"304 259 OFFCURVE",
"348 316 OFFCURVE",
"348 373 CURVE SMOOTH",
"348 432 OFFCURVE",
"307 479 OFFCURVE",
"231 479 CURVE SMOOTH",
"165 479 OFFCURVE",
"132 444 OFFCURVE",
"109 416 CURVE",
"126 373 LINE",
"145 400 OFFCURVE",
"173 431 OFFCURVE",
"213 431 CURVE SMOOTH",
"250 431 OFFCURVE",
"267 405 OFFCURVE",
"267 377 CURVE SMOOTH",
"267 348 OFFCURVE",
"248 319 OFFCURVE",
"209 319 CURVE SMOOTH",
"168 319 OFFCURVE",
"146 350 OFFCURVE",
"146 400 CURVE SMOOTH",
"146 496 OFFCURVE",
"218 518 OFFCURVE",
"286 518 CURVE SMOOTH",
"375 518 OFFCURVE",
"416 475 OFFCURVE",
"416 401 CURVE SMOOTH",
"416 309 LINE",
"502 309 LINE",
"502 394 LINE SMOOTH",
"502 461 OFFCURVE",
"516 518 OFFCURVE",
"589 518 CURVE SMOOTH",
"662 518 OFFCURVE",
"691 464 OFFCURVE",
"691 392 CURVE SMOOTH",
"691 278 OFFCURVE",
"622 226 OFFCURVE",
"480 226 CURVE SMOOTH",
"235 226 LINE SMOOTH",
"136 226 OFFCURVE",
"77 187 OFFCURVE",
"77 105 CURVE SMOOTH",
"77 22 OFFCURVE",
"146 -12 OFFCURVE",
"248 -12 CURVE SMOOTH",
"783 -12 LINE",
"783 60 LINE",
"254 60 LINE SMOOTH",
"201 60 OFFCURVE",
"163 74 OFFCURVE",
"163 109 CURVE SMOOTH",
"163 145 OFFCURVE",
"205 154 OFFCURVE",
"257 154 CURVE SMOOTH",
"489 154 LINE SMOOTH",
"683 154 OFFCURVE",
"777 232 OFFCURVE",
"777 392 CURVE SMOOTH",
"777 523 OFFCURVE",
"709 590 OFFCURVE",
"601 590 CURVE SMOOTH",
"534 590 OFFCURVE",
"485 565 OFFCURVE",
"452 519 CURVE",
"465 516 LINE",
"437 560 OFFCURVE",
"393 590 OFFCURVE",
"303 590 CURVE SMOOTH"
);
}
);
width = 843;
}
);
unicode = 11307;
},
{
glyphname = ii_gran;
lastChange = "2018-09-18 15:39:51 +0000";
layers = (
{
components = (
{
name = anusvaraAbove_gran;
transform = "{1, 0, 0, 1, 374, -469}";
},
{
name = anusvaraAbove_gran;
transform = "{1, 0, 0, 1, 1208, -469}";
}
);
layerId = "229B7033-F00A-4676-AEB9-BF59C6456AE0";
paths = (
{
closed = 1;
nodes = (
"552 95 OFFCURVE",
"559 -12 OFFCURVE",
"697 -12 CURVE SMOOTH",
"835 -12 OFFCURVE",
"842 95 OFFCURVE",
"842 175 CURVE SMOOTH",
"842 494 LINE",
"757 494 LINE",
"757 156 LINE SMOOTH",
"757 100 OFFCURVE",
"745 58 OFFCURVE",
"697 58 CURVE SMOOTH",
"649 58 OFFCURVE",
"637 100 OFFCURVE",
"637 156 CURVE SMOOTH",
"637 494 LINE",
"552 494 LINE",
"552 175 LINE SMOOTH"
);
},
{
closed = 1;
nodes = (
"436 0 LINE",
"436 494 LINE",
"905 494 LINE",
"905 566 LINE",
"350 566 LINE",
"350 0 LINE"
);
}
);
width = 1194;
}
);
unicode = 11308;
},
{
glyphname = u_gran;
lastChange = "2018-09-18 15:39:51 +0000";
layers = (
{
layerId = "229B7033-F00A-4676-AEB9-BF59C6456AE0";
paths = (
{
closed = 1;
nodes = (
"170 576 OFFCURVE",
"60 517 OFFCURVE",
"60 403 CURVE SMOOTH",
"60 310 OFFCURVE",
"127 254 OFFCURVE",
"223 254 CURVE SMOOTH",
"330 254 OFFCURVE",
"386 315 OFFCURVE",
"386 402 CURVE SMOOTH",
"386 461 OFFCURVE",
"356 508 OFFCURVE",
"321 537 CURVE",
"261 520 LINE",
"295 488 OFFCURVE",
"308 450 OFFCURVE",
"308 412 CURVE SMOOTH",
"308 354 OFFCURVE",
"276 322 OFFCURVE",
"225 322 CURVE SMOOTH",
"166 322 OFFCURVE",
"139 361 OFFCURVE",
"139 405 CURVE SMOOTH",
"139 477 OFFCURVE",
"204 507 OFFCURVE",
"316 507 CURVE SMOOTH",
"416 507 OFFCURVE",
"519 472 OFFCURVE",
"519 365 CURVE SMOOTH",
"519 295 OFFCURVE",
"486 222 OFFCURVE",
"305 205 CURVE SMOOTH",
"230 198 LINE SMOOTH",
"109 187 OFFCURVE",
"65 154 OFFCURVE",
"65 94 CURVE SMOOTH",
"65 41 OFFCURVE",
"100 0 OFFCURVE",
"194 0 CURVE SMOOTH",
"753 0 LINE",
"753 72 LINE",
"195 72 LINE SMOOTH",
"169 72 OFFCURVE",
"149 79 OFFCURVE",
"149 94 CURVE SMOOTH",
"149 112 OFFCURVE",
"179 122 OFFCURVE",
"232 127 CURVE SMOOTH",
"312 135 LINE SMOOTH",
"486 153 OFFCURVE",
"605 213 OFFCURVE",
"605 369 CURVE SMOOTH",
"605 487 OFFCURVE",
"525 576 OFFCURVE",
"311 576 CURVE SMOOTH"
);
}
);
width = 803;
}
);
unicode = 11309;
},
{
glyphname = uu_gran;
lastChange = "2018-09-18 15:39:51 +0000";
layers = (
{
components = (
{
name = u_gran;
}
);
layerId = "229B7033-F00A-4676-AEB9-BF59C6456AE0";
paths = (
{
closed = 1;
nodes = (
"660 0 LINE",
"1417 0 LINE",
"1417 72 LINE",
"660 72 LINE"
);
},
{
closed = 1;
nodes = (
"1130 190 LINE",
"1130 494 LINE",
"1253 494 LINE",
"1253 190 LINE",
"1329 190 LINE",
"1329 494 LINE",
"1417 494 LINE",
"1417 566 LINE",
"1054 566 LINE",
"1054 190 LINE"
);
},
{
closed = 1;
nodes = (
"1091 480 LINE",
"1055 529 OFFCURVE",
"992 576 OFFCURVE",
"903 576 CURVE SMOOTH",
"789 576 OFFCURVE",
"687 495 OFFCURVE",
"687 358 CURVE SMOOTH",
"687 255 OFFCURVE",
"746 181 OFFCURVE",
"836 181 CURVE SMOOTH",
"931 181 OFFCURVE",
"981 239 OFFCURVE",
"981 315 CURVE SMOOTH",
"981 392 OFFCURVE",
"930 442 OFFCURVE",
"853 442 CURVE SMOOTH",
"801 442 OFFCURVE",
"761 419 OFFCURVE",
"734 387 CURVE",
"744 324 LINE",
"771 353 OFFCURVE",
"802 374 OFFCURVE",
"838 374 CURVE SMOOTH",
"876 374 OFFCURVE",
"902 350 OFFCURVE",
"902 311 CURVE SMOOTH",
"902 272 OFFCURVE",
"875 247 OFFCURVE",
"838 247 CURVE SMOOTH",
"795 247 OFFCURVE",
"763 279 OFFCURVE",
"763 356 CURVE SMOOTH",
"763 450 OFFCURVE",
"820 504 OFFCURVE",
"905 504 CURVE SMOOTH",
"974 504 OFFCURVE",
"1027 467 OFFCURVE",
"1060 425 CURVE"
);
}
);
width = 1480;
}
);
unicode = 1130A;
},
{
glyphname = ee_gran;
lastChange = "2018-09-18 15:39:51 +0000";
layers = (
{
layerId = "229B7033-F00A-4676-AEB9-BF59C6456AE0";
paths = (
{
closed = 1;
nodes = (
"376 -12 OFFCURVE",
"444 54 OFFCURVE",
"444 165 CURVE SMOOTH",
"444 265 OFFCURVE",
"377 328 OFFCURVE",
"281 328 CURVE SMOOTH",
"216 328 OFFCURVE",
"153 295 OFFCURVE",
"113 248 CURVE",
"128 184 LINE",
"167 227 OFFCURVE",
"214 258 OFFCURVE",
"267 258 CURVE SMOOTH",
"322 258 OFFCURVE",
"360 221 OFFCURVE",
"360 155 CURVE SMOOTH",
"360 91 OFFCURVE",
"325 60 OFFCURVE",
"273 60 CURVE SMOOTH",
"207 60 OFFCURVE",
"156 103 OFFCURVE",
"156 237 CURVE SMOOTH",
"156 383 OFFCURVE",
"240 504 OFFCURVE",
"380 504 CURVE SMOOTH",
"504 504 OFFCURVE",
"583 411 OFFCURVE",
"583 269 CURVE SMOOTH",
"583 178 OFFCURVE",
"562 104 OFFCURVE",
"531 51 CURVE",
"535 -12 LINE",
"749 -12 LINE",
"749 60 LINE",
"623 60 LINE",
"650 119 OFFCURVE",
"671 194 OFFCURVE",
"671 280 CURVE SMOOTH",
"671 437 OFFCURVE",
"577 576 OFFCURVE",
"384 576 CURVE SMOOTH",
"209 576 OFFCURVE",
"70 456 OFFCURVE",
"70 237 CURVE SMOOTH",
"70 62 OFFCURVE",
"162 -12 OFFCURVE",
"269 -12 CURVE SMOOTH"
);
},
{
closed = 1;
nodes = (
"1264 504 OFFCURVE",
"1365 355 OFFCURVE",
"1365 202 CURVE SMOOTH",
"1365 118 OFFCURVE",
"1335 60 OFFCURVE",
"1284 60 CURVE SMOOTH",
"1244 60 OFFCURVE",
"1206 97 OFFCURVE",
"1206 202 CURVE SMOOTH",
"1206 397 OFFCURVE",
"1323 494 OFFCURVE",
"1530 494 CURVE SMOOTH",
"1595 494 LINE",
"1595 -12 LINE",
"1681 -12 LINE",
"1681 494 LINE",
"1851 494 LINE",
"1851 566 LINE",
"1553 566 LINE SMOOTH",
"1292 566 OFFCURVE",
"1120 432 OFFCURVE",
"1120 196 CURVE SMOOTH",
"1120 72 OFFCURVE",
"1169 -12 OFFCURVE",
"1284 -12 CURVE SMOOTH",
"1385 -12 OFFCURVE",
"1451 56 OFFCURVE",
"1451 199 CURVE SMOOTH",
"1451 396 OFFCURVE",
"1313 576 OFFCURVE",
"1098 576 CURVE SMOOTH",
"896 576 OFFCURVE",
"799 444 OFFCURVE",
"799 273 CURVE SMOOTH",
"799 201 OFFCURVE",
"820 119 OFFCURVE",
"847 60 CURVE",
"726 60 LINE",
"726 -12 LINE",
"935 -12 LINE",
"939 51 LINE",
"907 110 OFFCURVE",
"887 185 OFFCURVE",
"887 262 CURVE SMOOTH",
"887 418 OFFCURVE",
"966 504 OFFCURVE",
"1098 504 CURVE SMOOTH"
);
}
);
width = 1871;
}
);
leftMetricsKey = ttha_gran;
unicode = 1130F;
},
{
glyphname = oo_gran;
lastChange = "2018-09-18 15:39:51 +0000";
layers = (
{
layerId = "229B7033-F00A-4676-AEB9-BF59C6456AE0";
paths = (
{
closed = 1;
nodes = (
"748 -181 LINE",
"834 -181 LINE",
"834 13 LINE",
"748 13 LINE"
);
},
{
closed = 1;
nodes = (
"982 72 LINE",
"703 72 LINE",
"780 131 OFFCURVE",
"811 206 OFFCURVE",
"811 292 CURVE SMOOTH",
"811 449 OFFCURVE",
"700 578 OFFCURVE",
"457 578 CURVE SMOOTH",
"222 578 OFFCURVE",
"70 456 OFFCURVE",
"70 230 CURVE SMOOTH",
"70 62 OFFCURVE",
"162 -12 OFFCURVE",
"269 -12 CURVE SMOOTH",
"376 -12 OFFCURVE",
"446 52 OFFCURVE",
"446 163 CURVE SMOOTH",
"446 263 OFFCURVE",
"377 328 OFFCURVE",
"281 328 CURVE SMOOTH",
"216 328 OFFCURVE",
"153 295 OFFCURVE",
"113 248 CURVE",
"128 184 LINE",
"167 227 OFFCURVE",
"214 258 OFFCURVE",
"267 258 CURVE SMOOTH",
"322 258 OFFCURVE",
"360 221 OFFCURVE",
"360 155 CURVE SMOOTH",
"360 95 OFFCURVE",
"325 60 OFFCURVE",
"269 60 CURVE SMOOTH",
"207 60 OFFCURVE",
"156 103 OFFCURVE",
"156 237 CURVE SMOOTH",
"156 383 OFFCURVE",
"247 506 OFFCURVE",
"457 506 CURVE SMOOTH",
"631 506 OFFCURVE",
"725 423 OFFCURVE",
"725 291 CURVE SMOOTH",
"725 190 OFFCURVE",
"672 109 OFFCURVE",
"591 63 CURVE",
"595 0 LINE",
"982 0 LINE"
);
}
);
width = 1002;
}
);
leftMetricsKey = ttha_gran;
unicode = 11313;
},
{
glyphname = ka_gran;
lastChange = "2018-09-18 15:39:55 +0000";
layers = (
{
layerId = "229B7033-F00A-4676-AEB9-BF59C6456AE0";
paths = (
{
closed = 1;
nodes = (
"155 218 OFFCURVE",
"203 276 OFFCURVE",
"324 276 CURVE SMOOTH",
"799 276 LINE SMOOTH",
"922 276 OFFCURVE",
"989 229 OFFCURVE",
"989 154 CURVE SMOOTH",
"989 92 OFFCURVE",
"943 58 OFFCURVE",
"899 58 CURVE SMOOTH",
"853 58 OFFCURVE",
"816 92 OFFCURVE",
"816 144 CURVE SMOOTH",
"816 207 OFFCURVE",
"866 260 OFFCURVE",
"958 260 CURVE",
"905 291 LINE",
"790 291 OFFCURVE",
"739 212 OFFCURVE",
"739 141 CURVE SMOOTH",
"739 55 OFFCURVE",
"800 -12 OFFCURVE",
"902 -12 CURVE SMOOTH",
"988 -12 OFFCURVE",
"1075 37 OFFCURVE",
"1075 157 CURVE SMOOTH",
"1075 262 OFFCURVE",
"993 348 OFFCURVE",
"811 348 CURVE SMOOTH",
"311 348 LINE SMOOTH",
"188 348 OFFCURVE",
"70 270 OFFCURVE",
"70 144 CURVE SMOOTH",
"70 57 OFFCURVE",
"122 -12 OFFCURVE",
"224 -12 CURVE SMOOTH",
"302 -12 OFFCURVE",
"364 35 OFFCURVE",
"386 91 CURVE",
"365 91 LINE",
"392 21 OFFCURVE",
"438 -12 OFFCURVE",
"506 -12 CURVE SMOOTH",
"613 -12 OFFCURVE",
"666 65 OFFCURVE",
"666 197 CURVE SMOOTH",
"666 494 LINE",
"852 494 LINE",
"852 566 LINE",
"249 566 LINE",
"249 304 LINE",
"328 304 LINE",
"328 494 LINE",
"580 494 LINE",
"580 199 LINE SMOOTH",
"580 116 OFFCURVE",
"558 60 OFFCURVE",
"499 60 CURVE SMOOTH",
"440 60 OFFCURVE",
"420 115 OFFCURVE",
"420 165 CURVE SMOOTH",
"420 171 LINE",
"334 171 LINE",
"334 165 LINE SMOOTH",
"334 114 OFFCURVE",
"303 60 OFFCURVE",
"241 60 CURVE SMOOTH",
"196 60 OFFCURVE",
"155 90 OFFCURVE",
"155 151 CURVE SMOOTH"
);
}
);
width = 1145;
}
);
unicode = 11315;
},
{
glyphname = kha_gran;
lastChange = "2018-09-18 15:39:55 +0000";
layers = (
{
layerId = "229B7033-F00A-4676-AEB9-BF59C6456AE0";
paths = (
{
closed = 1;
nodes = (
"1090 0 LINE",
"1176 0 LINE",
"1176 566 LINE",
"1090 566 LINE"
);
},
{
closed = 1;
nodes = (
"1176 0 LINE",
"1176 72 LINE",
"677 72 LINE SMOOTH",
"631 72 OFFCURVE",
"621 87 OFFCURVE",
"621 99 CURVE SMOOTH",
"621 121 OFFCURVE",
"652 127 OFFCURVE",
"688 145 CURVE SMOOTH",
"744 173 OFFCURVE",
"795 221 OFFCURVE",
"795 314 CURVE SMOOTH",
"795 432 OFFCURVE",
"707 578 OFFCURVE",
"454 578 CURVE SMOOTH",
"219 578 OFFCURVE",
"70 431 OFFCURVE",
"70 237 CURVE SMOOTH",
"70 67 OFFCURVE",
"162 -12 OFFCURVE",
"269 -12 CURVE SMOOTH",
"376 -12 OFFCURVE",
"452 54 OFFCURVE",
"452 165 CURVE SMOOTH",
"452 265 OFFCURVE",
"377 328 OFFCURVE",
"281 328 CURVE SMOOTH",
"216 328 OFFCURVE",
"153 295 OFFCURVE",
"113 248 CURVE",
"128 184 LINE",
"167 227 OFFCURVE",
"214 258 OFFCURVE",
"267 258 CURVE SMOOTH",
"322 258 OFFCURVE",
"370 229 OFFCURVE",
"370 163 CURVE SMOOTH",
"370 99 OFFCURVE",
"325 56 OFFCURVE",
"268 56 CURVE SMOOTH",
"207 56 OFFCURVE",
"156 103 OFFCURVE",
"156 237 CURVE SMOOTH",
"156 383 OFFCURVE",
"260 506 OFFCURVE",
"450 506 CURVE SMOOTH",
"644 506 OFFCURVE",
"709 396 OFFCURVE",
"709 305 CURVE SMOOTH",
"709 237 OFFCURVE",
"674 217 OFFCURVE",
"626 193 CURVE SMOOTH",
"582 171 OFFCURVE",
"539 151 OFFCURVE",
"539 94 CURVE SMOOTH",
"539 26 OFFCURVE",
"602 0 OFFCURVE",
"656 0 CURVE SMOOTH"
);
}
);
width = 1256;
}
);
leftMetricsKey = ttha_gran;
unicode = 11316;
},
{
glyphname = ga_gran;
lastChange = "2018-09-18 15:39:55 +0000";
layers = (
{
layerId = "229B7033-F00A-4676-AEB9-BF59C6456AE0";
paths = (
{
closed = 1;
nodes = (
"552 -156 LINE SMOOTH",
"833 -156 OFFCURVE",
"862 101 OFFCURVE",
"862 277 CURVE SMOOTH",
"862 467 OFFCURVE",
"802 579 OFFCURVE",
"647 579 CURVE SMOOTH",
"493 579 OFFCURVE",
"432 467 OFFCURVE",
"432 317 CURVE SMOOTH",
"432 280 LINE SMOOTH",
"432 170 OFFCURVE",
"399 95 OFFCURVE",
"303 95 CURVE SMOOTH",
"207 95 OFFCURVE",
"174 159 OFFCURVE",
"174 320 CURVE SMOOTH",
"174 569 LINE",
"88 569 LINE",
"88 304 LINE SMOOTH",
"88 122 OFFCURVE",
"149 23 OFFCURVE",
"303 23 CURVE SMOOTH",
"453 23 OFFCURVE",
"518 128 OFFCURVE",
"518 289 CURVE SMOOTH",
"518 323 LINE SMOOTH",
"518 420 OFFCURVE",
"545 507 OFFCURVE",
"651 507 CURVE SMOOTH",
"759 507 OFFCURVE",
"776 420 OFFCURVE",
"776 283 CURVE SMOOTH",
"776 117 OFFCURVE",
"760 -84 OFFCURVE",
"558 -84 CURVE SMOOTH",
"208 -84 LINE SMOOTH",
"141 -84 OFFCURVE",
"102 -94 OFFCURVE",
"67 -119 CURVE SMOOTH",
"33 -144 OFFCURVE",
"10 -184 OFFCURVE",
"10 -243 CURVE SMOOTH",
"10 -266 OFFCURVE",
"13 -297 OFFCURVE",
"17 -321 CURVE",
"99 -317 LINE",
"97 -301 OFFCURVE",
"96 -283 OFFCURVE",
"96 -263 CURVE SMOOTH",
"96 -219 OFFCURVE",
"108 -194 OFFCURVE",
"133 -177 CURVE SMOOTH",
"152 -164 OFFCURVE",
"179 -156 OFFCURVE",
"235 -156 CURVE SMOOTH"
);
}
);
width = 932;
}
);
rightMetricsKey = ttha_gran;
unicode = 11317;
},
{
glyphname = ga_gran.flat;
lastChange = "2018-09-18 15:39:55 +0000";
layers = (
{
layerId = "229B7033-F00A-4676-AEB9-BF59C6456AE0";
paths = (
{
closed = 1;
nodes = (
"10 -156 LINE",
"552 -156 LINE SMOOTH",
"833 -156 OFFCURVE",
"862 101 OFFCURVE",
"862 277 CURVE SMOOTH",
"862 467 OFFCURVE",
"802 579 OFFCURVE",
"647 579 CURVE SMOOTH",
"493 579 OFFCURVE",
"432 467 OFFCURVE",
"432 317 CURVE SMOOTH",
"432 280 LINE SMOOTH",
"432 170 OFFCURVE",
"399 95 OFFCURVE",
"303 95 CURVE SMOOTH",
"207 95 OFFCURVE",
"174 159 OFFCURVE",
"174 320 CURVE SMOOTH",
"174 569 LINE",
"88 569 LINE",
"88 304 LINE SMOOTH",
"88 122 OFFCURVE",
"149 23 OFFCURVE",
"303 23 CURVE SMOOTH",
"453 23 OFFCURVE",
"518 128 OFFCURVE",
"518 289 CURVE SMOOTH",
"518 323 LINE SMOOTH",
"518 420 OFFCURVE",
"545 507 OFFCURVE",
"651 507 CURVE SMOOTH",
"759 507 OFFCURVE",
"776 420 OFFCURVE",
"776 283 CURVE SMOOTH",
"776 117 OFFCURVE",
"760 -84 OFFCURVE",
"558 -84 CURVE SMOOTH",
"10 -84 LINE"
);
}
);
width = 932;
}
);
leftMetricsKey = ga_gran;
rightMetricsKey = ttha_gran;
script = gran;
category = Letter;
},
{
glyphname = gha_gran;
lastChange = "2018-09-18 15:39:55 +0000";
layers = (
{
components = (
{
name = gha.base;
}
);
layerId = "229B7033-F00A-4676-AEB9-BF59C6456AE0";
paths = (
{
closed = 1;
nodes = (
"1283 0 LINE",
"1283 566 LINE",
"1197 566 LINE",
"1197 0 LINE"
);
}
);
width = 1363;
}
);
leftMetricsKey = ttha_gran;
unicode = 11318;
},
{
glyphname = nga_gran;
lastChange = "2018-09-18 15:39:55 +0000";
layers = (
{
layerId = "229B7033-F00A-4676-AEB9-BF59C6456AE0";
paths = (
{
closed = 1;
nodes = (
"410 -240 LINE",
"497 -240 LINE",
"497 -76 LINE",
"410 -76 LINE"
);
},
{
closed = 1;
nodes = (
"158 590 OFFCURVE",
"70 508 OFFCURVE",
"70 400 CURVE SMOOTH",
"70 305 OFFCURVE",
"137 249 OFFCURVE",
"223 249 CURVE SMOOTH",
"318 249 OFFCURVE",
"358 316 OFFCURVE",
"358 373 CURVE SMOOTH",
"358 432 OFFCURVE",
"317 479 OFFCURVE",
"241 479 CURVE SMOOTH",
"175 479 OFFCURVE",
"142 444 OFFCURVE",
"119 416 CURVE",
"136 373 LINE",
"155 400 OFFCURVE",
"183 431 OFFCURVE",
"223 431 CURVE SMOOTH",
"260 431 OFFCURVE",
"277 405 OFFCURVE",
"277 377 CURVE SMOOTH",
"277 348 OFFCURVE",
"258 319 OFFCURVE",
"219 319 CURVE SMOOTH",
"178 319 OFFCURVE",
"156 350 OFFCURVE",
"156 400 CURVE SMOOTH",
"156 496 OFFCURVE",
"228 518 OFFCURVE",
"296 518 CURVE SMOOTH",
"385 518 OFFCURVE",
"426 475 OFFCURVE",
"426 401 CURVE SMOOTH",
"426 289 LINE",
"512 289 LINE",
"512 394 LINE SMOOTH",
"512 461 OFFCURVE",
"528 518 OFFCURVE",
"602 518 CURVE SMOOTH",
"678 518 OFFCURVE",
"711 462 OFFCURVE",
"711 387 CURVE SMOOTH",
"711 276 OFFCURVE",
"632 179 OFFCURVE",
"490 179 CURVE SMOOTH",
"295 179 LINE SMOOTH",
"176 179 OFFCURVE",
"87 136 OFFCURVE",
"87 41 CURVE SMOOTH",
"87 -59 OFFCURVE",
"176 -90 OFFCURVE",
"278 -90 CURVE SMOOTH",
"793 -90 LINE",
"793 -18 LINE",
"304 -18 LINE SMOOTH",
"231 -18 OFFCURVE",
"173 -5 OFFCURVE",
"173 43 CURVE SMOOTH",
"173 96 OFFCURVE",
"245 107 OFFCURVE",
"307 107 CURVE SMOOTH",
"499 107 LINE SMOOTH",
"693 107 OFFCURVE",
"797 232 OFFCURVE",
"797 386 CURVE SMOOTH",
"797 523 OFFCURVE",
"721 590 OFFCURVE",
"609 590 CURVE SMOOTH",
"546 590 OFFCURVE",
"495 568 OFFCURVE",
"462 519 CURVE",
"475 516 LINE",
"447 560 OFFCURVE",
"394 590 OFFCURVE",
"307 590 CURVE SMOOTH"
);
}
);
width = 867;
}
);
leftMetricsKey = ttha_gran;
rightMetricsKey = ttha_gran;
unicode = 11319;
},
{
glyphname = ca_gran;
lastChange = "2018-09-18 15:39:55 +0000";
layers = (
{
components = (
{
name = ca.base;
}
);
layerId = "229B7033-F00A-4676-AEB9-BF59C6456AE0";
paths = (
{
closed = 1;
nodes = (
"902 16 LINE",
"988 16 LINE",
"988 566 LINE",
"902 566 LINE"
);
}
);
width = 1068;
}
);
unicode = 1131A;
},
{
glyphname = cha_gran;
lastChange = "2018-09-18 15:39:55 +0000";
layers = (
{
layerId = "229B7033-F00A-4676-AEB9-BF59C6456AE0";
paths = (
{
closed = 1;
nodes = (
"1250 489 OFFCURVE",
"1202 576 OFFCURVE",
"1074 576 CURVE SMOOTH",
"946 576 OFFCURVE",
"898 489 OFFCURVE",
"898 351 CURVE SMOOTH",
"898 0 LINE",
"984 0 LINE",
"984 338 LINE SMOOTH",
"984 428 OFFCURVE",
"996 504 OFFCURVE",
"1074 504 CURVE SMOOTH",
"1152 504 OFFCURVE",
"1164 428 OFFCURVE",
"1164 338 CURVE SMOOTH",
"1164 0 LINE",
"1250 0 LINE",
"1250 351 LINE SMOOTH"
);
},
{
closed = 1;
nodes = (
"0 72 LINE",
"0 0 LINE",
"1188 0 LINE",
"1188 72 LINE"
);
},
{
closed = 1;
nodes = (
"271 1 LINE",
"515 18 OFFCURVE",
"640 173 OFFCURVE",
"640 329 CURVE SMOOTH",
"640 447 OFFCURVE",
"550 576 OFFCURVE",
"336 576 CURVE SMOOTH",
"195 576 OFFCURVE",
"88 515 OFFCURVE",
"88 401 CURVE SMOOTH",
"88 308 OFFCURVE",
"155 250 OFFCURVE",
"253 250 CURVE SMOOTH",
"358 250 OFFCURVE",
"422 324 OFFCURVE",
"422 409 CURVE SMOOTH",
"422 470 OFFCURVE",
"391 508 OFFCURVE",
"356 537 CURVE",
"296 520 LINE",
"330 488 OFFCURVE",
"343 450 OFFCURVE",
"343 412 CURVE SMOOTH",
"343 354 OFFCURVE",
"312 322 OFFCURVE",
"259 322 CURVE SMOOTH",
"202 322 OFFCURVE",
"174 359 OFFCURVE",
"174 409 CURVE SMOOTH",
"174 475 OFFCURVE",
"229 507 OFFCURVE",
"331 507 CURVE SMOOTH",
"447 507 OFFCURVE",
"554 468 OFFCURVE",
"554 325 CURVE SMOOTH",
"554 254 OFFCURVE",
"523 88 OFFCURVE",
"271 71 CURVE"
);
}
);
width = 1330;
}
);
unicode = 1131B;
},
{
glyphname = ja_gran;
lastChange = "2018-09-18 15:39:55 +0000";
layers = (
{
layerId = "229B7033-F00A-4676-AEB9-BF59C6456AE0";
paths = (
{
closed = 1;
nodes = (
"173 96 OFFCURVE",
"266 140 OFFCURVE",
"353 158 CURVE SMOOTH",
"499 188 LINE SMOOTH",
"687 227 OFFCURVE",
"787 296 OFFCURVE",
"787 423 CURVE SMOOTH",
"787 527 OFFCURVE",
"721 589 OFFCURVE",
"615 589 CURVE SMOOTH",
"546 589 OFFCURVE",
"495 562 OFFCURVE",
"462 509 CURVE",
"475 506 LINE",
"447 550 OFFCURVE",
"404 589 OFFCURVE",
"304 589 CURVE SMOOTH",
"159 589 OFFCURVE",
"70 505 OFFCURVE",
"70 399 CURVE SMOOTH",
"70 311 OFFCURVE",
"131 255 OFFCURVE",
"217 255 CURVE SMOOTH",
"312 255 OFFCURVE",
"358 316 OFFCURVE",
"358 376 CURVE SMOOTH",
"358 432 OFFCURVE",
"317 479 OFFCURVE",
"241 479 CURVE SMOOTH",
"175 479 OFFCURVE",
"142 444 OFFCURVE",
"119 416 CURVE",
"136 373 LINE",
"155 400 OFFCURVE",
"183 431 OFFCURVE",
"223 431 CURVE SMOOTH",
"260 431 OFFCURVE",
"277 405 OFFCURVE",
"277 377 CURVE SMOOTH",
"277 348 OFFCURVE",
"258 319 OFFCURVE",
"219 319 CURVE SMOOTH",
"178 319 OFFCURVE",
"156 350 OFFCURVE",
"156 400 CURVE SMOOTH",
"156 496 OFFCURVE",
"228 518 OFFCURVE",
"296 518 CURVE SMOOTH",
"385 518 OFFCURVE",
"426 475 OFFCURVE",
"426 401 CURVE SMOOTH",
"426 329 LINE",
"512 329 LINE",
"512 394 LINE SMOOTH",
"512 461 OFFCURVE",
"533 517 OFFCURVE",
"609 517 CURVE SMOOTH",
"665 517 OFFCURVE",
"701 488 OFFCURVE",
"701 420 CURVE SMOOTH",
"701 325 OFFCURVE",
"629 286 OFFCURVE",
"490 260 CURVE SMOOTH",
"331 230 LINE SMOOTH",
"196 205 OFFCURVE",
"87 128 OFFCURVE",
"87 16 CURVE SMOOTH",
"87 -73 OFFCURVE",
"156 -135 OFFCURVE",
"245 -135 CURVE SMOOTH",
"322 -135 OFFCURVE",
"386 -89 OFFCURVE",
"430 -56 CURVE SMOOTH",
"494 -7 OFFCURVE",
"560 48 OFFCURVE",
"626 48 CURVE SMOOTH",
"668 48 OFFCURVE",
"708 26 OFFCURVE",
"707 -9 CURVE SMOOTH",
"706 -53 OFFCURVE",
"644 -68 OFFCURVE",
"609 -50 CURVE",
"589 -115 LINE",
"618 -126 OFFCURVE",
"644 -131 OFFCURVE",
"667 -131 CURVE SMOOTH",
"739 -131 OFFCURVE",
"793 -80 OFFCURVE",
"793 -7 CURVE SMOOTH",
"793 57 OFFCURVE",
"752 121 OFFCURVE",
"650 121 CURVE SMOOTH",
"553 121 OFFCURVE",
"468 64 OFFCURVE",
"439 43 CURVE SMOOTH",
"372 -5 OFFCURVE",
"323 -63 OFFCURVE",
"257 -63 CURVE SMOOTH",
"216 -63 OFFCURVE",
"173 -40 OFFCURVE",
"173 15 CURVE SMOOTH"
);
}
);
width = 863;
}
);
leftMetricsKey = ttha_gran;
rightMetricsKey = ttha_gran;
unicode = 1131C;
},
{
glyphname = jha_gran;
lastChange = "2018-09-18 15:39:55 +0000";
layers = (
{
layerId = "229B7033-F00A-4676-AEB9-BF59C6456AE0";
paths = (
{
closed = 1;
nodes = (
"1160 456 OFFCURVE",
"1187 389 OFFCURVE",
"1187 285 CURVE SMOOTH",
"1187 130 OFFCURVE",
"1082 60 OFFCURVE",
"992 60 CURVE SMOOTH",
"902 60 OFFCURVE",
"797 130 OFFCURVE",
"797 285 CURVE SMOOTH",
"797 389 OFFCURVE",
"824 456 OFFCURVE",
"884 537 CURVE",
"821 587 LINE",
"758 511 OFFCURVE",
"711 419 OFFCURVE",
"711 281 CURVE SMOOTH",
"711 159 OFFCURVE",
"798 -12 OFFCURVE",
"992 -12 CURVE SMOOTH",
"1186 -12 OFFCURVE",
"1273 159 OFFCURVE",
"1273 281 CURVE SMOOTH",
"1273 419 OFFCURVE",
"1226 511 OFFCURVE",
"1163 587 CURVE",
"1100 537 LINE"
);
},
{
closed = 1;
nodes = (
"484 72 LINE",
"368 72 LINE",
"368 198 LINE",
"753 198 LINE",
"752 270 LINE",
"282 270 LINE",
"282 0 LINE",
"570 0 LINE",
"570 493 LINE",
"653 493 LINE",
"653 566 LINE",
"80 566 LINE",
"80 0 LINE",
"166 0 LINE",
"166 493 LINE",
"484 493 LINE"
);
}
);
width = 1343;
}
);
rightMetricsKey = ttha_gran;
unicode = 1131D;
},
{
glyphname = nya_gran;
lastChange = "2018-09-18 15:39:55 +0000";
layers = (
{
layerId = "229B7033-F00A-4676-AEB9-BF59C6456AE0";
paths = (
{
closed = 1;
nodes = (
"150 155 LINE",
"150 148 LINE SMOOTH",
"150 19 OFFCURVE",
"264 -213 OFFCURVE",
"629 -213 CURVE SMOOTH",
"931 -213 OFFCURVE",
"1096 -86 OFFCURVE",
"1096 88 CURVE SMOOTH",
"1096 235 OFFCURVE",
"1008 348 OFFCURVE",
"776 348 CURVE SMOOTH",
"651 348 LINE SMOOTH",
"449 348 OFFCURVE",
"368 277 OFFCURVE",
"368 176 CURVE SMOOTH",
"368 75 OFFCURVE",
"459 6 OFFCURVE",
"581 6 CURVE SMOOTH",
"749 6 OFFCURVE",
"816 89 OFFCURVE",
"816 244 CURVE SMOOTH",
"816 494 LINE",
"1005 494 LINE",
"1005 566 LINE",
"479 566 LINE",
"479 304 LINE",
"559 320 LINE",
"559 494 LINE",
"730 494 LINE",
"730 231 LINE SMOOTH",
"730 122 OFFCURVE",
"675 78 OFFCURVE",
"588 78 CURVE SMOOTH",
"511 78 OFFCURVE",
"454 115 OFFCURVE",
"454 179 CURVE SMOOTH",
"454 258 OFFCURVE",
"540 276 OFFCURVE",
"644 276 CURVE SMOOTH",
"768 276 LINE SMOOTH",
"906 276 OFFCURVE",
"1008 228 OFFCURVE",
"1008 89 CURVE SMOOTH",
"1008 -34 OFFCURVE",
"881 -136 OFFCURVE",
"630 -136 CURVE SMOOTH",
"350 -136 OFFCURVE",
"236 29 OFFCURVE",
"236 149 CURVE SMOOTH",
"236 155 LINE"
);
},
{
closed = 1;
nodes = (
"66 495 OFFCURVE",
"0 432 OFFCURVE",
"0 350 CURVE SMOOTH",
"0 268 OFFCURVE",
"63 226 OFFCURVE",
"136 226 CURVE SMOOTH",
"214 226 OFFCURVE",
"264 278 OFFCURVE",
"264 347 CURVE SMOOTH",
"264 378 OFFCURVE",
"254 423 OFFCURVE",
"208 460 CURVE",
"157 438 LINE",
"189 413 OFFCURVE",
"198 386 OFFCURVE",
"198 361 CURVE SMOOTH",
"198 316 OFFCURVE",
"172 298 OFFCURVE",
"136 298 CURVE SMOOTH",
"97 298 OFFCURVE",
"75 322 OFFCURVE",
"75 353 CURVE SMOOTH",
"75 400 OFFCURVE",
"125 423 OFFCURVE",
"184 423 CURVE SMOOTH",
"304 423 OFFCURVE",
"373 349 OFFCURVE",
"393 229 CURVE",
"470 236 LINE",
"450 383 OFFCURVE",
"360 495 OFFCURVE",
"181 495 CURVE SMOOTH"
);
}
);
width = 1156;
}
);
unicode = 1131E;
},
{
glyphname = tta_gran;
lastChange = "2018-09-18 15:39:55 +0000";
layers = (
{
layerId = "229B7033-F00A-4676-AEB9-BF59C6456AE0";
paths = (
{
closed = 1;
nodes = (
"868 0 LINE",
"868 72 LINE",
"166 72 LINE",
"166 566 LINE",
"80 566 LINE",
"80 0 LINE"
);
},
{
closed = 1;
nodes = (
"431 -127 LINE",
"517 -127 LINE",
"517 37 LINE",
"431 37 LINE"
);
}
);
width = 928;
}
);
unicode = 1131F;
},
{
glyphname = ttha_gran;
lastChange = "2018-09-18 15:39:55 +0000";
layers = (
{
layerId = "229B7033-F00A-4676-AEB9-BF59C6456AE0";
paths = (
{
closed = 1;
nodes = (
"536 -17 OFFCURVE",
"654 109 OFFCURVE",
"654 278 CURVE SMOOTH",
"654 446 OFFCURVE",
"536 571 OFFCURVE",
"362 571 CURVE SMOOTH",
"188 571 OFFCURVE",
"70 446 OFFCURVE",
"70 278 CURVE SMOOTH",
"70 109 OFFCURVE",
"188 -17 OFFCURVE",
"362 -17 CURVE SMOOTH"
);
},
{
closed = 1;
nodes = (
"248 55 OFFCURVE",
"156 149 OFFCURVE",
"156 278 CURVE SMOOTH",
"156 406 OFFCURVE",
"248 499 OFFCURVE",
"362 499 CURVE SMOOTH",
"476 499 OFFCURVE",
"568 406 OFFCURVE",
"568 278 CURVE SMOOTH",
"568 149 OFFCURVE",
"476 55 OFFCURVE",
"362 55 CURVE SMOOTH"
);
}
);
width = 724;
}
);
unicode = 11320;
},
{
glyphname = dda_gran;
lastChange = "2018-09-18 15:39:55 +0000";
layers = (
{
layerId = "229B7033-F00A-4676-AEB9-BF59C6456AE0";
paths = (
{
closed = 1;
nodes = (
"209 515 OFFCURVE",
"254 488 OFFCURVE",
"254 446 CURVE SMOOTH",
"254 422 OFFCURVE",
"239 392 OFFCURVE",
"202 392 CURVE SMOOTH",
"173 392 OFFCURVE",
"146 411 OFFCURVE",
"146 447 CURVE SMOOTH",
"146 498 OFFCURVE",
"202 530 OFFCURVE",
"270 530 CURVE SMOOTH",
"345 530 OFFCURVE",
"395 481 OFFCURVE",
"395 416 CURVE SMOOTH",
"395 344 OFFCURVE",
"332 322 OFFCURVE",
"231 268 CURVE SMOOTH",
"147 223 OFFCURVE",
"93 185 OFFCURVE",
"93 114 CURVE SMOOTH",
"93 36 OFFCURVE",
"157 -22 OFFCURVE",
"271 -22 CURVE SMOOTH",
"392 -22 OFFCURVE",
"476 48 OFFCURVE",
"513 131 CURVE",
"494 131 LINE",
"515 56 OFFCURVE",
"573 -22 OFFCURVE",
"680 -22 CURVE SMOOTH",
"841 -22 OFFCURVE",
"913 151 OFFCURVE",
"913 294 CURVE SMOOTH",
"913 509 OFFCURVE",
"779 588 OFFCURVE",
"668 601 CURVE",
"653 528 LINE",
"725 513 OFFCURVE",
"827 465 OFFCURVE",
"827 290 CURVE SMOOTH",
"827 163 OFFCURVE",
"769 51 OFFCURVE",
"676 51 CURVE SMOOTH",
"587 51 OFFCURVE",
"554 156 OFFCURVE",
"545 189 CURVE",
"464 189 LINE",
"446 134 OFFCURVE",
"396 50 OFFCURVE",
"284 50 CURVE SMOOTH",
"225 50 OFFCURVE",
"179 71 OFFCURVE",
"179 113 CURVE SMOOTH",
"179 150 OFFCURVE",
"216 171 OFFCURVE",
"287 212 CURVE SMOOTH",
"410 283 OFFCURVE",
"481 335 OFFCURVE",
"481 424 CURVE SMOOTH",
"481 528 OFFCURVE",
"387 601 OFFCURVE",
"280 601 CURVE SMOOTH",
"171 601 OFFCURVE",
"70 540 OFFCURVE",
"70 442 CURVE SMOOTH",
"70 363 OFFCURVE",
"137 319 OFFCURVE",
"199 319 CURVE SMOOTH",
"274 319 OFFCURVE",
"330 380 OFFCURVE",
"330 444 CURVE SMOOTH",
"330 504 OFFCURVE",
"281 556 OFFCURVE",
"188 561 CURVE",
"157 515 LINE"
);
}
);
width = 983;
}
);
leftMetricsKey = ttha_gran;
rightMetricsKey = ttha_gran;
unicode = 11321;
},
{
glyphname = ddha_gran;
lastChange = "2018-09-18 15:39:55 +0000";
layers = (
{
layerId = "229B7033-F00A-4676-AEB9-BF59C6456AE0";
paths = (
{
closed = 1;
nodes = (
"869 193 OFFCURVE",
"794 51 OFFCURVE",
"682 51 CURVE SMOOTH",
"587 51 OFFCURVE",
"554 156 OFFCURVE",
"545 189 CURVE",
"464 189 LINE",
"446 134 OFFCURVE",
"396 50 OFFCURVE",
"281 50 CURVE SMOOTH",
"225 50 OFFCURVE",
"179 71 OFFCURVE",
"179 113 CURVE SMOOTH",
"179 150 OFFCURVE",
"214 170 OFFCURVE",
"287 212 CURVE SMOOTH",
"410 283 OFFCURVE",
"481 335 OFFCURVE",
"481 424 CURVE SMOOTH",
"481 528 OFFCURVE",
"387 601 OFFCURVE",
"274 601 CURVE SMOOTH",
"171 601 OFFCURVE",
"70 540 OFFCURVE",
"70 442 CURVE SMOOTH",
"70 363 OFFCURVE",
"137 319 OFFCURVE",
"199 319 CURVE SMOOTH",
"274 319 OFFCURVE",
"330 380 OFFCURVE",
"330 444 CURVE SMOOTH",
"330 504 OFFCURVE",
"281 556 OFFCURVE",
"188 561 CURVE",
"157 515 LINE",
"209 515 OFFCURVE",
"254 488 OFFCURVE",
"254 446 CURVE SMOOTH",
"254 422 OFFCURVE",
"239 392 OFFCURVE",
"202 392 CURVE SMOOTH",
"173 392 OFFCURVE",
"146 411 OFFCURVE",
"146 447 CURVE SMOOTH",
"146 498 OFFCURVE",
"202 530 OFFCURVE",
"266 530 CURVE SMOOTH",
"345 530 OFFCURVE",
"395 481 OFFCURVE",
"395 416 CURVE SMOOTH",
"395 344 OFFCURVE",
"332 322 OFFCURVE",
"231 268 CURVE SMOOTH",
"148 223 OFFCURVE",
"93 185 OFFCURVE",
"93 114 CURVE SMOOTH",
"93 36 OFFCURVE",
"157 -22 OFFCURVE",
"266 -22 CURVE SMOOTH",
"392 -22 OFFCURVE",
"476 48 OFFCURVE",
"513 131 CURVE",
"494 131 LINE",
"515 56 OFFCURVE",
"573 -22 OFFCURVE",
"682 -22 CURVE SMOOTH",
"844 -22 OFFCURVE",
"955 142 OFFCURVE",
"955 336 CURVE SMOOTH",
"955 502 OFFCURVE",
"874 605 OFFCURVE",
"743 605 CURVE SMOOTH",
"642 605 OFFCURVE",
"550 546 OFFCURVE",
"550 449 CURVE SMOOTH",
"550 369 OFFCURVE",
"614 324 OFFCURVE",
"679 324 CURVE SMOOTH",
"755 324 OFFCURVE",
"806 382 OFFCURVE",
"806 440 CURVE SMOOTH",
"806 506 OFFCURVE",
"741 560 OFFCURVE",
"643 561 CURVE",
"661 565 LINE",
"637 519 LINE",
"690 520 OFFCURVE",
"734 486 OFFCURVE",
"734 446 CURVE SMOOTH",
"734 422 OFFCURVE",
"718 396 OFFCURVE",
"683 396 CURVE SMOOTH",
"652 396 OFFCURVE",
"630 417 OFFCURVE",
"630 452 CURVE SMOOTH",
"630 504 OFFCURVE",
"681 541 OFFCURVE",
"734 541 CURVE SMOOTH",
"813 541 OFFCURVE",
"869 460 OFFCURVE",
"869 334 CURVE SMOOTH"
);
}
);
width = 1025;
}
);
leftMetricsKey = ttha_gran;
rightMetricsKey = ttha_gran;
unicode = 11322;
},
{
glyphname = nna_gran;
lastChange = "2018-09-18 15:39:55 +0000";
layers = (
{
layerId = "229B7033-F00A-4676-AEB9-BF59C6456AE0";
paths = (
{
closed = 1;
nodes = (
"376 -12 OFFCURVE",
"442 54 OFFCURVE",
"442 165 CURVE SMOOTH",
"442 265 OFFCURVE",
"377 328 OFFCURVE",
"281 328 CURVE SMOOTH",
"215 328 OFFCURVE",
"153 295 OFFCURVE",
"113 248 CURVE",
"128 184 LINE",
"167 227 OFFCURVE",
"214 258 OFFCURVE",
"267 258 CURVE SMOOTH",
"322 258 OFFCURVE",
"360 221 OFFCURVE",
"360 155 CURVE SMOOTH",
"360 91 OFFCURVE",
"327 56 OFFCURVE",
"273 56 CURVE SMOOTH",
"207 56 OFFCURVE",
"156 103 OFFCURVE",
"156 233 CURVE SMOOTH",
"156 393 OFFCURVE",
"260 502 OFFCURVE",
"438 502 CURVE SMOOTH",
"625 502 OFFCURVE",
"760 381 OFFCURVE",
"760 182 CURVE SMOOTH",
"760 121 OFFCURVE",
"742 56 OFFCURVE",
"680 56 CURVE SMOOTH",
"631 56 OFFCURVE",
"601 97 OFFCURVE",
"601 189 CURVE SMOOTH",
"601 378 OFFCURVE",
"701 503 OFFCURVE",
"888 503 CURVE SMOOTH",
"1062 503 OFFCURVE",
"1175 358 OFFCURVE",
"1175 182 CURVE SMOOTH",
"1175 121 OFFCURVE",
"1157 56 OFFCURVE",
"1094 56 CURVE SMOOTH",
"1046 56 OFFCURVE",
"1016 97 OFFCURVE",
"1016 189 CURVE SMOOTH",
"1016 397 OFFCURVE",
"1123 494 OFFCURVE",
"1330 494 CURVE SMOOTH",
"1395 494 LINE",
"1395 0 LINE",
"1481 0 LINE",
"1481 494 LINE",
"1651 494 LINE",
"1651 566 LINE",
"1353 566 LINE SMOOTH",
"1092 566 OFFCURVE",
"932 432 OFFCURVE",
"932 186 CURVE SMOOTH",
"932 72 OFFCURVE",
"982 -12 OFFCURVE",
"1097 -12 CURVE SMOOTH",
"1198 -12 OFFCURVE",
"1260 56 OFFCURVE",
"1260 189 CURVE SMOOTH",
"1260 396 OFFCURVE",
"1100 576 OFFCURVE",
"886 576 CURVE SMOOTH",
"673 576 OFFCURVE",
"517 410 OFFCURVE",
"517 186 CURVE SMOOTH",
"517 72 OFFCURVE",
"567 -12 OFFCURVE",
"683 -12 CURVE SMOOTH",
"783 -12 OFFCURVE",
"845 56 OFFCURVE",
"845 189 CURVE SMOOTH",
"845 409 OFFCURVE",
"673 576 OFFCURVE",
"438 576 CURVE SMOOTH",
"225 576 OFFCURVE",
"70 428 OFFCURVE",
"70 231 CURVE SMOOTH",
"70 51 OFFCURVE",
"162 -12 OFFCURVE",
"269 -12 CURVE SMOOTH"
);
}
);
width = 1671;
}
);
leftMetricsKey = ttha_gran;
unicode = 11323;
},
{
glyphname = ta_gran;
lastChange = "2018-09-18 15:39:55 +0000";
layers = (
{
layerId = "229B7033-F00A-4676-AEB9-BF59C6456AE0";
paths = (
{
closed = 1;
nodes = (
"433 -12 OFFCURVE",
"499 80 OFFCURVE",
"499 246 CURVE SMOOTH",
"499 494 LINE",
"686 494 LINE",
"686 566 LINE",
"163 566 LINE",
"163 286 LINE",
"242 286 LINE",
"242 494 LINE",
"414 494 LINE",
"414 213 LINE SMOOTH",
"414 94 OFFCURVE",
"359 60 OFFCURVE",
"272 60 CURVE SMOOTH",
"195 60 OFFCURVE",
"138 91 OFFCURVE",
"138 153 CURVE SMOOTH",
"138 238 OFFCURVE",
"216 276 OFFCURVE",
"328 276 CURVE SMOOTH",
"470 276 LINE SMOOTH",
"578 276 OFFCURVE",
"694 235 OFFCURVE",
"694 105 CURVE SMOOTH",
"694 -56 OFFCURVE",
"559 -84 OFFCURVE",
"357 -84 CURVE SMOOTH",
"248 -84 LINE SMOOTH",
"181 -84 OFFCURVE",
"142 -94 OFFCURVE",
"107 -119 CURVE SMOOTH",
"73 -144 OFFCURVE",
"50 -184 OFFCURVE",
"50 -243 CURVE SMOOTH",
"50 -266 OFFCURVE",
"53 -297 OFFCURVE",
"57 -321 CURVE",
"139 -317 LINE",
"137 -301 OFFCURVE",
"136 -283 OFFCURVE",
"136 -263 CURVE SMOOTH",
"136 -219 OFFCURVE",
"148 -194 OFFCURVE",
"170 -179 CURVE SMOOTH",
"192 -164 OFFCURVE",
"219 -156 OFFCURVE",
"275 -156 CURVE SMOOTH",
"388 -156 LINE SMOOTH",
"614 -156 OFFCURVE",
"780 -101 OFFCURVE",
"780 98 CURVE SMOOTH",
"780 271 OFFCURVE",
"654 348 OFFCURVE",
"480 348 CURVE SMOOTH",
"335 348 LINE SMOOTH",
"132 348 OFFCURVE",
"52 260 OFFCURVE",
"52 152 CURVE SMOOTH",
"52 47 OFFCURVE",
"143 -12 OFFCURVE",
"264 -12 CURVE SMOOTH"
);
}
);
width = 830;
}
);
unicode = 11324;
},
{
glyphname = ta_gran.flat;
lastChange = "2018-09-18 15:39:55 +0000";
layers = (
{
layerId = "229B7033-F00A-4676-AEB9-BF59C6456AE0";
paths = (
{
closed = 1;
nodes = (
"388 -156 LINE SMOOTH",
"614 -156 OFFCURVE",
"780 -101 OFFCURVE",
"780 98 CURVE SMOOTH",
"780 271 OFFCURVE",
"654 348 OFFCURVE",
"480 348 CURVE SMOOTH",
"335 348 LINE SMOOTH",
"132 348 OFFCURVE",
"52 260 OFFCURVE",
"52 152 CURVE SMOOTH",
"52 47 OFFCURVE",
"143 -12 OFFCURVE",
"264 -12 CURVE SMOOTH",
"433 -12 OFFCURVE",
"499 80 OFFCURVE",
"499 246 CURVE SMOOTH",
"499 494 LINE",
"686 494 LINE",
"686 566 LINE",
"163 566 LINE",
"163 286 LINE",
"242 286 LINE",
"242 494 LINE",
"414 494 LINE",
"414 213 LINE SMOOTH",
"414 94 OFFCURVE",
"359 60 OFFCURVE",
"272 60 CURVE SMOOTH",
"195 60 OFFCURVE",
"138 91 OFFCURVE",
"138 153 CURVE SMOOTH",
"138 238 OFFCURVE",
"216 276 OFFCURVE",
"328 276 CURVE SMOOTH",
"470 276 LINE SMOOTH",
"578 276 OFFCURVE",
"694 235 OFFCURVE",
"694 105 CURVE SMOOTH",
"694 -56 OFFCURVE",
"559 -84 OFFCURVE",
"357 -84 CURVE SMOOTH",
"33 -84 LINE",
"33 -156 LINE"
);
}
);
width = 830;
}
);
script = gran;
category = Letter;
},
{
glyphname = tha_gran;
lastChange = "2018-09-18 15:39:55 +0000";
layers = (
{
layerId = "229B7033-F00A-4676-AEB9-BF59C6456AE0";
paths = (
{
closed = 1;
nodes = (
"374 266 LINE",
"374 170 LINE SMOOTH",
"374 -15 OFFCURVE",
"521 -96 OFFCURVE",
"665 -96 CURVE SMOOTH",
"927 -96 OFFCURVE",
"1008 132 OFFCURVE",
"1008 339 CURVE SMOOTH",
"1008 520 OFFCURVE",
"915 579 OFFCURVE",
"816 579 CURVE SMOOTH",
"703 579 OFFCURVE",
"625 511 OFFCURVE",
"625 410 CURVE SMOOTH",
"625 307 OFFCURVE",
"706 259 OFFCURVE",
"787 259 CURVE SMOOTH",
"892 259 OFFCURVE",
"957 338 OFFCURVE",
"977 415 CURVE",
"932 458 LINE",
"919 377 OFFCURVE",
"872 331 OFFCURVE",
"806 331 CURVE SMOOTH",
"747 331 OFFCURVE",
"711 366 OFFCURVE",
"711 416 CURVE SMOOTH",
"711 474 OFFCURVE",
"763 507 OFFCURVE",
"812 507 CURVE SMOOTH",
"857 507 OFFCURVE",
"922 469 OFFCURVE",
"922 346 CURVE SMOOTH",
"922 201 OFFCURVE",
"903 -24 OFFCURVE",
"664 -24 CURVE SMOOTH",
"555 -24 OFFCURVE",
"440 31 OFFCURVE",
"440 179 CURVE SMOOTH",
"440 266 LINE"
);
},
{
closed = 1;
nodes = (
"387 -11 OFFCURVE",
"440 63 OFFCURVE",
"440 213 CURVE SMOOTH",
"440 566 LINE",
"354 566 LINE",
"354 183 LINE SMOOTH",
"354 94 OFFCURVE",
"310 61 OFFCURVE",
"260 61 CURVE SMOOTH",
"211 61 OFFCURVE",
"166 91 OFFCURVE",
"166 183 CURVE SMOOTH",
"166 566 LINE",
"80 566 LINE",
"80 213 LINE SMOOTH",
"80 66 OFFCURVE",
"130 -11 OFFCURVE",
"260 -11 CURVE SMOOTH"
);
}
);
width = 1078;
}
);
rightMetricsKey = ttha_gran;
unicode = 11325;
},
{
glyphname = da_gran;
lastChange = "2018-09-18 15:39:55 +0000";
layers = (
{
layerId = "229B7033-F00A-4676-AEB9-BF59C6456AE0";
paths = (
{
closed = 1;
nodes = (
"180 576 OFFCURVE",
"70 520 OFFCURVE",
"70 406 CURVE SMOOTH",
"70 313 OFFCURVE",
"134 254 OFFCURVE",
"230 254 CURVE SMOOTH",
"337 254 OFFCURVE",
"396 319 OFFCURVE",
"396 403 CURVE SMOOTH",
"396 465 OFFCURVE",
"366 508 OFFCURVE",
"331 537 CURVE",
"271 520 LINE",
"305 488 OFFCURVE",
"318 450 OFFCURVE",
"318 412 CURVE SMOOTH",
"318 354 OFFCURVE",
"283 322 OFFCURVE",
"232 322 CURVE SMOOTH",
"173 322 OFFCURVE",
"149 359 OFFCURVE",
"149 403 CURVE SMOOTH",
"149 475 OFFCURVE",
"214 507 OFFCURVE",
"323 507 CURVE SMOOTH",
"419 507 OFFCURVE",
"529 481 OFFCURVE",
"529 359 CURVE SMOOTH",
"529 294 OFFCURVE",
"497 222 OFFCURVE",
"315 205 CURVE SMOOTH",
"240 198 LINE SMOOTH",
"119 187 OFFCURVE",
"75 152 OFFCURVE",
"75 92 CURVE SMOOTH",
"75 39 OFFCURVE",
"110 0 OFFCURVE",
"204 0 CURVE SMOOTH",
"763 0 LINE",
"763 72 LINE",
"195 72 LINE SMOOTH",
"169 72 OFFCURVE",
"159 80 OFFCURVE",
"159 93 CURVE SMOOTH",
"159 113 OFFCURVE",
"180 121 OFFCURVE",
"242 127 CURVE SMOOTH",
"322 135 LINE SMOOTH",
"496 153 OFFCURVE",
"615 203 OFFCURVE",
"615 359 CURVE SMOOTH",
"615 477 OFFCURVE",
"535 576 OFFCURVE",
"321 576 CURVE SMOOTH"
);
},
{
closed = 1;
nodes = (
"401 -127 LINE",
"487 -127 LINE",
"487 37 LINE",
"401 37 LINE"
);
}
);
width = 783;
}
);
leftMetricsKey = ttha_gran;
unicode = 11326;
},
{
glyphname = da_gran.alt;
lastChange = "2018-09-18 15:39:55 +0000";
layers = (
{
layerId = "229B7033-F00A-4676-AEB9-BF59C6456AE0";
paths = (
{
closed = 1;
nodes = (
"180 576 OFFCURVE",
"70 520 OFFCURVE",
"70 406 CURVE SMOOTH",
"70 313 OFFCURVE",
"134 254 OFFCURVE",
"230 254 CURVE SMOOTH",
"337 254 OFFCURVE",
"396 319 OFFCURVE",
"396 403 CURVE SMOOTH",
"396 465 OFFCURVE",
"366 508 OFFCURVE",
"331 537 CURVE",
"271 520 LINE",
"305 488 OFFCURVE",
"318 450 OFFCURVE",
"318 412 CURVE SMOOTH",
"318 354 OFFCURVE",
"283 322 OFFCURVE",
"232 322 CURVE SMOOTH",
"173 322 OFFCURVE",
"149 359 OFFCURVE",
"149 403 CURVE SMOOTH",
"149 475 OFFCURVE",
"214 507 OFFCURVE",
"323 507 CURVE SMOOTH",
"419 507 OFFCURVE",
"529 481 OFFCURVE",
"529 359 CURVE SMOOTH",
"529 294 OFFCURVE",
"497 222 OFFCURVE",
"315 205 CURVE SMOOTH",
"240 198 LINE SMOOTH",
"119 187 OFFCURVE",
"75 152 OFFCURVE",
"75 92 CURVE SMOOTH",
"75 39 OFFCURVE",
"110 0 OFFCURVE",
"204 0 CURVE SMOOTH",
"663 0 LINE",
"663 72 LINE",
"195 72 LINE SMOOTH",
"169 72 OFFCURVE",
"159 80 OFFCURVE",
"159 93 CURVE SMOOTH",
"159 113 OFFCURVE",
"180 121 OFFCURVE",
"242 127 CURVE SMOOTH",
"322 135 LINE SMOOTH",
"496 153 OFFCURVE",
"615 203 OFFCURVE",
"615 359 CURVE SMOOTH",
"615 477 OFFCURVE",
"535 576 OFFCURVE",
"321 576 CURVE SMOOTH"
);
},
{
closed = 1;
nodes = (
"401 -127 LINE",
"487 -127 LINE",
"487 37 LINE",
"401 37 LINE"
);
}
);
width = 783;
}
);
leftMetricsKey = ttha_gran;
},
{
glyphname = dha_gran;
lastChange = "2018-09-18 15:39:55 +0000";
layers = (
{
layerId = "229B7033-F00A-4676-AEB9-BF59C6456AE0";
paths = (
{
closed = 1;
nodes = (
"374 -15 OFFCURVE",
"485 -97 OFFCURVE",
"629 -97 CURVE SMOOTH",
"760 -97 OFFCURVE",
"975 -22 OFFCURVE",
"975 248 CURVE SMOOTH",
"975 418 OFFCURVE",
"866 554 OFFCURVE",
"718 576 CURVE",
"706 504 LINE",
"789 488 OFFCURVE",
"889 383 OFFCURVE",
"889 237 CURVE SMOOTH",
"889 64 OFFCURVE",
"769 -25 OFFCURVE",
"638 -25 CURVE SMOOTH",
"522 -25 OFFCURVE",
"440 31 OFFCURVE",
"440 137 CURVE SMOOTH",
"440 266 LINE",
"374 266 LINE",
"374 130 LINE SMOOTH"
);
},
{
closed = 1;
nodes = (
"387 -11 OFFCURVE",
"440 63 OFFCURVE",
"440 213 CURVE SMOOTH",
"440 566 LINE",
"354 566 LINE",
"354 183 LINE SMOOTH",
"354 94 OFFCURVE",
"310 61 OFFCURVE",
"260 61 CURVE SMOOTH",
"211 61 OFFCURVE",
"166 91 OFFCURVE",
"166 183 CURVE SMOOTH",
"166 566 LINE",
"80 566 LINE",
"80 213 LINE SMOOTH",
"80 66 OFFCURVE",
"130 -11 OFFCURVE",
"260 -11 CURVE SMOOTH"
);
}
);
width = 1045;
}
);
rightMetricsKey = ttha_gran;
unicode = 11327;
},
{
glyphname = na_gran;
lastChange = "2018-09-18 15:39:55 +0000";
layers = (
{
layerId = "229B7033-F00A-4676-AEB9-BF59C6456AE0";
paths = (
{
closed = 1;
nodes = (
"166 0 LINE",
"166 494 LINE",
"340 494 LINE",
"340 0 LINE",
"426 0 LINE",
"426 494 LINE",
"601 494 LINE",
"601 566 LINE",
"80 566 LINE",
"80 0 LINE"
);
},
{
closed = 1;
nodes = (
"496 362 OFFCURVE",
"454 343 OFFCURVE",
"419 322 CURVE",
"422 247 LINE",
"450 270 OFFCURVE",
"490 289 OFFCURVE",
"528 289 CURVE SMOOTH",
"605 289 OFFCURVE",
"647 234 OFFCURVE",
"647 131 CURVE SMOOTH",
"647 61 OFFCURVE",
"629 15 OFFCURVE",
"602 -14 CURVE SMOOTH",
"556 -64 OFFCURVE",
"493 -84 OFFCURVE",
"330 -84 CURVE SMOOTH",
"237 -84 LINE SMOOTH",
"170 -84 OFFCURVE",
"131 -94 OFFCURVE",
"96 -119 CURVE SMOOTH",
"62 -144 OFFCURVE",
"39 -184 OFFCURVE",
"39 -243 CURVE SMOOTH",
"39 -266 OFFCURVE",
"42 -297 OFFCURVE",
"46 -321 CURVE",
"128 -317 LINE",
"126 -301 OFFCURVE",
"125 -283 OFFCURVE",
"125 -263 CURVE SMOOTH",
"125 -219 OFFCURVE",
"137 -194 OFFCURVE",
"159 -179 CURVE SMOOTH",
"181 -164 OFFCURVE",
"208 -156 OFFCURVE",
"264 -156 CURVE SMOOTH",
"339 -156 LINE SMOOTH",
"483 -156 OFFCURVE",
"569 -141 OFFCURVE",
"634 -94 CURVE SMOOTH",
"696 -49 OFFCURVE",
"733 14 OFFCURVE",
"733 134 CURVE SMOOTH",
"733 282 OFFCURVE",
"650 362 OFFCURVE",
"549 362 CURVE SMOOTH"
);
}
);
width = 793;
}
);
unicode = 11328;
},
{
glyphname = na_gran.flat;
lastChange = "2018-09-18 15:39:55 +0000";
layers = (
{
layerId = "229B7033-F00A-4676-AEB9-BF59C6456AE0";
paths = (
{
closed = 1;
nodes = (
"166 0 LINE",
"166 494 LINE",
"340 494 LINE",
"340 0 LINE",
"426 0 LINE",
"426 494 LINE",
"601 494 LINE",
"601 566 LINE",
"80 566 LINE",
"80 0 LINE"
);
},
{
closed = 1;
nodes = (
"-20 -156 LINE",
"339 -156 LINE SMOOTH",
"483 -156 OFFCURVE",
"569 -141 OFFCURVE",
"634 -94 CURVE SMOOTH",
"696 -49 OFFCURVE",
"733 14 OFFCURVE",
"733 134 CURVE SMOOTH",
"733 282 OFFCURVE",
"650 362 OFFCURVE",
"549 362 CURVE SMOOTH",
"496 362 OFFCURVE",
"454 343 OFFCURVE",
"419 322 CURVE",
"422 247 LINE",
"450 270 OFFCURVE",
"490 289 OFFCURVE",
"528 289 CURVE SMOOTH",
"605 289 OFFCURVE",
"647 234 OFFCURVE",
"647 131 CURVE SMOOTH",
"647 61 OFFCURVE",
"629 15 OFFCURVE",
"602 -14 CURVE SMOOTH",
"556 -64 OFFCURVE",
"493 -84 OFFCURVE",
"330 -84 CURVE SMOOTH",
"-20 -84 LINE"
);
}
);
width = 793;
}
);
script = gran;
category = Letter;
},
{
glyphname = pa_gran;
lastChange = "2018-09-18 15:39:55 +0000";
layers = (
{
components = (
{
name = pa.base;
}
);
layerId = "229B7033-F00A-4676-AEB9-BF59C6456AE0";
paths = (
{
closed = 1;
nodes = (
"1376 566 LINE",
"1290 566 LINE",
"1290 0 LINE",
"1376 0 LINE"
);
}
);
width = 1456;
}
);
leftMetricsKey = ttha_gran;
unicode = 1132A;
},
{
glyphname = pha_gran;
lastChange = "2018-09-18 15:39:55 +0000";
layers = (
{
layerId = "229B7033-F00A-4676-AEB9-BF59C6456AE0";
paths = (
{
closed = 1;
nodes = (
"1460 513 OFFCURVE",
"1384 576 OFFCURVE",
"1284 576 CURVE SMOOTH",
"1184 576 OFFCURVE",
"1108 513 OFFCURVE",
"1108 326 CURVE SMOOTH",
"1108 0 LINE",
"1194 0 LINE",
"1194 368 LINE SMOOTH",
"1194 448 OFFCURVE",
"1224 504 OFFCURVE",
"1284 504 CURVE SMOOTH",
"1344 504 OFFCURVE",
"1374 448 OFFCURVE",
"1374 368 CURVE SMOOTH",
"1374 0 LINE",
"1460 0 LINE",
"1460 326 LINE SMOOTH"
);
},
{
closed = 1;
nodes = (
"376 -12 OFFCURVE",
"446 54 OFFCURVE",
"446 165 CURVE SMOOTH",
"446 265 OFFCURVE",
"377 328 OFFCURVE",
"281 328 CURVE SMOOTH",
"216 328 OFFCURVE",
"153 295 OFFCURVE",
"113 248 CURVE",
"128 184 LINE",
"167 227 OFFCURVE",
"214 258 OFFCURVE",
"267 258 CURVE SMOOTH",
"322 258 OFFCURVE",
"360 221 OFFCURVE",
"360 155 CURVE SMOOTH",
"360 91 OFFCURVE",
"325 60 OFFCURVE",
"273 60 CURVE SMOOTH",
"207 60 OFFCURVE",
"156 103 OFFCURVE",
"156 237 CURVE SMOOTH",
"156 383 OFFCURVE",
"240 502 OFFCURVE",
"380 502 CURVE SMOOTH",
"504 502 OFFCURVE",
"583 411 OFFCURVE",
"583 269 CURVE SMOOTH",
"583 178 OFFCURVE",
"562 109 OFFCURVE",
"531 63 CURVE",
"535 0 LINE",
"1460 0 LINE",
"1460 154 LINE",
"1374 154 LINE",
"1374 72 LINE",
"623 72 LINE",
"650 131 OFFCURVE",
"671 194 OFFCURVE",
"671 280 CURVE SMOOTH",
"671 437 OFFCURVE",
"587 576 OFFCURVE",
"384 576 CURVE SMOOTH",
"219 576 OFFCURVE",
"70 457 OFFCURVE",
"70 243 CURVE SMOOTH",
"70 63 OFFCURVE",
"162 -12 OFFCURVE",
"269 -12 CURVE SMOOTH"
);
}
);
width = 1540;
}
);
leftMetricsKey = ttha_gran;
unicode = 1132B;
},
{
glyphname = ba_gran;
lastChange = "2018-09-18 15:39:55 +0000";
layers = (
{
components = (
{
name = ba.base;
}
);
layerId = "229B7033-F00A-4676-AEB9-BF59C6456AE0";
paths = (
{
closed = 1;
nodes = (
"1484 566 LINE",
"1398 566 LINE",
"1398 0 LINE",
"1484 0 LINE"
);
}
);
width = 1564;
}
);
leftMetricsKey = ttha_gran;
unicode = 1132C;
},
{
glyphname = bha_gran;
lastChange = "2018-09-18 15:39:55 +0000";
layers = (
{
layerId = "229B7033-F00A-4676-AEB9-BF59C6456AE0";
paths = (
{
closed = 1;
nodes = (
"891 319 LINE SMOOTH",
"891 421 OFFCURVE",
"926 504 OFFCURVE",
"1022 504 CURVE SMOOTH",
"1113 504 OFFCURVE",
"1169 428 OFFCURVE",
"1169 247 CURVE SMOOTH",
"1169 -29 OFFCURVE",
"1066 -84 OFFCURVE",
"819 -84 CURVE SMOOTH",
"268 -84 LINE SMOOTH",
"201 -84 OFFCURVE",
"162 -94 OFFCURVE",
"127 -119 CURVE SMOOTH",
"93 -144 OFFCURVE",
"70 -184 OFFCURVE",
"70 -243 CURVE SMOOTH",
"70 -266 OFFCURVE",
"73 -297 OFFCURVE",
"77 -321 CURVE",
"159 -317 LINE",
"157 -301 OFFCURVE",
"156 -283 OFFCURVE",
"156 -263 CURVE SMOOTH",
"156 -219 OFFCURVE",
"168 -194 OFFCURVE",
"190 -179 CURVE SMOOTH",
"212 -164 OFFCURVE",
"239 -156 OFFCURVE",
"295 -156 CURVE SMOOTH",
"841 -156 LINE SMOOTH",
"958 -156 OFFCURVE",
"1066 -140 OFFCURVE",
"1143 -77 CURVE SMOOTH",
"1214 -19 OFFCURVE",
"1258 81 OFFCURVE",
"1258 244 CURVE SMOOTH",
"1258 449 OFFCURVE",
"1175 576 OFFCURVE",
"1023 576 CURVE SMOOTH",
"892 576 OFFCURVE",
"805 474 OFFCURVE",
"805 341 CURVE SMOOTH",
"805 153 LINE SMOOTH",
"805 108 OFFCURVE",
"783 60 OFFCURVE",
"740 60 CURVE SMOOTH",
"699 60 OFFCURVE",
"674 103 OFFCURVE",
"674 153 CURVE SMOOTH",
"674 280 LINE SMOOTH",
"674 437 OFFCURVE",
"582 576 OFFCURVE",
"388 576 CURVE SMOOTH",
"214 576 OFFCURVE",
"73 457 OFFCURVE",
"73 243 CURVE SMOOTH",
"73 63 OFFCURVE",
"165 -12 OFFCURVE",
"272 -12 CURVE SMOOTH",
"379 -12 OFFCURVE",
"449 54 OFFCURVE",
"449 165 CURVE SMOOTH",
"449 265 OFFCURVE",
"380 328 OFFCURVE",
"284 328 CURVE SMOOTH",
"219 328 OFFCURVE",
"156 295 OFFCURVE",
"116 248 CURVE",
"131 184 LINE",
"170 227 OFFCURVE",
"217 258 OFFCURVE",
"270 258 CURVE SMOOTH",
"325 258 OFFCURVE",
"363 221 OFFCURVE",
"363 155 CURVE SMOOTH",
"363 91 OFFCURVE",
"328 60 OFFCURVE",
"276 60 CURVE SMOOTH",
"210 60 OFFCURVE",
"159 103 OFFCURVE",
"159 237 CURVE SMOOTH",
"159 383 OFFCURVE",
"243 504 OFFCURVE",
"383 504 CURVE SMOOTH",
"507 504 OFFCURVE",
"586 411 OFFCURVE",
"586 269 CURVE SMOOTH",
"586 158 LINE SMOOTH",
"586 27 OFFCURVE",
"672 -12 OFFCURVE",
"737 -12 CURVE SMOOTH",
"836 -12 OFFCURVE",
"891 76 OFFCURVE",
"891 158 CURVE SMOOTH"
);
}
);
width = 1328;
}
);
leftMetricsKey = ttha_gran;
rightMetricsKey = ttha_gran;
unicode = 1132D;
},
{
glyphname = bha_gran.flat;
lastChange = "2018-09-18 15:39:55 +0000";
layers = (
{
layerId = "229B7033-F00A-4676-AEB9-BF59C6456AE0";
paths = (
{
closed = 1;
nodes = (
"70 -156 LINE",
"841 -156 LINE SMOOTH",
"958 -156 OFFCURVE",
"1066 -140 OFFCURVE",
"1143 -77 CURVE SMOOTH",
"1214 -19 OFFCURVE",
"1258 81 OFFCURVE",
"1258 244 CURVE SMOOTH",
"1258 449 OFFCURVE",
"1175 576 OFFCURVE",
"1023 576 CURVE SMOOTH",
"892 576 OFFCURVE",
"805 474 OFFCURVE",
"805 341 CURVE SMOOTH",
"805 153 LINE SMOOTH",
"805 108 OFFCURVE",
"783 60 OFFCURVE",
"740 60 CURVE SMOOTH",
"699 60 OFFCURVE",
"674 103 OFFCURVE",
"674 153 CURVE SMOOTH",
"674 280 LINE SMOOTH",
"674 437 OFFCURVE",
"582 576 OFFCURVE",
"388 576 CURVE SMOOTH",
"214 576 OFFCURVE",
"73 457 OFFCURVE",
"73 243 CURVE SMOOTH",
"73 63 OFFCURVE",
"165 -12 OFFCURVE",
"272 -12 CURVE SMOOTH",
"379 -12 OFFCURVE",
"449 54 OFFCURVE",
"449 165 CURVE SMOOTH",
"449 265 OFFCURVE",
"380 328 OFFCURVE",
"284 328 CURVE SMOOTH",
"219 328 OFFCURVE",
"156 295 OFFCURVE",
"116 248 CURVE",
"131 184 LINE",
"170 227 OFFCURVE",
"217 258 OFFCURVE",
"270 258 CURVE SMOOTH",
"325 258 OFFCURVE",
"363 221 OFFCURVE",
"363 155 CURVE SMOOTH",
"363 91 OFFCURVE",
"328 60 OFFCURVE",
"276 60 CURVE SMOOTH",
"210 60 OFFCURVE",
"159 103 OFFCURVE",
"159 237 CURVE SMOOTH",
"159 383 OFFCURVE",
"243 504 OFFCURVE",
"383 504 CURVE SMOOTH",
"507 504 OFFCURVE",
"586 411 OFFCURVE",
"586 269 CURVE SMOOTH",
"586 158 LINE SMOOTH",
"586 27 OFFCURVE",
"672 -12 OFFCURVE",
"737 -12 CURVE SMOOTH",
"836 -12 OFFCURVE",
"891 76 OFFCURVE",
"891 158 CURVE SMOOTH",
"891 319 LINE SMOOTH",
"891 421 OFFCURVE",
"926 504 OFFCURVE",
"1022 504 CURVE SMOOTH",
"1113 504 OFFCURVE",
"1169 428 OFFCURVE",
"1169 247 CURVE SMOOTH",
"1169 -29 OFFCURVE",
"1066 -84 OFFCURVE",
"819 -84 CURVE SMOOTH",
"70 -84 LINE"
);
}
);
width = 1328;
}
);
leftMetricsKey = bha_gran;
rightMetricsKey = bha_gran;
script = gran;
category = Letter;
},
{
glyphname = ma_gran;
lastChange = "2018-09-18 15:39:55 +0000";
layers = (
{
layerId = "229B7033-F00A-4676-AEB9-BF59C6456AE0";
paths = (
{
closed = 1;
nodes = (
"189 604 OFFCURVE",
"60 536 OFFCURVE",
"60 422 CURVE SMOOTH",
"60 345 OFFCURVE",
"114 291 OFFCURVE",
"207 291 CURVE SMOOTH",
"314 291 OFFCURVE",
"350 366 OFFCURVE",
"350 427 CURVE SMOOTH",
"350 484 OFFCURVE",
"320 536 OFFCURVE",
"285 565 CURVE",
"221 548 LINE",
"255 516 OFFCURVE",
"268 469 OFFCURVE",
"268 436 CURVE SMOOTH",
"268 393 OFFCURVE",
"246 359 OFFCURVE",
"204 359 CURVE SMOOTH",
"166 359 OFFCURVE",
"139 387 OFFCURVE",
"139 430 CURVE SMOOTH",
"139 505 OFFCURVE",
"220 532 OFFCURVE",
"333 532 CURVE SMOOTH",
"453 532 OFFCURVE",
"509 488 OFFCURVE",
"509 411 CURVE SMOOTH",
"509 350 OFFCURVE",
"475 311 OFFCURVE",
"376 272 CURVE SMOOTH",
"268 230 LINE SMOOTH",
"135 178 OFFCURVE",
"83 125 OFFCURVE",
"83 49 CURVE SMOOTH",
"83 -48 OFFCURVE",
"170 -112 OFFCURVE",
"301 -112 CURVE SMOOTH",
"455 -112 OFFCURVE",
"574 -15 OFFCURVE",
"574 96 CURVE SMOOTH",
"574 131 OFFCURVE",
"560 162 OFFCURVE",
"543 184 CURVE",
"476 154 LINE",
"489 138 OFFCURVE",
"500 115 OFFCURVE",
"500 91 CURVE SMOOTH",
"500 19 OFFCURVE",
"406 -38 OFFCURVE",
"308 -38 CURVE SMOOTH",
"253 -38 OFFCURVE",
"169 -19 OFFCURVE",
"169 48 CURVE SMOOTH",
"169 94 OFFCURVE",
"209 133 OFFCURVE",
"276 160 CURVE SMOOTH",
"382 202 LINE SMOOTH",
"491 245 OFFCURVE",
"595 300 OFFCURVE",
"595 421 CURVE SMOOTH",
"595 534 OFFCURVE",
"503 604 OFFCURVE",
"344 604 CURVE SMOOTH"
);
}
);
width = 665;
}
);
unicode = 1132E;
},
{
glyphname = ya_gran;
lastChange = "2018-09-18 15:39:55 +0000";
layers = (
{
components = (
{
name = ya.base;
}
);
layerId = "229B7033-F00A-4676-AEB9-BF59C6456AE0";
paths = (
{
closed = 1;
nodes = (
"867 566 LINE",
"781 566 LINE",
"781 0 LINE",
"867 0 LINE"
);
}
);
width = 947;
}
);
unicode = 1132F;
},
{
glyphname = ra_gran;
lastChange = "2018-09-18 15:39:55 +0000";
layers = (
{
layerId = "229B7033-F00A-4676-AEB9-BF59C6456AE0";
paths = (
{
closed = 1;
nodes = (
"80 566 LINE",
"80 0 LINE",
"166 0 LINE",
"166 494 LINE",
"796 494 LINE",
"796 566 LINE"
);
},
{
closed = 1;
nodes = (
"331 105 OFFCURVE",
"339 -12 OFFCURVE",
"497 -12 CURVE SMOOTH",
"655 -12 OFFCURVE",
"663 105 OFFCURVE",
"663 185 CURVE SMOOTH",
"663 502 LINE",
"577 502 LINE",
"577 176 LINE SMOOTH",
"577 110 OFFCURVE",
"565 58 OFFCURVE",
"497 58 CURVE SMOOTH",
"429 58 OFFCURVE",
"417 110 OFFCURVE",
"417 176 CURVE SMOOTH",
"417 502 LINE",
"331 502 LINE",
"331 185 LINE SMOOTH"
);
}
);
width = 856;
}
);
unicode = 11330;
},
{
glyphname = la_gran;
lastChange = "2018-09-18 15:39:55 +0000";
layers = (
{
layerId = "229B7033-F00A-4676-AEB9-BF59C6456AE0";
paths = (
{
closed = 1;
nodes = (
"646 580 OFFCURVE",
"766 512 OFFCURVE",
"768 327 CURVE SMOOTH",
"769 245 OFFCURVE",
"745 160 OFFCURVE",
"679 160 CURVE SMOOTH",
"611 160 OFFCURVE",
"590 250 OFFCURVE",
"590 333 CURVE SMOOTH",
"590 344 LINE",
"512 344 LINE",
"512 333 LINE SMOOTH",
"512 242 OFFCURVE",
"475 160 OFFCURVE",
"409 160 CURVE SMOOTH",
"372 160 OFFCURVE",
"333 185 OFFCURVE",
"333 251 CURVE SMOOTH",
"333 306 OFFCURVE",
"359 350 OFFCURVE",
"399 388 CURVE",
"334 433 LINE",
"279 382 OFFCURVE",
"247 322 OFFCURVE",
"247 251 CURVE SMOOTH",
"247 146 OFFCURVE",
"312 88 OFFCURVE",
"406 88 CURVE SMOOTH",
"492 88 OFFCURVE",
"537 138 OFFCURVE",
"559 194 CURVE",
"538 201 LINE",
"565 131 OFFCURVE",
"612 88 OFFCURVE",
"680 88 CURVE SMOOTH",
"778 88 OFFCURVE",
"854 189 OFFCURVE",
"854 334 CURVE SMOOTH",
"854 520 OFFCURVE",
"717 652 OFFCURVE",
"492 652 CURVE SMOOTH",
"258 652 OFFCURVE",
"70 499 OFFCURVE",
"70 242 CURVE SMOOTH",
"70 -54 OFFCURVE",
"285 -168 OFFCURVE",
"535 -168 CURVE SMOOTH",
"860 -168 OFFCURVE",
"1075 16 OFFCURVE",
"1075 331 CURVE SMOOTH",
"1075 504 OFFCURVE",
"1006 630 OFFCURVE",
"935 722 CURVE",
"868 679 LINE",
"942 590 OFFCURVE",
"989 485 OFFCURVE",
"989 327 CURVE SMOOTH",
"989 52 OFFCURVE",
"826 -96 OFFCURVE",
"535 -96 CURVE SMOOTH",
"325 -96 OFFCURVE",
"156 -19 OFFCURVE",
"156 243 CURVE SMOOTH",
"156 473 OFFCURVE",
"299 580 OFFCURVE",
"492 580 CURVE SMOOTH"
);
}
);
width = 1145;
}
);
leftMetricsKey = ttha_gran;
rightMetricsKey = ttha_gran;
unicode = 11332;
},
{
glyphname = lla_gran;
lastChange = "2018-09-18 15:39:55 +0000";
layers = (
{
layerId = "229B7033-F00A-4676-AEB9-BF59C6456AE0";
paths = (
{
closed = 1;
nodes = (
"1134 447 OFFCURVE",
"1052 576 OFFCURVE",
"867 576 CURVE SMOOTH",
"757 576 OFFCURVE",
"669 525 OFFCURVE",
"622 425 CURVE",
"634 425 LINE",
"595 522 OFFCURVE",
"511 576 OFFCURVE",
"383 576 CURVE SMOOTH",
"218 576 OFFCURVE",
"70 456 OFFCURVE",
"70 243 CURVE SMOOTH",
"70 63 OFFCURVE",
"162 -12 OFFCURVE",
"269 -12 CURVE SMOOTH",
"376 -12 OFFCURVE",
"446 54 OFFCURVE",
"446 165 CURVE SMOOTH",
"446 265 OFFCURVE",
"377 328 OFFCURVE",
"281 328 CURVE SMOOTH",
"216 328 OFFCURVE",
"153 295 OFFCURVE",
"113 248 CURVE",
"128 184 LINE",
"167 227 OFFCURVE",
"214 258 OFFCURVE",
"267 258 CURVE SMOOTH",
"322 258 OFFCURVE",
"360 221 OFFCURVE",
"360 155 CURVE SMOOTH",
"360 91 OFFCURVE",
"325 60 OFFCURVE",
"273 60 CURVE SMOOTH",
"207 60 OFFCURVE",
"156 103 OFFCURVE",
"156 238 CURVE SMOOTH",
"156 383 OFFCURVE",
"239 502 OFFCURVE",
"379 502 CURVE SMOOTH",
"503 502 OFFCURVE",
"582 421 OFFCURVE",
"582 279 CURVE SMOOTH",
"582 0 LINE",
"668 0 LINE",
"668 277 LINE SMOOTH",
"668 404 OFFCURVE",
"742 502 OFFCURVE",
"863 502 CURVE SMOOTH",
"969 502 OFFCURVE",
"1048 432 OFFCURVE",
"1048 321 CURVE SMOOTH",
"1048 248 OFFCURVE",
"1013 220 OFFCURVE",
"965 193 CURVE SMOOTH",
"922 169 OFFCURVE",
"878 151 OFFCURVE",
"878 94 CURVE SMOOTH",
"878 26 OFFCURVE",
"941 0 OFFCURVE",
"995 0 CURVE SMOOTH",
"1131 0 OFFCURVE",
"1202 0 OFFCURVE",
"1338 0 CURVE",
"1338 72 LINE",
"1025 72 LINE SMOOTH",
"969 72 OFFCURVE",
"960 87 OFFCURVE",
"960 99 CURVE SMOOTH",
"960 121 OFFCURVE",
"991 125 OFFCURVE",
"1029 146 CURVE SMOOTH",
"1083 176 OFFCURVE",
"1134 231 OFFCURVE",
"1134 326 CURVE SMOOTH"
);
}
);
width = 1368;
}
);
leftMetricsKey = ttha_gran;
unicode = 11333;
},
{
glyphname = va_gran;
lastChange = "2018-09-18 15:39:55 +0000";
layers = (
{
layerId = "229B7033-F00A-4676-AEB9-BF59C6456AE0";
paths = (
{
closed = 1;
nodes = (
"376 -12 OFFCURVE",
"446 54 OFFCURVE",
"446 165 CURVE SMOOTH",
"446 265 OFFCURVE",
"377 328 OFFCURVE",
"281 328 CURVE SMOOTH",
"216 328 OFFCURVE",
"153 295 OFFCURVE",
"113 248 CURVE",
"128 184 LINE",
"167 227 OFFCURVE",
"214 258 OFFCURVE",
"267 258 CURVE SMOOTH",
"322 258 OFFCURVE",
"360 221 OFFCURVE",
"360 155 CURVE SMOOTH",
"360 91 OFFCURVE",
"325 60 OFFCURVE",
"271 60 CURVE SMOOTH",
"207 60 OFFCURVE",
"156 103 OFFCURVE",
"156 237 CURVE SMOOTH",
"156 383 OFFCURVE",
"240 502 OFFCURVE",
"380 502 CURVE SMOOTH",
"504 502 OFFCURVE",
"585 411 OFFCURVE",
"585 269 CURVE SMOOTH",
"585 178 OFFCURVE",
"562 109 OFFCURVE",
"531 63 CURVE",
"535 0 LINE",
"976 0 LINE",
"976 566 LINE",
"890 566 LINE",
"890 72 LINE",
"623 72 LINE",
"650 131 OFFCURVE",
"671 194 OFFCURVE",
"671 280 CURVE SMOOTH",
"671 437 OFFCURVE",
"587 576 OFFCURVE",
"384 576 CURVE SMOOTH",
"219 576 OFFCURVE",
"70 457 OFFCURVE",
"70 243 CURVE SMOOTH",
"70 63 OFFCURVE",
"162 -12 OFFCURVE",
"269 -12 CURVE SMOOTH"
);
}
);
width = 1056;
}
);
leftMetricsKey = ttha_gran;
unicode = 11335;
},
{
glyphname = sha_gran;
lastChange = "2018-09-18 15:39:55 +0000";
layers = (
{
layerId = "229B7033-F00A-4676-AEB9-BF59C6456AE0";
paths = (
{
closed = 1;
nodes = (
"577 115 OFFCURVE",
"585 -12 OFFCURVE",
"753 -12 CURVE SMOOTH",
"921 -12 OFFCURVE",
"929 115 OFFCURVE",
"929 195 CURVE SMOOTH",
"929 502 LINE",
"843 502 LINE",
"843 188 LINE SMOOTH",
"843 122 OFFCURVE",
"831 60 OFFCURVE",
"753 60 CURVE SMOOTH",
"675 60 OFFCURVE",
"663 122 OFFCURVE",
"663 188 CURVE SMOOTH",
"663 502 LINE",
"577 502 LINE",
"577 195 LINE SMOOTH"
);
},
{
closed = 1;
nodes = (
"346 188 LINE SMOOTH",
"346 122 OFFCURVE",
"334 60 OFFCURVE",
"256 60 CURVE SMOOTH",
"178 60 OFFCURVE",
"166 122 OFFCURVE",
"166 188 CURVE SMOOTH",
"166 566 LINE",
"80 566 LINE",
"80 195 LINE SMOOTH",
"80 115 OFFCURVE",
"88 -12 OFFCURVE",
"256 -12 CURVE SMOOTH",
"424 -12 OFFCURVE",
"432 115 OFFCURVE",
"432 195 CURVE SMOOTH",
"432 494 LINE",
"1042 494 LINE",
"1042 566 LINE",
"346 566 LINE"
);
}
);
width = 1082;
}
);
unicode = 11336;
},
{
glyphname = ssa_gran;
lastChange = "2018-09-18 15:39:55 +0000";
layers = (
{
layerId = "229B7033-F00A-4676-AEB9-BF59C6456AE0";
paths = (
{
closed = 1;
nodes = (
"818 576 OFFCURVE",
"755 485 OFFCURVE",
"755 384 CURVE SMOOTH",
"755 246 OFFCURVE",
"861 182 OFFCURVE",
"1004 182 CURVE SMOOTH",
"1019 182 LINE SMOOTH",
"1107 182 OFFCURVE",
"1173 213 OFFCURVE",
"1212 247 CURVE",
"1209 219 OFFCURVE",
"1208 184 OFFCURVE",
"1208 153 CURVE SMOOTH",
"1208 72 LINE",
"800 72 LINE",
"800 0 LINE",
"1289 0 LINE",
"1289 328 LINE",
"1208 328 LINE",
"1172 294 OFFCURVE",
"1114 252 OFFCURVE",
"1021 252 CURVE SMOOTH",
"1004 252 LINE SMOOTH",
"906 252 OFFCURVE",
"838 291 OFFCURVE",
"838 382 CURVE SMOOTH",
"838 456 OFFCURVE",
"874 504 OFFCURVE",
"929 504 CURVE SMOOTH",
"976 504 OFFCURVE",
"1002 461 OFFCURVE",
"1002 403 CURVE SMOOTH",
"1002 354 OFFCURVE",
"995 300 OFFCURVE",
"977 230 CURVE SMOOTH",
"853 -262 LINE",
"932 -284 LINE",
"1064 239 LINE SMOOTH",
"1080 301 OFFCURVE",
"1089 355 OFFCURVE",
"1089 406 CURVE SMOOTH",
"1089 492 OFFCURVE",
"1043 576 OFFCURVE",
"929 576 CURVE SMOOTH"
);
},
{
closed = 1;
nodes = (
"376 -12 OFFCURVE",
"446 54 OFFCURVE",
"446 165 CURVE SMOOTH",
"446 269 OFFCURVE",
"377 328 OFFCURVE",
"281 328 CURVE SMOOTH",
"216 328 OFFCURVE",
"153 295 OFFCURVE",
"113 248 CURVE",
"128 184 LINE",
"167 227 OFFCURVE",
"214 258 OFFCURVE",
"267 258 CURVE SMOOTH",
"322 258 OFFCURVE",
"360 221 OFFCURVE",
"360 155 CURVE SMOOTH",
"360 91 OFFCURVE",
"325 60 OFFCURVE",
"273 60 CURVE SMOOTH",
"207 60 OFFCURVE",
"156 103 OFFCURVE",
"156 237 CURVE SMOOTH",
"156 383 OFFCURVE",
"240 504 OFFCURVE",
"380 504 CURVE SMOOTH",
"504 504 OFFCURVE",
"585 411 OFFCURVE",
"585 269 CURVE SMOOTH",
"585 178 OFFCURVE",
"562 109 OFFCURVE",
"531 63 CURVE",
"535 0 LINE",
"887 0 LINE",
"887 72 LINE",
"623 72 LINE",
"650 131 OFFCURVE",
"671 194 OFFCURVE",
"671 280 CURVE SMOOTH",
"671 437 OFFCURVE",
"587 576 OFFCURVE",
"384 576 CURVE SMOOTH",
"219 576 OFFCURVE",
"70 457 OFFCURVE",
"70 243 CURVE SMOOTH",
"70 63 OFFCURVE",
"162 -12 OFFCURVE",
"269 -12 CURVE SMOOTH"
);
}
);
width = 1369;
}
);
leftMetricsKey = ttha_gran;
unicode = 11337;
},
{
glyphname = ssa_gran.flat;
lastChange = "2018-09-18 15:39:55 +0000";
layers = (
{
layerId = "229B7033-F00A-4676-AEB9-BF59C6456AE0";
paths = (
{
closed = 1;
nodes = (
"376 -12 OFFCURVE",
"446 54 OFFCURVE",
"446 165 CURVE SMOOTH",
"446 269 OFFCURVE",
"377 328 OFFCURVE",
"281 328 CURVE SMOOTH",
"216 328 OFFCURVE",
"153 295 OFFCURVE",
"113 248 CURVE",
"128 184 LINE",
"167 227 OFFCURVE",
"214 258 OFFCURVE",
"267 258 CURVE SMOOTH",
"322 258 OFFCURVE",
"360 221 OFFCURVE",
"360 155 CURVE SMOOTH",
"360 91 OFFCURVE",
"325 60 OFFCURVE",
"273 60 CURVE SMOOTH",
"207 60 OFFCURVE",
"156 103 OFFCURVE",
"156 237 CURVE SMOOTH",
"156 383 OFFCURVE",
"240 504 OFFCURVE",
"380 504 CURVE SMOOTH",
"504 504 OFFCURVE",
"585 411 OFFCURVE",
"585 269 CURVE SMOOTH",
"585 178 OFFCURVE",
"562 109 OFFCURVE",
"531 63 CURVE",
"535 0 LINE",
"887 0 LINE",
"887 72 LINE",
"623 72 LINE",
"650 131 OFFCURVE",
"671 194 OFFCURVE",
"671 280 CURVE SMOOTH",
"671 437 OFFCURVE",
"587 576 OFFCURVE",
"384 576 CURVE SMOOTH",
"219 576 OFFCURVE",
"70 457 OFFCURVE",
"70 243 CURVE SMOOTH",
"70 63 OFFCURVE",
"162 -12 OFFCURVE",
"269 -12 CURVE SMOOTH"
);
},
{
closed = 1;
nodes = (
"971 -129 LINE",
"1064 239 LINE SMOOTH",
"1080 301 OFFCURVE",
"1089 355 OFFCURVE",
"1089 406 CURVE SMOOTH",
"1089 492 OFFCURVE",
"1043 576 OFFCURVE",
"929 576 CURVE SMOOTH",
"818 576 OFFCURVE",
"755 485 OFFCURVE",
"755 384 CURVE SMOOTH",
"755 246 OFFCURVE",
"861 182 OFFCURVE",
"1004 182 CURVE SMOOTH",
"1019 182 LINE SMOOTH",
"1107 182 OFFCURVE",
"1173 213 OFFCURVE",
"1212 247 CURVE",
"1209 219 OFFCURVE",
"1208 184 OFFCURVE",
"1208 153 CURVE SMOOTH",
"1208 72 LINE",
"800 72 LINE",
"800 0 LINE",
"1289 0 LINE",
"1289 328 LINE",
"1208 328 LINE",
"1172 294 OFFCURVE",
"1114 252 OFFCURVE",
"1021 252 CURVE SMOOTH",
"1004 252 LINE SMOOTH",
"906 252 OFFCURVE",
"838 291 OFFCURVE",
"838 382 CURVE SMOOTH",
"838 456 OFFCURVE",
"874 504 OFFCURVE",
"929 504 CURVE SMOOTH",
"976 504 OFFCURVE",
"1002 461 OFFCURVE",
"1002 403 CURVE SMOOTH",
"1002 354 OFFCURVE",
"995 300 OFFCURVE",
"977 230 CURVE SMOOTH",
"892 -107 LINE"
);
}
);
width = 1369;
}
);
leftMetricsKey = ttha_gran;
category = Letter;
},
{
glyphname = sa_gran;
lastChange = "2018-09-18 15:39:55 +0000";
layers = (
{
layerId = "229B7033-F00A-4676-AEB9-BF59C6456AE0";
paths = (
{
closed = 1;
nodes = (
"1463 477 OFFCURVE",
"1488 362 OFFCURVE",
"1488 275 CURVE SMOOTH",
"1488 174 OFFCURVE",
"1445 61 OFFCURVE",
"1332 61 CURVE SMOOTH",
"1260 61 OFFCURVE",
"1208 105 OFFCURVE",
"1208 182 CURVE SMOOTH",
"1208 356 LINE SMOOTH",
"1208 496 OFFCURVE",
"1144 576 OFFCURVE",
"1032 576 CURVE SMOOTH",
"920 576 OFFCURVE",
"856 496 OFFCURVE",
"856 356 CURVE SMOOTH",
"856 0 LINE",
"942 0 LINE",
"942 338 LINE SMOOTH",
"942 427 OFFCURVE",
"962 504 OFFCURVE",
"1032 504 CURVE SMOOTH",
"1102 504 OFFCURVE",
"1122 434 OFFCURVE",
"1122 338 CURVE SMOOTH",
"1122 191 LINE SMOOTH",
"1122 67 OFFCURVE",
"1202 -11 OFFCURVE",
"1332 -11 CURVE SMOOTH",
"1501 -11 OFFCURVE",
"1574 139 OFFCURVE",
"1574 278 CURVE SMOOTH",
"1574 386 OFFCURVE",
"1522 550 OFFCURVE",
"1358 576 CURVE",
"1358 504 LINE"
);
},
{
closed = 1;
nodes = (
"376 -12 OFFCURVE",
"446 54 OFFCURVE",
"446 165 CURVE SMOOTH",
"446 269 OFFCURVE",
"377 328 OFFCURVE",
"281 328 CURVE SMOOTH",
"216 328 OFFCURVE",
"153 295 OFFCURVE",
"113 248 CURVE",
"128 184 LINE",
"167 227 OFFCURVE",
"214 258 OFFCURVE",
"267 258 CURVE SMOOTH",
"322 258 OFFCURVE",
"360 221 OFFCURVE",
"360 155 CURVE SMOOTH",
"360 91 OFFCURVE",
"325 60 OFFCURVE",
"273 60 CURVE SMOOTH",
"207 60 OFFCURVE",
"156 103 OFFCURVE",
"156 237 CURVE SMOOTH",
"156 383 OFFCURVE",
"240 504 OFFCURVE",
"380 504 CURVE SMOOTH",
"504 504 OFFCURVE",
"585 411 OFFCURVE",
"585 269 CURVE SMOOTH",
"585 178 OFFCURVE",
"562 109 OFFCURVE",
"531 63 CURVE",
"535 0 LINE",
"887 0 LINE",
"889 72 LINE",
"623 72 LINE",
"650 131 OFFCURVE",
"671 194 OFFCURVE",
"671 280 CURVE SMOOTH",
"671 437 OFFCURVE",
"587 576 OFFCURVE",
"384 576 CURVE SMOOTH",
"219 576 OFFCURVE",
"70 457 OFFCURVE",
"70 243 CURVE SMOOTH",
"70 63 OFFCURVE",
"162 -12 OFFCURVE",
"269 -12 CURVE SMOOTH"
);
}
);
width = 1644;
}
);
leftMetricsKey = ttha_gran;
rightMetricsKey = ttha_gran;
unicode = 11338;
},
{
glyphname = ha_gran;
lastChange = "2018-09-18 15:39:55 +0000";
layers = (
{
layerId = "229B7033-F00A-4676-AEB9-BF59C6456AE0";
paths = (
{
closed = 1;
nodes = (
"1252 576 OFFCURVE",
"1186 526 OFFCURVE",
"1164 450 CURVE",
"1206 454 LINE",
"1174 534 OFFCURVE",
"1132 576 OFFCURVE",
"1041 576 CURVE SMOOTH",
"929 576 OFFCURVE",
"866 499 OFFCURVE",
"866 351 CURVE SMOOTH",
"866 0 LINE",
"952 0 LINE",
"952 338 LINE SMOOTH",
"952 427 OFFCURVE",
"972 504 OFFCURVE",
"1042 504 CURVE SMOOTH",
"1114 504 OFFCURVE",
"1132 434 OFFCURVE",
"1132 338 CURVE SMOOTH",
"1132 0 LINE",
"1218 0 LINE",
"1218 329 LINE SMOOTH",
"1218 431 OFFCURVE",
"1245 504 OFFCURVE",
"1344 504 CURVE SMOOTH",
"1433 504 OFFCURVE",
"1496 438 OFFCURVE",
"1496 247 CURVE SMOOTH",
"1496 -29 OFFCURVE",
"1393 -84 OFFCURVE",
"1146 -84 CURVE SMOOTH",
"275 -84 LINE SMOOTH",
"208 -84 OFFCURVE",
"169 -94 OFFCURVE",
"134 -119 CURVE SMOOTH",
"100 -144 OFFCURVE",
"77 -184 OFFCURVE",
"77 -243 CURVE SMOOTH",
"77 -266 OFFCURVE",
"80 -297 OFFCURVE",
"84 -321 CURVE",
"166 -317 LINE",
"164 -301 OFFCURVE",
"163 -283 OFFCURVE",
"163 -263 CURVE SMOOTH",
"163 -219 OFFCURVE",
"175 -194 OFFCURVE",
"197 -179 CURVE SMOOTH",
"219 -164 OFFCURVE",
"246 -156 OFFCURVE",
"302 -156 CURVE SMOOTH",
"1168 -156 LINE SMOOTH",
"1454 -156 OFFCURVE",
"1582 -47 OFFCURVE",
"1582 244 CURVE SMOOTH",
"1582 459 OFFCURVE",
"1502 576 OFFCURVE",
"1350 576 CURVE SMOOTH"
);
},
{
closed = 1;
nodes = (
"386 -12 OFFCURVE",
"456 54 OFFCURVE",
"456 165 CURVE SMOOTH",
"456 269 OFFCURVE",
"387 328 OFFCURVE",
"291 328 CURVE SMOOTH",
"226 328 OFFCURVE",
"163 295 OFFCURVE",
"123 248 CURVE",
"138 184 LINE",
"177 227 OFFCURVE",
"224 258 OFFCURVE",
"277 258 CURVE SMOOTH",
"332 258 OFFCURVE",
"370 221 OFFCURVE",
"370 155 CURVE SMOOTH",
"370 91 OFFCURVE",
"335 60 OFFCURVE",
"283 60 CURVE SMOOTH",
"217 60 OFFCURVE",
"166 103 OFFCURVE",
"166 237 CURVE SMOOTH",
"166 383 OFFCURVE",
"250 504 OFFCURVE",
"390 504 CURVE SMOOTH",
"514 504 OFFCURVE",
"595 411 OFFCURVE",
"595 269 CURVE SMOOTH",
"595 178 OFFCURVE",
"572 109 OFFCURVE",
"541 63 CURVE",
"545 0 LINE",
"897 0 LINE",
"899 72 LINE",
"633 72 LINE",
"660 131 OFFCURVE",
"681 194 OFFCURVE",
"681 280 CURVE SMOOTH",
"681 437 OFFCURVE",
"597 576 OFFCURVE",
"394 576 CURVE SMOOTH",
"229 576 OFFCURVE",
"80 457 OFFCURVE",
"80 243 CURVE SMOOTH",
"80 63 OFFCURVE",
"172 -12 OFFCURVE",
"279 -12 CURVE SMOOTH"
);
}
);
width = 1652;
}
);
rightMetricsKey = ttha_gran;
unicode = 11339;
},
{
glyphname = ha_gran.flat;
lastChange = "2018-09-18 15:39:55 +0000";
layers = (
{
layerId = "229B7033-F00A-4676-AEB9-BF59C6456AE0";
paths = (
{
closed = 1;
nodes = (
"1168 -156 LINE SMOOTH",
"1454 -156 OFFCURVE",
"1582 -47 OFFCURVE",
"1582 244 CURVE SMOOTH",
"1582 459 OFFCURVE",
"1502 576 OFFCURVE",
"1350 576 CURVE SMOOTH",
"1252 576 OFFCURVE",
"1186 526 OFFCURVE",
"1164 450 CURVE",
"1206 454 LINE",
"1174 534 OFFCURVE",
"1132 576 OFFCURVE",
"1041 576 CURVE SMOOTH",
"929 576 OFFCURVE",
"866 499 OFFCURVE",
"866 351 CURVE SMOOTH",
"866 0 LINE",
"952 0 LINE",
"952 338 LINE SMOOTH",
"952 427 OFFCURVE",
"972 504 OFFCURVE",
"1042 504 CURVE SMOOTH",
"1114 504 OFFCURVE",
"1132 434 OFFCURVE",
"1132 338 CURVE SMOOTH",
"1132 0 LINE",
"1218 0 LINE",
"1218 329 LINE SMOOTH",
"1218 431 OFFCURVE",
"1245 504 OFFCURVE",
"1344 504 CURVE SMOOTH",
"1433 504 OFFCURVE",
"1496 438 OFFCURVE",
"1496 247 CURVE SMOOTH",
"1496 -29 OFFCURVE",
"1393 -84 OFFCURVE",
"1146 -84 CURVE SMOOTH",
"77 -84 LINE",
"77 -156 LINE"
);
},
{
closed = 1;
nodes = (
"386 -12 OFFCURVE",
"456 54 OFFCURVE",
"456 165 CURVE SMOOTH",
"456 269 OFFCURVE",
"387 328 OFFCURVE",
"291 328 CURVE SMOOTH",
"226 328 OFFCURVE",
"163 295 OFFCURVE",
"123 248 CURVE",
"138 184 LINE",
"177 227 OFFCURVE",
"224 258 OFFCURVE",
"277 258 CURVE SMOOTH",
"332 258 OFFCURVE",
"370 221 OFFCURVE",
"370 155 CURVE SMOOTH",
"370 91 OFFCURVE",
"335 60 OFFCURVE",
"283 60 CURVE SMOOTH",
"217 60 OFFCURVE",
"166 103 OFFCURVE",
"166 237 CURVE SMOOTH",
"166 383 OFFCURVE",
"250 504 OFFCURVE",
"390 504 CURVE SMOOTH",
"514 504 OFFCURVE",
"595 411 OFFCURVE",
"595 269 CURVE SMOOTH",
"595 178 OFFCURVE",
"572 109 OFFCURVE",
"541 63 CURVE",
"545 0 LINE",
"897 0 LINE",
"899 72 LINE",
"633 72 LINE",
"660 131 OFFCURVE",
"681 194 OFFCURVE",
"681 280 CURVE SMOOTH",
"681 437 OFFCURVE",
"597 576 OFFCURVE",
"394 576 CURVE SMOOTH",
"229 576 OFFCURVE",
"80 457 OFFCURVE",
"80 243 CURVE SMOOTH",
"80 63 OFFCURVE",
"172 -12 OFFCURVE",
"279 -12 CURVE SMOOTH"
);
}
);
width = 1652;
}
);
leftMetricsKey = ha_gran;
rightMetricsKey = ttha_gran;
category = Letter;
},
{
glyphname = anusvaraAbove_gran;
lastChange = "2018-09-18 15:39:08 +0000";
layers = (
{
layerId = "229B7033-F00A-4676-AEB9-BF59C6456AE0";
paths = (
{
closed = 1;
nodes = (
"-314 699 OFFCURVE",
"-265 650 OFFCURVE",
"-194 650 CURVE SMOOTH",
"-123 650 OFFCURVE",
"-74 699 OFFCURVE",
"-74 770 CURVE SMOOTH",
"-74 841 OFFCURVE",
"-123 891 OFFCURVE",
"-194 891 CURVE SMOOTH",
"-265 891 OFFCURVE",
"-314 841 OFFCURVE",
"-314 770 CURVE SMOOTH"
);
},
{
closed = 1;
nodes = (
"-254 807 OFFCURVE",
"-230 833 OFFCURVE",
"-194 833 CURVE SMOOTH",
"-159 833 OFFCURVE",
"-134 807 OFFCURVE",
"-134 770 CURVE SMOOTH",
"-134 734 OFFCURVE",
"-159 708 OFFCURVE",
"-194 708 CURVE SMOOTH",
"-230 708 OFFCURVE",
"-254 734 OFFCURVE",
"-254 770 CURVE SMOOTH"
);
}
);
width = 0;
}
);
unicode = 11300;
},
{
glyphname = candrabindu_gran;
lastChange = "2018-09-18 15:39:46 +0000";
layers = (
{
layerId = "229B7033-F00A-4676-AEB9-BF59C6456AE0";
paths = (
{
closed = 1;
nodes = (
"-331 789 OFFCURVE",
"-309 767 OFFCURVE",
"-282 767 CURVE SMOOTH",
"-254 767 OFFCURVE",
"-232 789 OFFCURVE",
"-232 817 CURVE SMOOTH",
"-232 845 OFFCURVE",
"-254 866 OFFCURVE",
"-282 866 CURVE SMOOTH",
"-309 866 OFFCURVE",
"-331 845 OFFCURVE",
"-331 817 CURVE SMOOTH"
);
},
{
closed = 1;
nodes = (
"-148 857 LINE",
"-164 785 OFFCURVE",
"-196 717 OFFCURVE",
"-278 717 CURVE SMOOTH",
"-360 717 OFFCURVE",
"-410 785 OFFCURVE",
"-426 857 CURVE",
"-495 833 LINE",
"-478 737 OFFCURVE",
"-397 650 OFFCURVE",
"-281 650 CURVE SMOOTH",
"-165 650 OFFCURVE",
"-91 737 OFFCURVE",
"-74 833 CURVE"
);
}
);
width = 0;
}
);
unicode = 11301;
script = gran;
category = Mark;
subCategory = Nonspacing;
},
{
glyphname = anusvara_gran;
lastChange = "2018-09-18 15:39:36 +0000";
layers = (
{
layerId = "229B7033-F00A-4676-AEB9-BF59C6456AE0";
paths = (
{
closed = 1;
nodes = (
"60 60 OFFCURVE",
"145 -22 OFFCURVE",
"264 -22 CURVE SMOOTH",
"384 -22 OFFCURVE",
"469 60 OFFCURVE",
"469 192 CURVE SMOOTH",
"469 325 OFFCURVE",
"384 406 OFFCURVE",
"264 406 CURVE SMOOTH",
"145 406 OFFCURVE",
"60 325 OFFCURVE",
"60 192 CURVE SMOOTH"
);
},
{
closed = 1;
nodes = (
"136 276 OFFCURVE",
"177 344 OFFCURVE",
"264 344 CURVE SMOOTH",
"350 344 OFFCURVE",
"393 276 OFFCURVE",
"393 192 CURVE SMOOTH",
"393 110 OFFCURVE",
"350 40 OFFCURVE",
"264 40 CURVE SMOOTH",
"177 40 OFFCURVE",
"136 110 OFFCURVE",
"136 192 CURVE SMOOTH"
);
}
);
width = 0;
}
);
unicode = 11302;
script = gran;
category = Mark;
subCategory = Nonspacing;
},
{
glyphname = visarga_gran;
lastChange = "2018-09-18 15:38:24 +0000";
layers = (
{
layerId = "229B7033-F00A-4676-AEB9-BF59C6456AE0";
paths = (
{
closed = 1;
nodes = (
"273 309 OFFCURVE",
"329 368 OFFCURVE",
"329 441 CURVE SMOOTH",
"329 513 OFFCURVE",
"273 571 OFFCURVE",
"200 571 CURVE SMOOTH",
"127 571 OFFCURVE",
"68 513 OFFCURVE",
"68 441 CURVE SMOOTH",
"68 368 OFFCURVE",
"127 309 OFFCURVE",
"200 309 CURVE SMOOTH"
);
},
{
closed = 1;
nodes = (
"162 374 OFFCURVE",
"133 402 OFFCURVE",
"133 440 CURVE SMOOTH",
"133 476 OFFCURVE",
"162 506 OFFCURVE",
"199 506 CURVE SMOOTH",
"235 506 OFFCURVE",
"264 476 OFFCURVE",
"264 440 CURVE SMOOTH",
"264 402 OFFCURVE",
"235 374 OFFCURVE",
"199 374 CURVE SMOOTH"
);
},
{
closed = 1;
nodes = (
"273 -18 OFFCURVE",
"329 41 OFFCURVE",
"329 114 CURVE SMOOTH",
"329 186 OFFCURVE",
"273 245 OFFCURVE",
"200 245 CURVE SMOOTH",
"127 245 OFFCURVE",
"68 186 OFFCURVE",
"68 114 CURVE SMOOTH",
"68 41 OFFCURVE",
"127 -18 OFFCURVE",
"200 -18 CURVE SMOOTH"
);
},
{
closed = 1;
nodes = (
"162 47 OFFCURVE",
"133 76 OFFCURVE",
"133 113 CURVE SMOOTH",
"133 149 OFFCURVE",
"162 180 OFFCURVE",
"199 180 CURVE SMOOTH",
"235 180 OFFCURVE",
"264 149 OFFCURVE",
"264 113 CURVE SMOOTH",
"264 76 OFFCURVE",
"235 47 OFFCURVE",
"199 47 CURVE SMOOTH"
);
}
);
width = 400;
}
);
unicode = 11303;
category = Letter;
},
{
glyphname = binducomb_gran;
lastChange = "2018-09-18 15:38:49 +0000";
layers = (
{
layerId = "229B7033-F00A-4676-AEB9-BF59C6456AE0";
paths = (
{
closed = 1;
nodes = (
"-258 -364 OFFCURVE",
"-223 -329 OFFCURVE",
"-223 -285 CURVE SMOOTH",
"-223 -242 OFFCURVE",
"-258 -207 OFFCURVE",
"-302 -207 CURVE SMOOTH",
"-346 -207 OFFCURVE",
"-381 -242 OFFCURVE",
"-381 -285 CURVE SMOOTH",
"-381 -329 OFFCURVE",
"-346 -364 OFFCURVE",
"-302 -364 CURVE SMOOTH"
);
}
);
width = 0;
}
);
unicode = 1133B;
category = Mark;
subCategory = Nonspacing;
},
{
glyphname = nukta_gran;
lastChange = "2018-09-18 15:38:49 +0000";
layers = (
{
layerId = "229B7033-F00A-4676-AEB9-BF59C6456AE0";
paths = (
{
closed = 1;
nodes = (
"-394 -364 OFFCURVE",
"-359 -329 OFFCURVE",
"-359 -285 CURVE SMOOTH",
"-359 -242 OFFCURVE",
"-394 -207 OFFCURVE",
"-438 -207 CURVE SMOOTH",
"-482 -207 OFFCURVE",
"-517 -242 OFFCURVE",
"-517 -285 CURVE SMOOTH",
"-517 -329 OFFCURVE",
"-482 -364 OFFCURVE",
"-438 -364 CURVE SMOOTH"
);
},
{
closed = 1;
nodes = (
"-124 -363 OFFCURVE",
"-89 -328 OFFCURVE",
"-89 -284 CURVE SMOOTH",
"-89 -241 OFFCURVE",
"-124 -206 OFFCURVE",
"-168 -206 CURVE SMOOTH",
"-212 -206 OFFCURVE",
"-247 -241 OFFCURVE",
"-247 -284 CURVE SMOOTH",
"-247 -328 OFFCURVE",
"-212 -363 OFFCURVE",
"-168 -363 CURVE SMOOTH"
);
}
);
width = 0;
}
);
unicode = 1133C;
category = Mark;
subCategory = Nonspacing;
},
{
glyphname = avagraha_gran;
lastChange = "2018-09-18 15:39:49 +0000";
layers = (
{
layerId = "229B7033-F00A-4676-AEB9-BF59C6456AE0";
paths = (
{
closed = 1;
nodes = (
"392 542 LINE",
"339 586 LINE",
"52 293 LINE",
"313 216 LINE",
"48 -53 LINE",
"111 -90 LINE",
"442 246 LINE",
"179 326 LINE"
);
}
);
width = 498;
}
);
unicode = 1133D;
category = Letter;
},
{
glyphname = avagraha_gran.alt;
lastChange = "2018-09-18 15:38:24 +0000";
layers = (
{
layerId = "229B7033-F00A-4676-AEB9-BF59C6456AE0";
paths = (
{
closed = 1;
nodes = (
"550 72 LINE",
"181 72 LINE",
"539 494 LINE",
"539 566 LINE",
"70 566 LINE",
"70 494 LINE",
"437 494 LINE",
"78 72 LINE",
"78 0 LINE",
"550 0 LINE"
);
}
);
width = 620;
}
);
script = gran;
category = Letter;
},
{
glyphname = aaMatra_gran;
lastChange = "2018-09-18 15:39:51 +0000";
layers = (
{
layerId = "229B7033-F00A-4676-AEB9-BF59C6456AE0";
paths = (
{
closed = 1;
nodes = (
"166 0 LINE",
"166 494 LINE",
"359 494 LINE",
"359 0 LINE",
"445 0 LINE",
"445 494 LINE",
"615 494 LINE",
"615 566 LINE",
"80 566 LINE",
"80 0 LINE"
);
}
);
width = 0;
}
);
unicode = 1133E;
category = Mark;
subCategory = Nonspacing;
},
{
glyphname = auLengthMark_gran;
lastChange = "2018-09-18 15:39:51 +0000";
layers = (
{
layerId = "229B7033-F00A-4676-AEB9-BF59C6456AE0";
paths = (
{
closed = 1;
nodes = (
"670 0 LINE",
"670 494 LINE",
"863 494 LINE",
"863 0 LINE",
"949 0 LINE",
"949 494 LINE",
"1119 494 LINE",
"1119 566 LINE",
"584 566 LINE",
"584 0 LINE"
);
},
{
closed = 1;
nodes = (
"639 416 LINE",
"599 498 OFFCURVE",
"517 576 OFFCURVE",
"384 576 CURVE SMOOTH",
"219 576 OFFCURVE",
"70 454 OFFCURVE",
"70 237 CURVE SMOOTH",
"70 60 OFFCURVE",
"162 -12 OFFCURVE",
"269 -12 CURVE SMOOTH",
"376 -12 OFFCURVE",
"446 54 OFFCURVE",
"446 165 CURVE SMOOTH",
"446 265 OFFCURVE",
"377 328 OFFCURVE",
"281 328 CURVE SMOOTH",
"216 328 OFFCURVE",
"153 295 OFFCURVE",
"113 248 CURVE",
"128 184 LINE",
"167 227 OFFCURVE",
"214 258 OFFCURVE",
"267 258 CURVE SMOOTH",
"322 258 OFFCURVE",
"360 221 OFFCURVE",
"360 155 CURVE SMOOTH",
"360 95 OFFCURVE",
"325 60 OFFCURVE",
"273 60 CURVE SMOOTH",
"207 60 OFFCURVE",
"156 113 OFFCURVE",
"156 237 CURVE SMOOTH",
"156 393 OFFCURVE",
"246 504 OFFCURVE",
"377 504 CURVE SMOOTH",
"473 504 OFFCURVE",
"553 441 OFFCURVE",
"594 348 CURVE"
);
}
);
width = 0;
}
);
unicode = 11357;
script = gran;
category = Mark;
subCategory = Nonspacing;
},
{
glyphname = rVocalicMatra_gran;
lastChange = "2018-09-18 15:39:51 +0000";
layers = (
{
layerId = "229B7033-F00A-4676-AEB9-BF59C6456AE0";
paths = (
{
closed = 1;
nodes = (
"347 388 LINE",
"-43 388 LINE",
"-43 316 LINE",
"347 316 LINE"
);
},
{
closed = 1;
nodes = (
"-276 -495 OFFCURVE",
"-184 -553 OFFCURVE",
"-71 -553 CURVE SMOOTH",
"21 -553 OFFCURVE",
"226 -515 OFFCURVE",
"226 -235 CURVE SMOOTH",
"226 335 LINE",
"140 335 LINE",
"140 -235 LINE SMOOTH",
"140 -448 OFFCURVE",
"2 -481 OFFCURVE",
"-69 -481 CURVE SMOOTH",
"-145 -481 OFFCURVE",
"-190 -442 OFFCURVE",
"-190 -384 CURVE SMOOTH",
"-190 -330 OFFCURVE",
"-149 -283 OFFCURVE",
"-85 -283 CURVE SMOOTH",
"-24 -283 OFFCURVE",
"21 -321 OFFCURVE",
"21 -392 CURVE SMOOTH",
"21 -413 OFFCURVE",
"18 -456 OFFCURVE",
"-6 -491 CURVE",
"38 -500 LINE",
"63 -475 OFFCURVE",
"89 -435 OFFCURVE",
"89 -376 CURVE SMOOTH",
"89 -285 OFFCURVE",
"22 -211 OFFCURVE",
"-85 -211 CURVE SMOOTH",
"-163 -211 OFFCURVE",
"-276 -253 OFFCURVE",
"-276 -388 CURVE SMOOTH"
);
}
);
width = 0;
}
);
unicode = 11343;
category = Mark;
subCategory = Nonspacing;
},
{
glyphname = rVocalicMatra_gran.d1;
lastChange = "2018-09-18 15:39:51 +0000";
layers = (
{
layerId = "229B7033-F00A-4676-AEB9-BF59C6456AE0";
paths = (
{
closed = 1;
nodes = (
"347 388 LINE",
"-43 388 LINE",
"-43 316 LINE",
"347 316 LINE"
);
},
{
closed = 1;
nodes = (
"-276 -655 OFFCURVE",
"-184 -713 OFFCURVE",
"-71 -713 CURVE SMOOTH",
"21 -713 OFFCURVE",
"226 -675 OFFCURVE",
"226 -395 CURVE SMOOTH",
"226 335 LINE",
"140 335 LINE",
"140 -395 LINE SMOOTH",
"140 -608 OFFCURVE",
"2 -641 OFFCURVE",
"-69 -641 CURVE SMOOTH",
"-145 -641 OFFCURVE",
"-190 -602 OFFCURVE",
"-190 -544 CURVE SMOOTH",
"-190 -490 OFFCURVE",
"-149 -443 OFFCURVE",
"-85 -443 CURVE SMOOTH",
"-24 -443 OFFCURVE",
"21 -481 OFFCURVE",
"21 -552 CURVE SMOOTH",
"21 -573 OFFCURVE",
"18 -616 OFFCURVE",
"-6 -651 CURVE",
"38 -660 LINE",
"63 -635 OFFCURVE",
"89 -595 OFFCURVE",
"89 -536 CURVE SMOOTH",
"89 -445 OFFCURVE",
"22 -371 OFFCURVE",
"-85 -371 CURVE SMOOTH",
"-163 -371 OFFCURVE",
"-276 -413 OFFCURVE",
"-276 -548 CURVE SMOOTH"
);
}
);
width = 0;
}
);
category = Mark;
subCategory = Nonspacing;
},
{
glyphname = rVocalicMatra_gran.d1b;
lastChange = "2018-09-18 15:39:51 +0000";
layers = (
{
layerId = "229B7033-F00A-4676-AEB9-BF59C6456AE0";
paths = (
{
closed = 1;
nodes = (
"347 388 LINE",
"-43 388 LINE",
"-43 316 LINE",
"347 316 LINE"
);
},
{
closed = 1;
nodes = (
"-276 -805 OFFCURVE",
"-184 -863 OFFCURVE",
"-71 -863 CURVE SMOOTH",
"21 -863 OFFCURVE",
"226 -825 OFFCURVE",
"226 -545 CURVE SMOOTH",
"226 335 LINE",
"140 335 LINE",
"140 -545 LINE SMOOTH",
"140 -758 OFFCURVE",
"2 -791 OFFCURVE",
"-69 -791 CURVE SMOOTH",
"-145 -791 OFFCURVE",
"-190 -752 OFFCURVE",
"-190 -694 CURVE SMOOTH",
"-190 -640 OFFCURVE",
"-149 -593 OFFCURVE",
"-85 -593 CURVE SMOOTH",
"-24 -593 OFFCURVE",
"21 -631 OFFCURVE",
"21 -702 CURVE SMOOTH",
"21 -723 OFFCURVE",
"18 -766 OFFCURVE",
"-6 -801 CURVE",
"38 -810 LINE",
"63 -785 OFFCURVE",
"89 -745 OFFCURVE",
"89 -686 CURVE SMOOTH",
"89 -595 OFFCURVE",
"22 -521 OFFCURVE",
"-85 -521 CURVE SMOOTH",
"-163 -521 OFFCURVE",
"-276 -563 OFFCURVE",
"-276 -698 CURVE SMOOTH"
);
}
);
width = 0;
}
);
category = Mark;
subCategory = Nonspacing;
},
{
glyphname = rVocalicMatra_gran.d2;
lastChange = "2018-09-18 15:39:51 +0000";
layers = (
{
layerId = "229B7033-F00A-4676-AEB9-BF59C6456AE0";
paths = (
{
closed = 1;
nodes = (
"347 388 LINE",
"-43 388 LINE",
"-43 316 LINE",
"347 316 LINE"
);
},
{
closed = 1;
nodes = (
"-276 -995 OFFCURVE",
"-184 -1053 OFFCURVE",
"-71 -1053 CURVE SMOOTH",
"21 -1053 OFFCURVE",
"226 -1015 OFFCURVE",
"226 -735 CURVE SMOOTH",
"226 335 LINE",
"140 335 LINE",
"140 -735 LINE SMOOTH",
"140 -948 OFFCURVE",
"2 -981 OFFCURVE",
"-69 -981 CURVE SMOOTH",
"-145 -981 OFFCURVE",
"-190 -942 OFFCURVE",
"-190 -884 CURVE SMOOTH",
"-190 -830 OFFCURVE",
"-149 -783 OFFCURVE",
"-85 -783 CURVE SMOOTH",
"-24 -783 OFFCURVE",
"21 -821 OFFCURVE",
"21 -892 CURVE SMOOTH",
"21 -913 OFFCURVE",
"18 -956 OFFCURVE",
"-6 -991 CURVE",
"38 -1000 LINE",
"63 -975 OFFCURVE",
"89 -935 OFFCURVE",
"89 -876 CURVE SMOOTH",
"89 -785 OFFCURVE",
"22 -711 OFFCURVE",
"-85 -711 CURVE SMOOTH",
"-163 -711 OFFCURVE",
"-276 -753 OFFCURVE",
"-276 -888 CURVE SMOOTH"
);
}
);
width = 0;
}
);
category = Mark;
subCategory = Nonspacing;
},
{
glyphname = rVocalicMatra_gran.d2b;
lastChange = "2018-09-18 15:39:51 +0000";
layers = (
{
layerId = "229B7033-F00A-4676-AEB9-BF59C6456AE0";
paths = (
{
closed = 1;
nodes = (
"347 388 LINE",
"-43 388 LINE",
"-43 316 LINE",
"347 316 LINE"
);
},
{
closed = 1;
nodes = (
"-276 -1055 OFFCURVE",
"-184 -1113 OFFCURVE",
"-71 -1113 CURVE SMOOTH",
"21 -1113 OFFCURVE",
"226 -1075 OFFCURVE",
"226 -795 CURVE SMOOTH",
"226 335 LINE",
"140 335 LINE",
"140 -795 LINE SMOOTH",
"140 -1008 OFFCURVE",
"2 -1041 OFFCURVE",
"-69 -1041 CURVE SMOOTH",
"-145 -1041 OFFCURVE",
"-190 -1002 OFFCURVE",
"-190 -944 CURVE SMOOTH",
"-190 -890 OFFCURVE",
"-149 -843 OFFCURVE",
"-85 -843 CURVE SMOOTH",
"-24 -843 OFFCURVE",
"21 -881 OFFCURVE",
"21 -952 CURVE SMOOTH",
"21 -973 OFFCURVE",
"18 -1016 OFFCURVE",
"-6 -1051 CURVE",
"38 -1060 LINE",
"63 -1035 OFFCURVE",
"89 -995 OFFCURVE",
"89 -936 CURVE SMOOTH",
"89 -845 OFFCURVE",
"22 -771 OFFCURVE",
"-85 -771 CURVE SMOOTH",
"-163 -771 OFFCURVE",
"-276 -813 OFFCURVE",
"-276 -948 CURVE SMOOTH"
);
}
);
width = 0;
}
);
category = Mark;
subCategory = Nonspacing;
},
{
glyphname = rVocalicMatra_gran.d3;
lastChange = "2018-09-18 15:39:51 +0000";
layers = (
{
layerId = "229B7033-F00A-4676-AEB9-BF59C6456AE0";
paths = (
{
closed = 1;
nodes = (
"347 388 LINE",
"-43 388 LINE",
"-43 316 LINE",
"347 316 LINE"
);
},
{
closed = 1;
nodes = (
"-276 -1174 OFFCURVE",
"-184 -1232 OFFCURVE",
"-71 -1232 CURVE SMOOTH",
"21 -1232 OFFCURVE",
"226 -1194 OFFCURVE",
"226 -914 CURVE SMOOTH",
"226 335 LINE",
"140 335 LINE",
"140 -914 LINE SMOOTH",
"140 -1127 OFFCURVE",
"2 -1160 OFFCURVE",
"-69 -1160 CURVE SMOOTH",
"-145 -1160 OFFCURVE",
"-190 -1121 OFFCURVE",
"-190 -1063 CURVE SMOOTH",
"-190 -1009 OFFCURVE",
"-149 -962 OFFCURVE",
"-85 -962 CURVE SMOOTH",
"-24 -962 OFFCURVE",
"21 -1000 OFFCURVE",
"21 -1071 CURVE SMOOTH",
"21 -1092 OFFCURVE",
"18 -1135 OFFCURVE",
"-6 -1170 CURVE",
"38 -1179 LINE",
"63 -1154 OFFCURVE",
"89 -1114 OFFCURVE",
"89 -1055 CURVE SMOOTH",
"89 -964 OFFCURVE",
"22 -890 OFFCURVE",
"-85 -890 CURVE SMOOTH",
"-163 -890 OFFCURVE",
"-276 -932 OFFCURVE",
"-276 -1067 CURVE SMOOTH"
);
}
);
width = 0;
}
);
category = Mark;
subCategory = Nonspacing;
},
{
glyphname = rVocalicMatra_gran.d4;
lastChange = "2018-09-18 15:39:51 +0000";
layers = (
{
layerId = "229B7033-F00A-4676-AEB9-BF59C6456AE0";
paths = (
{
closed = 1;
nodes = (
"347 388 LINE",
"-43 388 LINE",
"-43 316 LINE",
"347 316 LINE"
);
},
{
closed = 1;
nodes = (
"-276 -1544 OFFCURVE",
"-184 -1602 OFFCURVE",
"-71 -1602 CURVE SMOOTH",
"21 -1602 OFFCURVE",
"226 -1564 OFFCURVE",
"226 -1284 CURVE SMOOTH",
"226 335 LINE",
"140 335 LINE",
"140 -1284 LINE SMOOTH",
"140 -1497 OFFCURVE",
"2 -1530 OFFCURVE",
"-69 -1530 CURVE SMOOTH",
"-145 -1530 OFFCURVE",
"-190 -1491 OFFCURVE",
"-190 -1433 CURVE SMOOTH",
"-190 -1379 OFFCURVE",
"-149 -1332 OFFCURVE",
"-85 -1332 CURVE SMOOTH",
"-24 -1332 OFFCURVE",
"21 -1370 OFFCURVE",
"21 -1441 CURVE SMOOTH",
"21 -1462 OFFCURVE",
"18 -1505 OFFCURVE",
"-6 -1540 CURVE",
"38 -1549 LINE",
"63 -1524 OFFCURVE",
"89 -1484 OFFCURVE",
"89 -1425 CURVE SMOOTH",
"89 -1334 OFFCURVE",
"22 -1260 OFFCURVE",
"-85 -1260 CURVE SMOOTH",
"-163 -1260 OFFCURVE",
"-276 -1302 OFFCURVE",
"-276 -1437 CURVE SMOOTH"
);
}
);
width = 0;
}
);
category = Mark;
subCategory = Nonspacing;
},
{
glyphname = rVocalicMatra_gran.d4h3;
lastChange = "2018-09-18 15:39:51 +0000";
layers = (
{
layerId = "229B7033-F00A-4676-AEB9-BF59C6456AE0";
paths = (
{
closed = 1;
nodes = (
"647 388 LINE",
"-43 388 LINE",
"-43 316 LINE",
"647 316 LINE"
);
},
{
closed = 1;
nodes = (
"24 -1544 OFFCURVE",
"116 -1602 OFFCURVE",
"229 -1602 CURVE SMOOTH",
"321 -1602 OFFCURVE",
"526 -1564 OFFCURVE",
"526 -1284 CURVE SMOOTH",
"526 335 LINE",
"440 335 LINE",
"440 -1284 LINE SMOOTH",
"440 -1497 OFFCURVE",
"302 -1530 OFFCURVE",
"231 -1530 CURVE SMOOTH",
"155 -1530 OFFCURVE",
"110 -1491 OFFCURVE",
"110 -1433 CURVE SMOOTH",
"110 -1379 OFFCURVE",
"151 -1332 OFFCURVE",
"215 -1332 CURVE SMOOTH",
"276 -1332 OFFCURVE",
"321 -1370 OFFCURVE",
"321 -1441 CURVE SMOOTH",
"321 -1462 OFFCURVE",
"318 -1505 OFFCURVE",
"294 -1540 CURVE",
"338 -1549 LINE",
"363 -1524 OFFCURVE",
"389 -1484 OFFCURVE",
"389 -1425 CURVE SMOOTH",
"389 -1334 OFFCURVE",
"322 -1260 OFFCURVE",
"215 -1260 CURVE SMOOTH",
"137 -1260 OFFCURVE",
"24 -1302 OFFCURVE",
"24 -1437 CURVE SMOOTH"
);
}
);
width = 0;
}
);
category = Mark;
subCategory = Nonspacing;
},
{
glyphname = rVocalicMatra_gran.d3h3;
lastChange = "2018-09-18 15:39:51 +0000";
layers = (
{
layerId = "229B7033-F00A-4676-AEB9-BF59C6456AE0";
paths = (
{
closed = 1;
nodes = (
"647 388 LINE",
"-43 388 LINE",
"-43 316 LINE",
"647 316 LINE"
);
},
{
closed = 1;
nodes = (
"24 -1184 OFFCURVE",
"116 -1242 OFFCURVE",
"229 -1242 CURVE SMOOTH",
"321 -1242 OFFCURVE",
"526 -1204 OFFCURVE",
"526 -924 CURVE SMOOTH",
"526 335 LINE",
"440 335 LINE",
"440 -924 LINE SMOOTH",
"440 -1137 OFFCURVE",
"302 -1170 OFFCURVE",
"231 -1170 CURVE SMOOTH",
"155 -1170 OFFCURVE",
"110 -1131 OFFCURVE",
"110 -1073 CURVE SMOOTH",
"110 -1019 OFFCURVE",
"151 -972 OFFCURVE",
"215 -972 CURVE SMOOTH",
"276 -972 OFFCURVE",
"321 -1010 OFFCURVE",
"321 -1081 CURVE SMOOTH",
"321 -1102 OFFCURVE",
"318 -1145 OFFCURVE",
"294 -1180 CURVE",
"338 -1189 LINE",
"363 -1164 OFFCURVE",
"389 -1124 OFFCURVE",
"389 -1065 CURVE SMOOTH",
"389 -974 OFFCURVE",
"322 -900 OFFCURVE",
"215 -900 CURVE SMOOTH",
"137 -900 OFFCURVE",
"24 -942 OFFCURVE",
"24 -1077 CURVE SMOOTH"
);
}
);
width = 0;
}
);
category = Mark;
subCategory = Nonspacing;
},
{
glyphname = rVocalicMatra_gran.d3h2;
lastChange = "2018-09-18 15:39:51 +0000";
layers = (
{
layerId = "229B7033-F00A-4676-AEB9-BF59C6456AE0";
paths = (
{
closed = 1;
nodes = (
"497 388 LINE",
"-43 388 LINE",
"-43 316 LINE",
"497 316 LINE"
);
},
{
closed = 1;
nodes = (
"-126 -1177 OFFCURVE",
"-34 -1235 OFFCURVE",
"79 -1235 CURVE SMOOTH",
"171 -1235 OFFCURVE",
"376 -1197 OFFCURVE",
"376 -917 CURVE SMOOTH",
"376 335 LINE",
"290 335 LINE",
"290 -917 LINE SMOOTH",
"290 -1130 OFFCURVE",
"152 -1163 OFFCURVE",
"81 -1163 CURVE SMOOTH",
"5 -1163 OFFCURVE",
"-40 -1124 OFFCURVE",
"-40 -1066 CURVE SMOOTH",
"-40 -1012 OFFCURVE",
"1 -965 OFFCURVE",
"65 -965 CURVE SMOOTH",
"126 -965 OFFCURVE",
"171 -1003 OFFCURVE",
"171 -1074 CURVE SMOOTH",
"171 -1095 OFFCURVE",
"168 -1138 OFFCURVE",
"144 -1173 CURVE",
"188 -1182 LINE",
"213 -1157 OFFCURVE",
"239 -1117 OFFCURVE",
"239 -1058 CURVE SMOOTH",
"239 -967 OFFCURVE",
"172 -893 OFFCURVE",
"65 -893 CURVE SMOOTH",
"-13 -893 OFFCURVE",
"-126 -935 OFFCURVE",
"-126 -1070 CURVE SMOOTH"
);
}
);
width = 0;
}
);
category = Mark;
subCategory = Nonspacing;
},
{
glyphname = rVocalicMatra_gran.d2h3;
lastChange = "2018-09-18 15:39:51 +0000";
layers = (
{
layerId = "229B7033-F00A-4676-AEB9-BF59C6456AE0";
paths = (
{
closed = 1;
nodes = (
"647 388 LINE",
"-43 388 LINE",
"-43 316 LINE",
"647 316 LINE"
);
},
{
closed = 1;
nodes = (
"24 -997 OFFCURVE",
"116 -1055 OFFCURVE",
"229 -1055 CURVE SMOOTH",
"321 -1055 OFFCURVE",
"526 -1017 OFFCURVE",
"526 -737 CURVE SMOOTH",
"526 335 LINE",
"440 335 LINE",
"440 -737 LINE SMOOTH",
"440 -950 OFFCURVE",
"302 -983 OFFCURVE",
"231 -983 CURVE SMOOTH",
"155 -983 OFFCURVE",
"110 -944 OFFCURVE",
"110 -886 CURVE SMOOTH",
"110 -832 OFFCURVE",
"151 -785 OFFCURVE",
"215 -785 CURVE SMOOTH",
"276 -785 OFFCURVE",
"321 -823 OFFCURVE",
"321 -894 CURVE SMOOTH",
"321 -915 OFFCURVE",
"318 -958 OFFCURVE",
"294 -993 CURVE",
"338 -1002 LINE",
"363 -977 OFFCURVE",
"389 -937 OFFCURVE",
"389 -878 CURVE SMOOTH",
"389 -787 OFFCURVE",
"322 -713 OFFCURVE",
"215 -713 CURVE SMOOTH",
"137 -713 OFFCURVE",
"24 -755 OFFCURVE",
"24 -890 CURVE SMOOTH"
);
}
);
width = 0;
}
);
category = Mark;
subCategory = Nonspacing;
},
{
glyphname = rVocalicMatra_gran.d2bh3;
lastChange = "2018-09-18 15:39:51 +0000";
layers = (
{
layerId = "229B7033-F00A-4676-AEB9-BF59C6456AE0";
paths = (
{
closed = 1;
nodes = (
"647 388 LINE",
"-43 388 LINE",
"-43 316 LINE",
"647 316 LINE"
);
},
{
closed = 1;
nodes = (
"24 -1057 OFFCURVE",
"116 -1115 OFFCURVE",
"229 -1115 CURVE SMOOTH",
"321 -1115 OFFCURVE",
"526 -1077 OFFCURVE",
"526 -797 CURVE SMOOTH",
"526 335 LINE",
"440 335 LINE",
"440 -797 LINE SMOOTH",
"440 -1010 OFFCURVE",
"302 -1043 OFFCURVE",
"231 -1043 CURVE SMOOTH",
"155 -1043 OFFCURVE",
"110 -1004 OFFCURVE",
"110 -946 CURVE SMOOTH",
"110 -892 OFFCURVE",
"151 -845 OFFCURVE",
"215 -845 CURVE SMOOTH",
"276 -845 OFFCURVE",
"321 -883 OFFCURVE",
"321 -954 CURVE SMOOTH",
"321 -975 OFFCURVE",
"318 -1018 OFFCURVE",
"294 -1053 CURVE",
"338 -1062 LINE",
"363 -1037 OFFCURVE",
"389 -997 OFFCURVE",
"389 -938 CURVE SMOOTH",
"389 -847 OFFCURVE",
"322 -773 OFFCURVE",
"215 -773 CURVE SMOOTH",
"137 -773 OFFCURVE",
"24 -815 OFFCURVE",
"24 -950 CURVE SMOOTH"
);
}
);
width = 0;
}
);
category = Mark;
subCategory = Nonspacing;
},
{
glyphname = rVocalicMatra_gran.d1h3;
lastChange = "2018-09-18 15:39:51 +0000";
layers = (
{
layerId = "229B7033-F00A-4676-AEB9-BF59C6456AE0";
paths = (
{
closed = 1;
nodes = (
"647 388 LINE",
"-43 388 LINE",
"-43 316 LINE",
"647 316 LINE"
);
},
{
closed = 1;
nodes = (
"24 -655 OFFCURVE",
"116 -713 OFFCURVE",
"229 -713 CURVE SMOOTH",
"321 -713 OFFCURVE",
"526 -675 OFFCURVE",
"526 -395 CURVE SMOOTH",
"526 335 LINE",
"440 335 LINE",
"440 -395 LINE SMOOTH",
"440 -608 OFFCURVE",
"302 -641 OFFCURVE",
"231 -641 CURVE SMOOTH",
"155 -641 OFFCURVE",
"110 -602 OFFCURVE",
"110 -544 CURVE SMOOTH",
"110 -490 OFFCURVE",
"151 -443 OFFCURVE",
"215 -443 CURVE SMOOTH",
"276 -443 OFFCURVE",
"321 -481 OFFCURVE",
"321 -552 CURVE SMOOTH",
"321 -573 OFFCURVE",
"318 -616 OFFCURVE",
"294 -651 CURVE",
"338 -660 LINE",
"363 -635 OFFCURVE",
"389 -595 OFFCURVE",
"389 -536 CURVE SMOOTH",
"389 -445 OFFCURVE",
"322 -371 OFFCURVE",
"215 -371 CURVE SMOOTH",
"137 -371 OFFCURVE",
"24 -413 OFFCURVE",
"24 -548 CURVE SMOOTH"
);
}
);
width = 0;
}
);
category = Mark;
subCategory = Nonspacing;
},
{
glyphname = rVocalicMatra_gran.d5h3;
lastChange = "2018-09-18 15:39:51 +0000";
layers = (
{
layerId = "229B7033-F00A-4676-AEB9-BF59C6456AE0";
paths = (
{
closed = 1;
nodes = (
"647 388 LINE",
"-43 388 LINE",
"-43 316 LINE",
"647 316 LINE"
);
},
{
closed = 1;
nodes = (
"24 -1674 OFFCURVE",
"116 -1732 OFFCURVE",
"229 -1732 CURVE SMOOTH",
"321 -1732 OFFCURVE",
"526 -1694 OFFCURVE",
"526 -1414 CURVE SMOOTH",
"526 335 LINE",
"440 335 LINE",
"440 -1414 LINE SMOOTH",
"440 -1627 OFFCURVE",
"302 -1660 OFFCURVE",
"231 -1660 CURVE SMOOTH",
"155 -1660 OFFCURVE",
"110 -1621 OFFCURVE",
"110 -1563 CURVE SMOOTH",
"110 -1509 OFFCURVE",
"151 -1462 OFFCURVE",
"215 -1462 CURVE SMOOTH",
"276 -1462 OFFCURVE",
"321 -1500 OFFCURVE",
"321 -1571 CURVE SMOOTH",
"321 -1592 OFFCURVE",
"318 -1635 OFFCURVE",
"294 -1670 CURVE",
"338 -1679 LINE",
"363 -1654 OFFCURVE",
"389 -1614 OFFCURVE",
"389 -1555 CURVE SMOOTH",
"389 -1464 OFFCURVE",
"322 -1390 OFFCURVE",
"215 -1390 CURVE SMOOTH",
"137 -1390 OFFCURVE",
"24 -1432 OFFCURVE",
"24 -1567 CURVE SMOOTH"
);
}
);
width = 0;
}
);
category = Mark;
subCategory = Nonspacing;
},
{
glyphname = ra_vattu_gran.w1b;
lastChange = "2018-09-18 15:39:55 +0000";
layers = (
{
layerId = "229B7033-F00A-4676-AEB9-BF59C6456AE0";
paths = (
{
closed = 1;
nodes = (
"347 388 LINE",
"-43 388 LINE",
"-43 316 LINE",
"347 316 LINE"
);
},
{
closed = 1;
nodes = (
"-753 -279 LINE",
"-683 -404 OFFCURVE",
"-559 -503 OFFCURVE",
"-298 -503 CURVE SMOOTH",
"-21 -503 OFFCURVE",
"226 -385 OFFCURVE",
"226 -96 CURVE SMOOTH",
"226 335 LINE",
"140 335 LINE",
"140 -116 LINE SMOOTH",
"140 -308 OFFCURVE",
"-23 -431 OFFCURVE",
"-309 -431 CURVE SMOOTH",
"-481 -431 OFFCURVE",
"-601 -378 OFFCURVE",
"-675 -261 CURVE"
);
}
);
width = 0;
}
);
script = gran;
category = Mark;
subCategory = Nonspacing;
},
{
glyphname = rrVocalicMatra_gran;
lastChange = "2018-09-18 15:39:51 +0000";
layers = (
{
layerId = "229B7033-F00A-4676-AEB9-BF59C6456AE0";
paths = (
{
closed = 1;
nodes = (
"347 388 LINE",
"-43 388 LINE",
"-43 316 LINE",
"347 316 LINE"
);
},
{
closed = 1;
nodes = (
"-521 -510 OFFCURVE",
"-426 -603 OFFCURVE",
"-205 -603 CURVE SMOOTH",
"-69 -603 OFFCURVE",
"226 -545 OFFCURVE",
"226 -295 CURVE SMOOTH",
"226 335 LINE",
"140 335 LINE",
"140 -295 LINE SMOOTH",
"140 -488 OFFCURVE",
"-67 -531 OFFCURVE",
"-195 -531 CURVE SMOOTH",
"-364 -531 OFFCURVE",
"-435 -465 OFFCURVE",
"-435 -386 CURVE SMOOTH",
"-435 -347 OFFCURVE",
"-418 -293 OFFCURVE",
"-357 -293 CURVE SMOOTH",
"-296 -293 OFFCURVE",
"-266 -348 OFFCURVE",
"-266 -427 CURVE",
"-180 -427 LINE",
"-180 -359 OFFCURVE",
"-151 -293 OFFCURVE",
"-90 -293 CURVE SMOOTH",
"-46 -293 OFFCURVE",
"-10 -328 OFFCURVE",
"-10 -381 CURVE SMOOTH",
"-10 -447 OFFCURVE",
"-64 -513 OFFCURVE",
"-119 -530 CURVE",
"-147 -594 LINE",
"-81 -570 OFFCURVE",
"76 -501 OFFCURVE",
"76 -369 CURVE SMOOTH",
"76 -277 OFFCURVE",
"9 -221 OFFCURVE",
"-83 -221 CURVE SMOOTH",
"-171 -221 OFFCURVE",
"-207 -268 OFFCURVE",
"-229 -334 CURVE",
"-208 -334 LINE",
"-235 -254 OFFCURVE",
"-280 -221 OFFCURVE",
"-356 -221 CURVE SMOOTH",
"-445 -221 OFFCURVE",
"-521 -273 OFFCURVE",
"-521 -388 CURVE SMOOTH"
);
}
);
width = 0;
}
);
unicode = 11344;
category = Mark;
subCategory = Nonspacing;
},
{
glyphname = rrVocalicMatra_gran.d1;
lastChange = "2018-09-18 15:39:51 +0000";
layers = (
{
layerId = "229B7033-F00A-4676-AEB9-BF59C6456AE0";
paths = (
{
closed = 1;
nodes = (
"347 388 LINE",
"-43 388 LINE",
"-43 316 LINE",
"347 316 LINE"
);
},
{
closed = 1;
nodes = (
"-521 -650 OFFCURVE",
"-427 -753 OFFCURVE",
"-205 -753 CURVE SMOOTH",
"-69 -753 OFFCURVE",
"226 -695 OFFCURVE",
"226 -445 CURVE SMOOTH",
"226 335 LINE",
"140 335 LINE",
"140 -445 LINE SMOOTH",
"140 -638 OFFCURVE",
"-67 -681 OFFCURVE",
"-195 -681 CURVE SMOOTH",
"-365 -681 OFFCURVE",
"-435 -615 OFFCURVE",
"-435 -536 CURVE SMOOTH",
"-435 -497 OFFCURVE",
"-418 -443 OFFCURVE",
"-357 -443 CURVE SMOOTH",
"-296 -443 OFFCURVE",
"-266 -498 OFFCURVE",
"-266 -577 CURVE",
"-180 -577 LINE",
"-180 -509 OFFCURVE",
"-151 -443 OFFCURVE",
"-90 -443 CURVE SMOOTH",
"-46 -443 OFFCURVE",
"-10 -478 OFFCURVE",
"-10 -531 CURVE SMOOTH",
"-10 -597 OFFCURVE",
"-74 -663 OFFCURVE",
"-129 -680 CURVE",
"-147 -744 LINE",
"-84 -731 OFFCURVE",
"76 -651 OFFCURVE",
"76 -519 CURVE SMOOTH",
"76 -427 OFFCURVE",
"9 -371 OFFCURVE",
"-83 -371 CURVE SMOOTH",
"-171 -371 OFFCURVE",
"-207 -418 OFFCURVE",
"-229 -484 CURVE",
"-208 -484 LINE",
"-235 -404 OFFCURVE",
"-280 -371 OFFCURVE",
"-356 -371 CURVE SMOOTH",
"-445 -371 OFFCURVE",
"-521 -423 OFFCURVE",
"-521 -538 CURVE SMOOTH"
);
}
);
width = 0;
}
);
category = Mark;
subCategory = Nonspacing;
},
{
glyphname = rrVocalicMatra_gran.d1b;
lastChange = "2018-09-18 15:39:51 +0000";
layers = (
{
layerId = "229B7033-F00A-4676-AEB9-BF59C6456AE0";
paths = (
{
closed = 1;
nodes = (
"347 388 LINE",
"-43 388 LINE",
"-43 316 LINE",
"347 316 LINE"
);
},
{
closed = 1;
nodes = (
"-521 -854 OFFCURVE",
"-426 -947 OFFCURVE",
"-205 -947 CURVE SMOOTH",
"-69 -947 OFFCURVE",
"226 -889 OFFCURVE",
"226 -639 CURVE SMOOTH",
"226 335 LINE",
"140 335 LINE",
"140 -639 LINE SMOOTH",
"140 -832 OFFCURVE",
"-67 -875 OFFCURVE",
"-195 -875 CURVE SMOOTH",
"-365 -875 OFFCURVE",
"-435 -809 OFFCURVE",
"-435 -730 CURVE SMOOTH",
"-435 -691 OFFCURVE",
"-418 -637 OFFCURVE",
"-357 -637 CURVE SMOOTH",
"-296 -637 OFFCURVE",
"-266 -692 OFFCURVE",
"-266 -771 CURVE",
"-180 -771 LINE",
"-180 -703 OFFCURVE",
"-151 -637 OFFCURVE",
"-90 -637 CURVE SMOOTH",
"-46 -637 OFFCURVE",
"-10 -672 OFFCURVE",
"-10 -725 CURVE SMOOTH",
"-10 -791 OFFCURVE",
"-74 -857 OFFCURVE",
"-129 -874 CURVE",
"-147 -938 LINE",
"-84 -925 OFFCURVE",
"76 -845 OFFCURVE",
"76 -713 CURVE SMOOTH",
"76 -621 OFFCURVE",
"9 -565 OFFCURVE",
"-83 -565 CURVE SMOOTH",
"-171 -565 OFFCURVE",
"-207 -612 OFFCURVE",
"-229 -678 CURVE",
"-208 -678 LINE",
"-235 -598 OFFCURVE",
"-280 -565 OFFCURVE",
"-356 -565 CURVE SMOOTH",
"-445 -565 OFFCURVE",
"-521 -617 OFFCURVE",
"-521 -732 CURVE SMOOTH"
);
}
);
width = 0;
}
);
category = Mark;
subCategory = Nonspacing;
},
{
glyphname = rrVocalicMatra_gran.d2;
lastChange = "2018-09-18 15:39:51 +0000";
layers = (
{
layerId = "229B7033-F00A-4676-AEB9-BF59C6456AE0";
paths = (
{
closed = 1;
nodes = (
"347 388 LINE",
"-43 388 LINE",
"-43 316 LINE",
"347 316 LINE"
);
},
{
closed = 1;
nodes = (
"-521 -1006 OFFCURVE",
"-426 -1099 OFFCURVE",
"-205 -1099 CURVE SMOOTH",
"-69 -1099 OFFCURVE",
"226 -1041 OFFCURVE",
"226 -791 CURVE SMOOTH",
"226 335 LINE",
"140 335 LINE",
"140 -791 LINE SMOOTH",
"140 -984 OFFCURVE",
"-67 -1027 OFFCURVE",
"-195 -1027 CURVE SMOOTH",
"-365 -1027 OFFCURVE",
"-435 -961 OFFCURVE",
"-435 -882 CURVE SMOOTH",
"-435 -843 OFFCURVE",
"-418 -789 OFFCURVE",
"-357 -789 CURVE SMOOTH",
"-296 -789 OFFCURVE",
"-266 -844 OFFCURVE",
"-266 -923 CURVE",
"-180 -923 LINE",
"-180 -855 OFFCURVE",
"-151 -789 OFFCURVE",
"-90 -789 CURVE SMOOTH",
"-46 -789 OFFCURVE",
"-10 -824 OFFCURVE",
"-10 -877 CURVE SMOOTH",
"-10 -943 OFFCURVE",
"-74 -1009 OFFCURVE",
"-129 -1026 CURVE",
"-147 -1090 LINE",
"-84 -1077 OFFCURVE",
"76 -997 OFFCURVE",
"76 -865 CURVE SMOOTH",
"76 -773 OFFCURVE",
"9 -717 OFFCURVE",
"-83 -717 CURVE SMOOTH",
"-171 -717 OFFCURVE",
"-207 -764 OFFCURVE",
"-229 -830 CURVE",
"-208 -830 LINE",
"-235 -750 OFFCURVE",
"-280 -717 OFFCURVE",
"-356 -717 CURVE SMOOTH",
"-445 -717 OFFCURVE",
"-521 -769 OFFCURVE",
"-521 -884 CURVE SMOOTH"
);
}
);
width = 0;
}
);
category = Mark;
subCategory = Nonspacing;
},
{
glyphname = rrVocalicMatra_gran.d3;
lastChange = "2018-09-18 15:39:51 +0000";
layers = (
{
layerId = "229B7033-F00A-4676-AEB9-BF59C6456AE0";
paths = (
{
closed = 1;
nodes = (
"347 388 LINE",
"-43 388 LINE",
"-43 316 LINE",
"347 316 LINE"
);
},
{
closed = 1;
nodes = (
"-521 -1180 OFFCURVE",
"-426 -1273 OFFCURVE",
"-205 -1273 CURVE SMOOTH",
"-69 -1273 OFFCURVE",
"226 -1215 OFFCURVE",
"226 -965 CURVE SMOOTH",
"226 335 LINE",
"140 335 LINE",
"140 -965 LINE SMOOTH",
"140 -1158 OFFCURVE",
"-67 -1201 OFFCURVE",
"-195 -1201 CURVE SMOOTH",
"-365 -1201 OFFCURVE",
"-435 -1135 OFFCURVE",
"-435 -1056 CURVE SMOOTH",
"-435 -1017 OFFCURVE",
"-418 -963 OFFCURVE",
"-357 -963 CURVE SMOOTH",
"-296 -963 OFFCURVE",
"-266 -1018 OFFCURVE",
"-266 -1097 CURVE",
"-180 -1097 LINE",
"-180 -1029 OFFCURVE",
"-151 -963 OFFCURVE",
"-90 -963 CURVE SMOOTH",
"-46 -963 OFFCURVE",
"-10 -998 OFFCURVE",
"-10 -1051 CURVE SMOOTH",
"-10 -1117 OFFCURVE",
"-74 -1183 OFFCURVE",
"-129 -1200 CURVE",
"-147 -1264 LINE",
"-84 -1251 OFFCURVE",
"76 -1171 OFFCURVE",
"76 -1039 CURVE SMOOTH",
"76 -947 OFFCURVE",
"9 -891 OFFCURVE",
"-83 -891 CURVE SMOOTH",
"-171 -891 OFFCURVE",
"-207 -938 OFFCURVE",
"-229 -1004 CURVE",
"-208 -1004 LINE",
"-235 -924 OFFCURVE",
"-280 -891 OFFCURVE",
"-356 -891 CURVE SMOOTH",
"-445 -891 OFFCURVE",
"-521 -943 OFFCURVE",
"-521 -1058 CURVE SMOOTH"
);
}
);
width = 0;
}
);
category = Mark;
subCategory = Nonspacing;
},
{
glyphname = rrVocalicMatra_gran.d4;
lastChange = "2018-09-18 15:39:51 +0000";
layers = (
{
layerId = "229B7033-F00A-4676-AEB9-BF59C6456AE0";
paths = (
{
closed = 1;
nodes = (
"347 388 LINE",
"-43 388 LINE",
"-43 316 LINE",
"347 316 LINE"
);
},
{
closed = 1;
nodes = (
"-521 -1550 OFFCURVE",
"-426 -1643 OFFCURVE",
"-205 -1643 CURVE SMOOTH",
"-69 -1643 OFFCURVE",
"226 -1585 OFFCURVE",
"226 -1335 CURVE SMOOTH",
"226 335 LINE",
"140 335 LINE",
"140 -1335 LINE SMOOTH",
"140 -1528 OFFCURVE",
"-67 -1571 OFFCURVE",
"-195 -1571 CURVE SMOOTH",
"-365 -1571 OFFCURVE",
"-435 -1505 OFFCURVE",
"-435 -1426 CURVE SMOOTH",
"-435 -1387 OFFCURVE",
"-418 -1333 OFFCURVE",
"-357 -1333 CURVE SMOOTH",
"-296 -1333 OFFCURVE",
"-266 -1388 OFFCURVE",
"-266 -1467 CURVE",
"-180 -1467 LINE",
"-180 -1399 OFFCURVE",
"-151 -1333 OFFCURVE",
"-90 -1333 CURVE SMOOTH",
"-46 -1333 OFFCURVE",
"-10 -1368 OFFCURVE",
"-10 -1421 CURVE SMOOTH",
"-10 -1487 OFFCURVE",
"-74 -1553 OFFCURVE",
"-129 -1570 CURVE",
"-147 -1634 LINE",
"-84 -1621 OFFCURVE",
"76 -1541 OFFCURVE",
"76 -1409 CURVE SMOOTH",
"76 -1317 OFFCURVE",
"9 -1261 OFFCURVE",
"-83 -1261 CURVE SMOOTH",
"-171 -1261 OFFCURVE",
"-207 -1308 OFFCURVE",
"-229 -1374 CURVE",
"-208 -1374 LINE",
"-235 -1294 OFFCURVE",
"-280 -1261 OFFCURVE",
"-356 -1261 CURVE SMOOTH",
"-445 -1261 OFFCURVE",
"-521 -1313 OFFCURVE",
"-521 -1428 CURVE SMOOTH"
);
}
);
width = 0;
}
);
category = Mark;
subCategory = Nonspacing;
},
{
glyphname = lVocalicMatra_gran;
lastChange = "2018-09-18 15:39:51 +0000";
layers = (
{
layerId = "229B7033-F00A-4676-AEB9-BF59C6456AE0";
paths = (
{
closed = 1;
nodes = (
"639 416 LINE",
"599 498 OFFCURVE",
"517 576 OFFCURVE",
"384 576 CURVE SMOOTH",
"219 576 OFFCURVE",
"70 454 OFFCURVE",
"70 237 CURVE SMOOTH",
"70 60 OFFCURVE",
"162 -12 OFFCURVE",
"269 -12 CURVE SMOOTH",
"376 -12 OFFCURVE",
"446 54 OFFCURVE",
"446 165 CURVE SMOOTH",
"446 265 OFFCURVE",
"377 328 OFFCURVE",
"281 328 CURVE SMOOTH",
"216 328 OFFCURVE",
"153 295 OFFCURVE",
"113 248 CURVE",
"128 184 LINE",
"167 227 OFFCURVE",
"214 258 OFFCURVE",
"267 258 CURVE SMOOTH",
"322 258 OFFCURVE",
"360 221 OFFCURVE",
"360 155 CURVE SMOOTH",
"360 95 OFFCURVE",
"325 60 OFFCURVE",
"273 60 CURVE SMOOTH",
"207 60 OFFCURVE",
"156 113 OFFCURVE",
"156 237 CURVE SMOOTH",
"156 393 OFFCURVE",
"246 504 OFFCURVE",
"377 504 CURVE SMOOTH",
"473 504 OFFCURVE",
"553 441 OFFCURVE",
"594 348 CURVE"
);
},
{
closed = 1;
nodes = (
"586 566 LINE",
"586 0 LINE",
"672 0 LINE",
"672 494 LINE",
"1302 494 LINE",
"1302 566 LINE"
);
},
{
closed = 1;
nodes = (
"837 105 OFFCURVE",
"845 -12 OFFCURVE",
"1003 -12 CURVE SMOOTH",
"1161 -12 OFFCURVE",
"1169 105 OFFCURVE",
"1169 185 CURVE SMOOTH",
"1169 502 LINE",
"1083 502 LINE",
"1083 176 LINE SMOOTH",
"1083 110 OFFCURVE",
"1071 58 OFFCURVE",
"1003 58 CURVE SMOOTH",
"935 58 OFFCURVE",
"923 110 OFFCURVE",
"923 176 CURVE SMOOTH",
"923 502 LINE",
"837 502 LINE",
"837 185 LINE SMOOTH"
);
}
);
width = 0;
}
);
unicode = 11362;
category = Mark;
subCategory = Nonspacing;
},
{
glyphname = llVocalicMatra_gran;
lastChange = "2018-09-18 15:39:51 +0000";
layers = (
{
layerId = "229B7033-F00A-4676-AEB9-BF59C6456AE0";
paths = (
{
closed = 1;
nodes = (
"1494 -143 OFFCURVE",
"1290 -380 OFFCURVE",
"974 -380 CURVE SMOOTH",
"704 -380 OFFCURVE",
"581 -238 OFFCURVE",
"531 -73 CURVE",
"445 -73 LINE",
"495 -274 OFFCURVE",
"649 -457 OFFCURVE",
"974 -457 CURVE SMOOTH",
"1358 -457 OFFCURVE",
"1580 -150 OFFCURVE",
"1580 233 CURVE SMOOTH",
"1580 613 OFFCURVE",
"1369 787 OFFCURVE",
"1155 787 CURVE SMOOTH",
"978 787 OFFCURVE",
"842 665 OFFCURVE",
"838 543 CURVE SMOOTH",
"837 498 LINE",
"923 498 LINE",
"924 545 LINE SMOOTH",
"927 635 OFFCURVE",
"1028 715 OFFCURVE",
"1156 715 CURVE SMOOTH",
"1313 715 OFFCURVE",
"1494 596 OFFCURVE",
"1494 230 CURVE SMOOTH"
);
},
{
closed = 1;
nodes = (
"639 416 LINE",
"599 498 OFFCURVE",
"517 576 OFFCURVE",
"384 576 CURVE SMOOTH",
"219 576 OFFCURVE",
"70 454 OFFCURVE",
"70 237 CURVE SMOOTH",
"70 60 OFFCURVE",
"162 -12 OFFCURVE",
"269 -12 CURVE SMOOTH",
"376 -12 OFFCURVE",
"446 54 OFFCURVE",
"446 165 CURVE SMOOTH",
"446 265 OFFCURVE",
"377 328 OFFCURVE",
"281 328 CURVE SMOOTH",
"216 328 OFFCURVE",
"153 295 OFFCURVE",
"113 248 CURVE",
"128 184 LINE",
"167 227 OFFCURVE",
"214 258 OFFCURVE",
"267 258 CURVE SMOOTH",
"322 258 OFFCURVE",
"360 221 OFFCURVE",
"360 155 CURVE SMOOTH",
"360 95 OFFCURVE",
"325 60 OFFCURVE",
"273 60 CURVE SMOOTH",
"207 60 OFFCURVE",
"156 113 OFFCURVE",
"156 237 CURVE SMOOTH",
"156 393 OFFCURVE",
"246 504 OFFCURVE",
"377 504 CURVE SMOOTH",
"473 504 OFFCURVE",
"553 441 OFFCURVE",
"594 348 CURVE"
);
},
{
closed = 1;
nodes = (
"586 566 LINE",
"586 0 LINE",
"672 0 LINE",
"672 494 LINE",
"1302 494 LINE",
"1302 566 LINE"
);
},
{
closed = 1;
nodes = (
"837 105 OFFCURVE",
"845 -12 OFFCURVE",
"1003 -12 CURVE SMOOTH",
"1161 -12 OFFCURVE",
"1169 105 OFFCURVE",
"1169 185 CURVE SMOOTH",
"1169 502 LINE",
"1083 502 LINE",
"1083 176 LINE SMOOTH",
"1083 110 OFFCURVE",
"1071 58 OFFCURVE",
"1003 58 CURVE SMOOTH",
"935 58 OFFCURVE",
"923 110 OFFCURVE",
"923 176 CURVE SMOOTH",
"923 502 LINE",
"837 502 LINE",
"837 185 LINE SMOOTH"
);
}
);
width = 0;
}
);
unicode = 11363;
category = Mark;
subCategory = Nonspacing;
},
{
glyphname = repha_gran;
lastChange = "2018-09-18 15:39:55 +0000";
layers = (
{
layerId = "229B7033-F00A-4676-AEB9-BF59C6456AE0";
paths = (
{
closed = 1;
nodes = (
"393 533 OFFCURVE",
"485 476 OFFCURVE",
"469 306 CURVE SMOOTH",
"458 189 OFFCURVE",
"423 68 OFFCURVE",
"423 -18 CURVE SMOOTH",
"423 -131 OFFCURVE",
"484 -181 OFFCURVE",
"559 -181 CURVE SMOOTH",
"631 -181 OFFCURVE",
"694 -137 OFFCURVE",
"694 -53 CURVE SMOOTH",
"694 34 OFFCURVE",
"608 72 OFFCURVE",
"524 72 CURVE SMOOTH",
"40 72 LINE",
"40 0 LINE",
"505 0 LINE SMOOTH",
"570 0 OFFCURVE",
"608 -19 OFFCURVE",
"608 -61 CURVE SMOOTH",
"608 -96 OFFCURVE",
"581 -109 OFFCURVE",
"558 -109 CURVE SMOOTH",
"528 -109 OFFCURVE",
"502 -88 OFFCURVE",
"502 -30 CURVE SMOOTH",
"502 31 OFFCURVE",
"530 143 OFFCURVE",
"550 292 CURVE SMOOTH",
"579 508 OFFCURVE",
"465 607 OFFCURVE",
"284 614 CURVE",
"284 542 LINE"
);
}
);
width = 0;
}
);
category = Mark;
subCategory = Nonspacing;
},
{
glyphname = yaPhalaa_gran;
lastChange = "2018-09-18 16:45:11 +0000";
layers = (
{
layerId = "229B7033-F00A-4676-AEB9-BF59C6456AE0";
paths = (
{
closed = 1;
nodes = (
"480 -373 OFFCURVE",
"568 -193 OFFCURVE",
"568 17 CURVE SMOOTH",
"568 326 OFFCURVE",
"377 530 OFFCURVE",
"197 613 CURVE",
"167 548 LINE",
"305 482 OFFCURVE",
"482 330 OFFCURVE",
"482 13 CURVE SMOOTH",
"482 -172 OFFCURVE",
"422 -301 OFFCURVE",
"333 -301 CURVE SMOOTH",
"277 -301 OFFCURVE",
"266 -250 OFFCURVE",
"283 -200 CURVE SMOOTH",
"298 -155 OFFCURVE",
"306 -119 OFFCURVE",
"306 -88 CURVE SMOOTH",
"306 0 OFFCURVE",
"254 29 OFFCURVE",
"187 29 CURVE SMOOTH",
"96 29 OFFCURVE",
"26 -35 OFFCURVE",
"26 -162 CURVE",
"102 -162 LINE",
"102 -83 OFFCURVE",
"135 -35 OFFCURVE",
"182 -35 CURVE SMOOTH",
"217 -35 OFFCURVE",
"235 -61 OFFCURVE",
"235 -97 CURVE SMOOTH",
"235 -119 OFFCURVE",
"224 -148 OFFCURVE",
"211 -185 CURVE SMOOTH",
"176 -283 OFFCURVE",
"236 -373 OFFCURVE",
"329 -373 CURVE SMOOTH"
);
}
);
width = 0;
}
);
category = Mark;
subCategory = Nonspacing;
},
{
glyphname = yaPhalaa_gran.short;
lastChange = "2018-09-18 16:45:15 +0000";
layers = (
{
layerId = "229B7033-F00A-4676-AEB9-BF59C6456AE0";
paths = (
{
closed = 1;
nodes = (
"485 -273 OFFCURVE",
"568 -83 OFFCURVE",
"568 104 CURVE SMOOTH",
"568 386 OFFCURVE",
"387 550 OFFCURVE",
"197 613 CURVE",
"167 548 LINE",
"275 505 OFFCURVE",
"482 390 OFFCURVE",
"482 93 CURVE SMOOTH",
"482 -62 OFFCURVE",
"428 -201 OFFCURVE",
"340 -201 CURVE SMOOTH",
"283 -201 OFFCURVE",
"288 -141 OFFCURVE",
"303 -100 CURVE SMOOTH",
"308 -86 LINE SMOOTH",
"318 -58 OFFCURVE",
"327 -25 OFFCURVE",
"327 9 CURVE SMOOTH",
"327 89 OFFCURVE",
"279 129 OFFCURVE",
"207 129 CURVE SMOOTH",
"121 129 OFFCURVE",
"46 65 OFFCURVE",
"46 -62 CURVE",
"122 -62 LINE",
"122 17 OFFCURVE",
"155 65 OFFCURVE",
"202 65 CURVE SMOOTH",
"237 65 OFFCURVE",
"255 39 OFFCURVE",
"255 3 CURVE SMOOTH",
"255 -14 OFFCURVE",
"251 -36 OFFCURVE",
"241 -60 CURVE SMOOTH",
"232 -82 LINE SMOOTH",
"192 -180 OFFCURVE",
"232 -273 OFFCURVE",
"334 -273 CURVE SMOOTH"
);
}
);
width = 0;
}
);
category = Mark;
subCategory = Nonspacing;
},
{
glyphname = ra_vattu_gran;
lastChange = "2018-09-18 15:39:55 +0000";
layers = (
{
layerId = "229B7033-F00A-4676-AEB9-BF59C6456AE0";
paths = (
{
closed = 1;
nodes = (
"347 388 LINE",
"-43 388 LINE",
"-43 316 LINE",
"347 316 LINE"
);
},
{
closed = 1;
nodes = (
"-577 -261 LINE",
"-531 -392 OFFCURVE",
"-427 -503 OFFCURVE",
"-203 -503 CURVE SMOOTH",
"25 -503 OFFCURVE",
"226 -385 OFFCURVE",
"226 -145 CURVE SMOOTH",
"226 335 LINE",
"140 335 LINE",
"140 -165 LINE SMOOTH",
"140 -308 OFFCURVE",
"17 -431 OFFCURVE",
"-202 -431 CURVE SMOOTH",
"-331 -431 OFFCURVE",
"-434 -387 OFFCURVE",
"-491 -261 CURVE"
);
}
);
width = 0;
}
);
script = gran;
category = Mark;
subCategory = Nonspacing;
},
{
glyphname = ra_vattu_gran.d1;
lastChange = "2018-09-18 15:39:55 +0000";
layers = (
{
layerId = "229B7033-F00A-4676-AEB9-BF59C6456AE0";
paths = (
{
closed = 1;
nodes = (
"347 388 LINE",
"-43 388 LINE",
"-43 316 LINE",
"347 316 LINE"
);
},
{
closed = 1;
nodes = (
"-577 -381 LINE",
"-531 -512 OFFCURVE",
"-427 -623 OFFCURVE",
"-203 -623 CURVE SMOOTH",
"25 -623 OFFCURVE",
"226 -505 OFFCURVE",
"226 -265 CURVE SMOOTH",
"226 335 LINE",
"140 335 LINE",
"140 -285 LINE SMOOTH",
"140 -428 OFFCURVE",
"17 -551 OFFCURVE",
"-202 -551 CURVE SMOOTH",
"-331 -551 OFFCURVE",
"-434 -507 OFFCURVE",
"-491 -381 CURVE"
);
}
);
width = 0;
}
);
script = gran;
category = Mark;
subCategory = Nonspacing;
},
{
glyphname = ra_vattu_gran.d1b;
lastChange = "2018-09-18 15:39:55 +0000";
layers = (
{
layerId = "229B7033-F00A-4676-AEB9-BF59C6456AE0";
paths = (
{
closed = 1;
nodes = (
"347 388 LINE",
"-43 388 LINE",
"-43 316 LINE",
"347 316 LINE"
);
},
{
closed = 1;
nodes = (
"-577 -621 LINE",
"-531 -752 OFFCURVE",
"-427 -863 OFFCURVE",
"-203 -863 CURVE SMOOTH",
"25 -863 OFFCURVE",
"226 -745 OFFCURVE",
"226 -505 CURVE SMOOTH",
"226 335 LINE",
"140 335 LINE",
"140 -525 LINE SMOOTH",
"140 -668 OFFCURVE",
"17 -791 OFFCURVE",
"-202 -791 CURVE SMOOTH",
"-331 -791 OFFCURVE",
"-434 -747 OFFCURVE",
"-491 -621 CURVE"
);
}
);
width = 0;
}
);
script = gran;
category = Mark;
subCategory = Nonspacing;
},
{
glyphname = ra_vattu_gran.d1w1;
lastChange = "2018-09-18 15:39:55 +0000";
layers = (
{
layerId = "229B7033-F00A-4676-AEB9-BF59C6456AE0";
paths = (
{
closed = 1;
nodes = (
"347 388 LINE",
"-43 388 LINE",
"-43 316 LINE",
"347 316 LINE"
);
},
{
closed = 1;
nodes = (
"-1149 -350 LINE",
"-1076 -441 OFFCURVE",
"-927 -553 OFFCURVE",
"-533 -553 CURVE SMOOTH",
"-205 -553 OFFCURVE",
"226 -435 OFFCURVE",
"226 15 CURVE SMOOTH",
"226 335 LINE",
"140 335 LINE",
"140 -22 LINE SMOOTH",
"140 -358 OFFCURVE",
"-193 -481 OFFCURVE",
"-542 -481 CURVE SMOOTH",
"-811 -481 OFFCURVE",
"-984 -426 OFFCURVE",
"-1091 -311 CURVE"
);
}
);
width = 0;
}
);
script = gran;
category = Mark;
subCategory = Nonspacing;
},
{
glyphname = ra_vattu_gran.d1w3;
lastChange = "2018-09-18 15:39:55 +0000";
layers = (
{
layerId = "229B7033-F00A-4676-AEB9-BF59C6456AE0";
paths = (
{
closed = 1;
nodes = (
"347 388 LINE",
"-43 388 LINE",
"-43 316 LINE",
"347 316 LINE"
);
},
{
closed = 1;
nodes = (
"-1770 -230 LINE",
"-1697 -340 OFFCURVE",
"-1490 -553 OFFCURVE",
"-852 -553 CURVE SMOOTH",
"-364 -553 OFFCURVE",
"226 -372 OFFCURVE",
"226 105 CURVE SMOOTH",
"226 335 LINE",
"140 335 LINE",
"140 75 LINE SMOOTH",
"140 -318 OFFCURVE",
"-408 -481 OFFCURVE",
"-857 -481 CURVE SMOOTH",
"-1436 -481 OFFCURVE",
"-1615 -321 OFFCURVE",
"-1711 -191 CURVE"
);
}
);
width = 0;
}
);
script = gran;
category = Mark;
subCategory = Nonspacing;
},
{
glyphname = ra_vattu_gran.d2;
lastChange = "2018-09-18 15:39:55 +0000";
layers = (
{
layerId = "229B7033-F00A-4676-AEB9-BF59C6456AE0";
paths = (
{
closed = 1;
nodes = (
"347 388 LINE",
"-43 388 LINE",
"-43 316 LINE",
"347 316 LINE"
);
},
{
closed = 1;
nodes = (
"-577 -825 LINE",
"-531 -956 OFFCURVE",
"-427 -1067 OFFCURVE",
"-203 -1067 CURVE SMOOTH",
"25 -1067 OFFCURVE",
"226 -949 OFFCURVE",
"226 -709 CURVE SMOOTH",
"226 335 LINE",
"140 335 LINE",
"140 -729 LINE SMOOTH",
"140 -872 OFFCURVE",
"17 -995 OFFCURVE",
"-202 -995 CURVE SMOOTH",
"-331 -995 OFFCURVE",
"-434 -951 OFFCURVE",
"-491 -825 CURVE"
);
}
);
width = 0;
}
);
script = gran;
category = Mark;
subCategory = Nonspacing;
},
{
glyphname = ra_vattu_gran.d2h2;
lastChange = "2018-09-18 15:39:55 +0000";
layers = (
{
layerId = "229B7033-F00A-4676-AEB9-BF59C6456AE0";
paths = (
{
closed = 1;
nodes = (
"647 388 LINE",
"-43 388 LINE",
"-43 316 LINE",
"647 316 LINE"
);
},
{
closed = 1;
nodes = (
"-277 -825 LINE",
"-242 -986 OFFCURVE",
"-127 -1067 OFFCURVE",
"97 -1067 CURVE SMOOTH",
"325 -1067 OFFCURVE",
"526 -959 OFFCURVE",
"526 -729 CURVE SMOOTH",
"526 335 LINE",
"440 335 LINE",
"440 -729 LINE SMOOTH",
"440 -872 OFFCURVE",
"317 -995 OFFCURVE",
"88 -995 CURVE SMOOTH",
"-11 -995 OFFCURVE",
"-144 -970 OFFCURVE",
"-191 -825 CURVE"
);
}
);
width = 0;
}
);
script = gran;
category = Mark;
subCategory = Nonspacing;
},
{
glyphname = ra_vattu_gran.d2h3;
lastChange = "2018-09-18 15:39:55 +0000";
layers = (
{
layerId = "229B7033-F00A-4676-AEB9-BF59C6456AE0";
paths = (
{
closed = 1;
nodes = (
"647 388 LINE",
"-43 388 LINE",
"-43 316 LINE",
"647 316 LINE"
);
},
{
closed = 1;
nodes = (
"-849 -864 LINE",
"-776 -955 OFFCURVE",
"-617 -1067 OFFCURVE",
"-233 -1067 CURVE SMOOTH",
"95 -1067 OFFCURVE",
"526 -949 OFFCURVE",
"526 -499 CURVE SMOOTH",
"526 335 LINE",
"440 335 LINE",
"440 -536 LINE SMOOTH",
"440 -872 OFFCURVE",
"107 -995 OFFCURVE",
"-242 -995 CURVE SMOOTH",
"-501 -995 OFFCURVE",
"-684 -940 OFFCURVE",
"-791 -825 CURVE"
);
}
);
width = 0;
}
);
script = gran;
category = Mark;
subCategory = Nonspacing;
},
{
glyphname = ra_vattu_gran.d2w2;
lastChange = "2018-09-18 15:39:55 +0000";
layers = (
{
layerId = "229B7033-F00A-4676-AEB9-BF59C6456AE0";
paths = (
{
closed = 1;
nodes = (
"347 388 LINE",
"-43 388 LINE",
"-43 316 LINE",
"347 316 LINE"
);
},
{
closed = 1;
nodes = (
"-1570 -630 LINE",
"-1497 -740 OFFCURVE",
"-1290 -953 OFFCURVE",
"-752 -953 CURVE SMOOTH",
"-264 -953 OFFCURVE",
"226 -772 OFFCURVE",
"226 -295 CURVE SMOOTH",
"226 335 LINE",
"140 335 LINE",
"140 -325 LINE SMOOTH",
"140 -718 OFFCURVE",
"-308 -881 OFFCURVE",
"-757 -881 CURVE SMOOTH",
"-1236 -881 OFFCURVE",
"-1415 -721 OFFCURVE",
"-1511 -591 CURVE"
);
}
);
width = 0;
}
);
script = gran;
category = Mark;
subCategory = Nonspacing;
},
{
glyphname = ra_vattu_gran.d3;
lastChange = "2018-09-18 15:39:55 +0000";
layers = (
{
layerId = "229B7033-F00A-4676-AEB9-BF59C6456AE0";
paths = (
{
closed = 1;
nodes = (
"347 388 LINE",
"-43 388 LINE",
"-43 316 LINE",
"347 316 LINE"
);
},
{
closed = 1;
nodes = (
"-577 -993 LINE",
"-531 -1124 OFFCURVE",
"-427 -1235 OFFCURVE",
"-203 -1235 CURVE SMOOTH",
"25 -1235 OFFCURVE",
"226 -1117 OFFCURVE",
"226 -877 CURVE SMOOTH",
"226 335 LINE",
"140 335 LINE",
"140 -897 LINE SMOOTH",
"140 -1040 OFFCURVE",
"17 -1163 OFFCURVE",
"-202 -1163 CURVE SMOOTH",
"-331 -1163 OFFCURVE",
"-434 -1119 OFFCURVE",
"-491 -993 CURVE"
);
}
);
width = 0;
}
);
script = gran;
category = Mark;
subCategory = Nonspacing;
},
{
glyphname = ra_vattu_gran.d3b;
lastChange = "2018-09-18 15:39:55 +0000";
layers = (
{
layerId = "229B7033-F00A-4676-AEB9-BF59C6456AE0";
paths = (
{
closed = 1;
nodes = (
"347 388 LINE",
"-43 388 LINE",
"-43 316 LINE",
"347 316 LINE"
);
},
{
closed = 1;
nodes = (
"-577 -1185 LINE",
"-531 -1316 OFFCURVE",
"-427 -1427 OFFCURVE",
"-203 -1427 CURVE SMOOTH",
"25 -1427 OFFCURVE",
"226 -1309 OFFCURVE",
"226 -1069 CURVE SMOOTH",
"226 335 LINE",
"140 335 LINE",
"140 -1089 LINE SMOOTH",
"140 -1232 OFFCURVE",
"17 -1355 OFFCURVE",
"-202 -1355 CURVE SMOOTH",
"-331 -1355 OFFCURVE",
"-434 -1311 OFFCURVE",
"-491 -1185 CURVE"
);
}
);
width = 0;
}
);
script = gran;
category = Mark;
subCategory = Nonspacing;
},
{
glyphname = ra_vattu_gran.d3h1;
lastChange = "2018-09-18 15:39:55 +0000";
layers = (
{
layerId = "229B7033-F00A-4676-AEB9-BF59C6456AE0";
paths = (
{
closed = 1;
nodes = (
"497 388 LINE",
"-43 388 LINE",
"-43 316 LINE",
"497 316 LINE"
);
},
{
closed = 1;
nodes = (
"-427 -993 LINE",
"-392 -1154 OFFCURVE",
"-277 -1235 OFFCURVE",
"-53 -1235 CURVE SMOOTH",
"175 -1235 OFFCURVE",
"376 -1127 OFFCURVE",
"376 -897 CURVE SMOOTH",
"376 335 LINE",
"290 335 LINE",
"290 -897 LINE SMOOTH",
"290 -1040 OFFCURVE",
"167 -1163 OFFCURVE",
"-62 -1163 CURVE SMOOTH",
"-161 -1163 OFFCURVE",
"-294 -1138 OFFCURVE",
"-341 -993 CURVE"
);
}
);
width = 0;
}
);
script = gran;
category = Mark;
subCategory = Nonspacing;
},
{
glyphname = ra_vattu_gran.d3h1w1;
lastChange = "2018-09-18 15:39:55 +0000";
layers = (
{
layerId = "229B7033-F00A-4676-AEB9-BF59C6456AE0";
paths = (
{
closed = 1;
nodes = (
"497 388 LINE",
"-43 388 LINE",
"-43 316 LINE",
"497 316 LINE"
);
},
{
closed = 1;
nodes = (
"-1007 -1037 LINE",
"-922 -1133 OFFCURVE",
"-747 -1235 OFFCURVE",
"-393 -1235 CURVE SMOOTH",
"-25 -1235 OFFCURVE",
"376 -1127 OFFCURVE",
"376 -727 CURVE SMOOTH",
"376 335 LINE",
"290 335 LINE",
"290 -727 LINE SMOOTH",
"290 -1040 OFFCURVE",
"-33 -1163 OFFCURVE",
"-402 -1163 CURVE SMOOTH",
"-631 -1163 OFFCURVE",
"-836 -1098 OFFCURVE",
"-941 -993 CURVE"
);
}
);
width = 0;
}
);
script = gran;
category = Mark;
subCategory = Nonspacing;
},
{
glyphname = ra_vattu_gran.d3h2;
lastChange = "2018-09-18 15:39:55 +0000";
layers = (
{
layerId = "229B7033-F00A-4676-AEB9-BF59C6456AE0";
paths = (
{
closed = 1;
nodes = (
"647 388 LINE",
"-43 388 LINE",
"-43 316 LINE",
"647 316 LINE"
);
},
{
closed = 1;
nodes = (
"-277 -993 LINE",
"-242 -1154 OFFCURVE",
"-127 -1235 OFFCURVE",
"97 -1235 CURVE SMOOTH",
"325 -1235 OFFCURVE",
"526 -1127 OFFCURVE",
"526 -897 CURVE SMOOTH",
"526 335 LINE",
"440 335 LINE",
"440 -897 LINE SMOOTH",
"440 -1040 OFFCURVE",
"317 -1163 OFFCURVE",
"88 -1163 CURVE SMOOTH",
"-11 -1163 OFFCURVE",
"-144 -1138 OFFCURVE",
"-191 -993 CURVE"
);
}
);
width = 0;
}
);
script = gran;
category = Mark;
subCategory = Nonspacing;
},
{
glyphname = ra_vattu_gran.d4;
lastChange = "2018-09-18 15:39:55 +0000";
layers = (
{
layerId = "229B7033-F00A-4676-AEB9-BF59C6456AE0";
paths = (
{
closed = 1;
nodes = (
"347 388 LINE",
"-43 388 LINE",
"-43 316 LINE",
"347 316 LINE"
);
},
{
closed = 1;
nodes = (
"-577 -1413 LINE",
"-532 -1524 OFFCURVE",
"-407 -1655 OFFCURVE",
"-182 -1655 CURVE SMOOTH",
"25 -1655 OFFCURVE",
"226 -1537 OFFCURVE",
"226 -1307 CURVE SMOOTH",
"226 335 LINE",
"140 335 LINE",
"140 -1317 LINE SMOOTH",
"140 -1460 OFFCURVE",
"17 -1583 OFFCURVE",
"-182 -1583 CURVE SMOOTH",
"-311 -1583 OFFCURVE",
"-424 -1528 OFFCURVE",
"-491 -1413 CURVE"
);
}
);
width = 0;
}
);
script = gran;
category = Mark;
subCategory = Nonspacing;
},
{
glyphname = ra_vattu_gran.d4h2;
lastChange = "2018-09-18 15:39:55 +0000";
layers = (
{
layerId = "229B7033-F00A-4676-AEB9-BF59C6456AE0";
paths = (
{
closed = 1;
nodes = (
"647 388 LINE",
"-43 388 LINE",
"-43 316 LINE",
"647 316 LINE"
);
},
{
closed = 1;
nodes = (
"-277 -1413 LINE",
"-242 -1574 OFFCURVE",
"-127 -1655 OFFCURVE",
"97 -1655 CURVE SMOOTH",
"325 -1655 OFFCURVE",
"526 -1547 OFFCURVE",
"526 -1317 CURVE SMOOTH",
"526 335 LINE",
"440 335 LINE",
"440 -1317 LINE SMOOTH",
"440 -1460 OFFCURVE",
"317 -1583 OFFCURVE",
"88 -1583 CURVE SMOOTH",
"-11 -1583 OFFCURVE",
"-144 -1558 OFFCURVE",
"-191 -1413 CURVE"
);
}
);
width = 0;
}
);
script = gran;
category = Mark;
subCategory = Nonspacing;
},
{
glyphname = ra_vattu_gran.d4bh2;
lastChange = "2018-09-18 15:39:55 +0000";
layers = (
{
layerId = "229B7033-F00A-4676-AEB9-BF59C6456AE0";
paths = (
{
closed = 1;
nodes = (
"647 388 LINE",
"-43 388 LINE",
"-43 316 LINE",
"647 316 LINE"
);
},
{
closed = 1;
nodes = (
"-277 -1513 LINE",
"-242 -1674 OFFCURVE",
"-127 -1755 OFFCURVE",
"97 -1755 CURVE SMOOTH",
"325 -1755 OFFCURVE",
"526 -1647 OFFCURVE",
"526 -1417 CURVE SMOOTH",
"526 335 LINE",
"440 335 LINE",
"440 -1417 LINE SMOOTH",
"440 -1560 OFFCURVE",
"317 -1683 OFFCURVE",
"88 -1683 CURVE SMOOTH",
"-11 -1683 OFFCURVE",
"-144 -1658 OFFCURVE",
"-191 -1513 CURVE"
);
}
);
width = 0;
}
);
script = gran;
category = Mark;
subCategory = Nonspacing;
},
{
glyphname = uMatra_gran;
lastChange = "2018-09-18 15:39:36 +0000";
layers = (
{
layerId = "229B7033-F00A-4676-AEB9-BF59C6456AE0";
paths = (
{
closed = 1;
nodes = (
"414 540 LINE",
"405 506 OFFCURVE",
"400 470 OFFCURVE",
"400 432 CURVE SMOOTH",
"400 311 OFFCURVE",
"458 218 OFFCURVE",
"589 218 CURVE SMOOTH",
"696 218 OFFCURVE",
"763 283 OFFCURVE",
"763 386 CURVE SMOOTH",
"763 508 OFFCURVE",
"672 566 OFFCURVE",
"527 566 CURVE SMOOTH",
"-40 566 LINE",
"-40 494 LINE",
"509 494 LINE SMOOTH",
"607 494 OFFCURVE",
"677 464 OFFCURVE",
"677 382 CURVE SMOOTH",
"677 328 OFFCURVE",
"647 290 OFFCURVE",
"586 290 CURVE SMOOTH",
"523 290 OFFCURVE",
"486 330 OFFCURVE",
"486 435 CURVE SMOOTH",
"486 473 OFFCURVE",
"491 508 OFFCURVE",
"502 540 CURVE"
);
}
);
width = 0;
}
);
unicode = 11341;
category = Mark;
subCategory = Nonspacing;
},
{
glyphname = uuMatra_gran;
lastChange = "2018-09-18 15:39:36 +0000";
layers = (
{
layerId = "229B7033-F00A-4676-AEB9-BF59C6456AE0";
paths = (
{
closed = 1;
nodes = (
"732 13 OFFCURVE",
"896 132 OFFCURVE",
"896 416 CURVE SMOOTH",
"896 628 OFFCURVE",
"775 764 OFFCURVE",
"563 764 CURVE SMOOTH",
"359 764 OFFCURVE",
"231 629 OFFCURVE",
"231 432 CURVE SMOOTH",
"231 311 OFFCURVE",
"289 218 OFFCURVE",
"420 218 CURVE SMOOTH",
"527 218 OFFCURVE",
"594 283 OFFCURVE",
"594 386 CURVE SMOOTH",
"594 508 OFFCURVE",
"503 566 OFFCURVE",
"358 566 CURVE SMOOTH",
"-40 566 LINE",
"-40 494 LINE",
"340 494 LINE SMOOTH",
"438 494 OFFCURVE",
"508 464 OFFCURVE",
"508 382 CURVE SMOOTH",
"508 328 OFFCURVE",
"478 290 OFFCURVE",
"417 290 CURVE SMOOTH",
"354 290 OFFCURVE",
"317 330 OFFCURVE",
"317 435 CURVE SMOOTH",
"317 581 OFFCURVE",
"395 692 OFFCURVE",
"560 692 CURVE SMOOTH",
"724 692 OFFCURVE",
"810 571 OFFCURVE",
"810 408 CURVE SMOOTH",
"810 170 OFFCURVE",
"681 85 OFFCURVE",
"509 85 CURVE SMOOTH",
"383 85 OFFCURVE",
"291 129 OFFCURVE",
"230 174 CURVE",
"192 113 LINE",
"263 64 OFFCURVE",
"373 13 OFFCURVE",
"512 13 CURVE SMOOTH"
);
}
);
width = 0;
}
);
unicode = 11342;
category = Mark;
subCategory = Nonspacing;
},
{
glyphname = iiMatra_gran;
lastChange = "2018-09-18 15:38:53 +0000";
layers = (
{
layerId = "229B7033-F00A-4676-AEB9-BF59C6456AE0";
paths = (
{
closed = 1;
nodes = (
"-301 474 LINE",
"-341 526 OFFCURVE",
"-351 575 OFFCURVE",
"-351 610 CURVE SMOOTH",
"-351 709 OFFCURVE",
"-276 760 OFFCURVE",
"-162 760 CURVE SMOOTH",
"-103 760 OFFCURVE",
"-62 740 OFFCURVE",
"-62 693 CURVE SMOOTH",
"-62 659 OFFCURVE",
"-84 636 OFFCURVE",
"-123 636 CURVE SMOOTH",
"-159 636 OFFCURVE",
"-185 654 OFFCURVE",
"-185 699 CURVE SMOOTH",
"-185 724 OFFCURVE",
"-176 751 OFFCURVE",
"-154 776 CURVE",
"-205 798 LINE",
"-241 761 OFFCURVE",
"-251 716 OFFCURVE",
"-251 685 CURVE SMOOTH",
"-251 616 OFFCURVE",
"-201 574 OFFCURVE",
"-123 574 CURVE SMOOTH",
"-50 574 OFFCURVE",
"8 618 OFFCURVE",
"8 697 CURVE SMOOTH",
"8 776 OFFCURVE",
"-53 823 OFFCURVE",
"-168 823 CURVE SMOOTH",
"-347 823 OFFCURVE",
"-427 721 OFFCURVE",
"-427 606 CURVE SMOOTH",
"-427 575 OFFCURVE",
"-421 525 OFFCURVE",
"-382 474 CURVE"
);
}
);
width = 0;
}
);
unicode = 11340;
script = gran;
category = Mark;
subCategory = Nonspacing;
},
{
glyphname = eeMatra_gran;
lastChange = "2018-09-18 15:38:24 +0000";
layers = (
{
layerId = "229B7033-F00A-4676-AEB9-BF59C6456AE0";
paths = (
{
closed = 1;
nodes = (
"514 -14 OFFCURVE",
"622 47 OFFCURVE",
"622 178 CURVE SMOOTH",
"622 290 OFFCURVE",
"542 349 OFFCURVE",
"445 349 CURVE SMOOTH",
"327 349 OFFCURVE",
"262 267 OFFCURVE",
"262 171 CURVE SMOOTH",
"262 103 OFFCURVE",
"296 57 OFFCURVE",
"331 33 CURVE",
"397 43 LINE",
"363 77 OFFCURVE",
"348 123 OFFCURVE",
"348 171 CURVE SMOOTH",
"348 238 OFFCURVE",
"385 277 OFFCURVE",
"443 277 CURVE SMOOTH",
"501 277 OFFCURVE",
"536 238 OFFCURVE",
"536 171 CURVE SMOOTH",
"536 100 OFFCURVE",
"501 58 OFFCURVE",
"423 58 CURVE SMOOTH",
"261 58 OFFCURVE",
"156 196 OFFCURVE",
"156 395 CURVE SMOOTH",
"156 669 OFFCURVE",
"331 771 OFFCURVE",
"488 771 CURVE SMOOTH",
"676 771 OFFCURVE",
"740 618 OFFCURVE",
"740 365 CURVE SMOOTH",
"740 -12 LINE",
"826 -12 LINE",
"826 425 LINE SMOOTH",
"826 689 OFFCURVE",
"705 843 OFFCURVE",
"488 843 CURVE SMOOTH",
"266 843 OFFCURVE",
"70 691 OFFCURVE",
"70 393 CURVE SMOOTH",
"70 149 OFFCURVE",
"203 -14 OFFCURVE",
"400 -14 CURVE SMOOTH"
);
}
);
width = 906;
}
);
unicode = 11347;
},
{
glyphname = virama_gran;
lastChange = "2018-09-18 15:39:15 +0000";
layers = (
{
layerId = "229B7033-F00A-4676-AEB9-BF59C6456AE0";
paths = (
{
closed = 1;
nodes = (
"95 873 LINE SMOOTH",
"-241 873 OFFCURVE",
"-310 821 OFFCURVE",
"-310 755 CURVE SMOOTH",
"-310 713 OFFCURVE",
"-283 690 OFFCURVE",
"-237 675 CURVE",
"-237 692 LINE",
"-294 671 OFFCURVE",
"-315 647 OFFCURVE",
"-315 607 CURVE SMOOTH",
"-315 534 OFFCURVE",
"-245 494 OFFCURVE",
"-129 494 CURVE SMOOTH",
"-29 494 LINE",
"-29 566 LINE",
"-135 566 LINE SMOOTH",
"-196 566 OFFCURVE",
"-229 577 OFFCURVE",
"-229 606 CURVE SMOOTH",
"-229 635 OFFCURVE",
"-196 646 OFFCURVE",
"-135 646 CURVE SMOOTH",
"-39 646 LINE",
"-39 718 LINE",
"-125 718 LINE SMOOTH",
"-172 718 OFFCURVE",
"-224 724 OFFCURVE",
"-224 755 CURVE SMOOTH",
"-224 787 OFFCURVE",
"-167 801 OFFCURVE",
"66 801 CURVE SMOOTH",
"130 801 LINE",
"139 873 LINE"
);
}
);
width = 0;
}
);
unicode = 1134D;
},
{
glyphname = virama_gran.alt;
lastChange = "2018-09-18 15:39:15 +0000";
layers = (
{
layerId = "229B7033-F00A-4676-AEB9-BF59C6456AE0";
paths = (
{
closed = 1;
nodes = (
"-184 559 LINE",
"-211 573 OFFCURVE",
"-233 595 OFFCURVE",
"-233 619 CURVE SMOOTH",
"-233 648 OFFCURVE",
"-200 664 OFFCURVE",
"-139 664 CURVE SMOOTH",
"-43 664 LINE",
"-43 736 LINE",
"-129 736 LINE SMOOTH",
"-176 736 OFFCURVE",
"-228 740 OFFCURVE",
"-228 777 CURVE SMOOTH",
"-228 803 OFFCURVE",
"-202 819 OFFCURVE",
"-107 819 CURVE SMOOTH",
"76 819 LINE",
"85 891 LINE",
"-69 891 LINE SMOOTH",
"-245 891 OFFCURVE",
"-314 839 OFFCURVE",
"-314 773 CURVE SMOOTH",
"-314 731 OFFCURVE",
"-287 708 OFFCURVE",
"-241 693 CURVE",
"-241 710 LINE",
"-298 689 OFFCURVE",
"-319 660 OFFCURVE",
"-319 620 CURVE SMOOTH",
"-319 567 OFFCURVE",
"-281 522 OFFCURVE",
"-228 508 CURVE"
);
}
);
width = 0;
}
);
},
{
glyphname = virama_gran.s1;
lastChange = "2018-09-18 15:39:15 +0000";
layers = (
{
layerId = "229B7033-F00A-4676-AEB9-BF59C6456AE0";
paths = (
{
closed = 1;
nodes = (
"95 873 LINE SMOOTH",
"-241 873 OFFCURVE",
"-310 821 OFFCURVE",
"-310 755 CURVE SMOOTH",
"-310 713 OFFCURVE",
"-283 690 OFFCURVE",
"-237 675 CURVE",
"-237 692 LINE",
"-294 671 OFFCURVE",
"-315 647 OFFCURVE",
"-315 607 CURVE SMOOTH",
"-315 534 OFFCURVE",
"-245 494 OFFCURVE",
"-129 494 CURVE SMOOTH",
"-29 494 LINE",
"-29 566 LINE",
"-135 566 LINE SMOOTH",
"-196 566 OFFCURVE",
"-229 577 OFFCURVE",
"-229 606 CURVE SMOOTH",
"-229 635 OFFCURVE",
"-196 646 OFFCURVE",
"-135 646 CURVE SMOOTH",
"-39 646 LINE",
"-39 718 LINE",
"-125 718 LINE SMOOTH",
"-172 718 OFFCURVE",
"-224 724 OFFCURVE",
"-224 755 CURVE SMOOTH",
"-224 787 OFFCURVE",
"-167 801 OFFCURVE",
"66 801 CURVE SMOOTH",
"130 801 LINE",
"139 873 LINE"
);
}
);
width = 0;
}
);
},
{
glyphname = om_gran;
lastChange = "2018-09-18 15:38:24 +0000";
layers = (
{
layerId = "229B7033-F00A-4676-AEB9-BF59C6456AE0";
paths = (
{
closed = 1;
nodes = (
"966 851 LINE",
"895 843 OFFCURVE",
"757 783 OFFCURVE",
"668 659 CURVE SMOOTH",
"607 573 OFFCURVE",
"567 445 OFFCURVE",
"588 254 CURVE SMOOTH",
"601 138 OFFCURVE",
"638 10 OFFCURVE",
"638 -85 CURVE SMOOTH",
"638 -255 OFFCURVE",
"561 -370 OFFCURVE",
"431 -370 CURVE SMOOTH",
"326 -370 OFFCURVE",
"287 -296 OFFCURVE",
"287 -232 CURVE SMOOTH",
"287 -157 OFFCURVE",
"340 -73 OFFCURVE",
"543 -73 CURVE SMOOTH",
"720 -73 LINE SMOOTH",
"859 -73 OFFCURVE",
"910 -46 OFFCURVE",
"910 -8 CURVE SMOOTH",
"910 11 OFFCURVE",
"897 29 OFFCURVE",
"868 29 CURVE SMOOTH",
"840 29 OFFCURVE",
"826 10 OFFCURVE",
"817 -8 CURVE",
"742 -8 LINE",
"757 48 OFFCURVE",
"801 95 OFFCURVE",
"880 95 CURVE SMOOTH",
"968 95 OFFCURVE",
"996 42 OFFCURVE",
"996 -4 CURVE SMOOTH",
"996 -79 OFFCURVE",
"921 -145 OFFCURVE",
"721 -145 CURVE SMOOTH",
"522 -145 LINE SMOOTH",
"423 -145 OFFCURVE",
"373 -180 OFFCURVE",
"373 -230 CURVE SMOOTH",
"373 -268 OFFCURVE",
"401 -298 OFFCURVE",
"440 -298 CURVE SMOOTH",
"505 -298 OFFCURVE",
"552 -229 OFFCURVE",
"552 -97 CURVE SMOOTH",
"552 -2 OFFCURVE",
"526 109 OFFCURVE",
"511 249 CURVE SMOOTH",
"491 438 OFFCURVE",
"524 576 OFFCURVE",
"599 692 CURVE SMOOTH",
"676 812 OFFCURVE",
"812 904 OFFCURVE",
"957 923 CURVE"
);
},
{
closed = 1;
nodes = (
"920 159 LINE",
"920 69 LINE",
"843 69 LINE",
"843 159 LINE"
);
},
{
closed = 1;
nodes = (
"695 150 LINE",
"691 213 LINE",
"772 259 OFFCURVE",
"823 340 OFFCURVE",
"823 442 CURVE SMOOTH",
"823 563 OFFCURVE",
"744 676 OFFCURVE",
"520 676 CURVE SMOOTH",
"270 676 OFFCURVE",
"156 543 OFFCURVE",
"156 374 CURVE SMOOTH",
"156 273 OFFCURVE",
"204 226 OFFCURVE",
"264 226 CURVE SMOOTH",
"322 226 OFFCURVE",
"348 268 OFFCURVE",
"348 319 CURVE SMOOTH",
"348 368 OFFCURVE",
"322 408 OFFCURVE",
"265 408 CURVE SMOOTH",
"214 408 OFFCURVE",
"167 377 OFFCURVE",
"128 334 CURVE",
"113 398 LINE",
"153 445 OFFCURVE",
"216 478 OFFCURVE",
"286 478 CURVE SMOOTH",
"377 478 OFFCURVE",
"434 423 OFFCURVE",
"434 325 CURVE SMOOTH",
"434 222 OFFCURVE",
"376 158 OFFCURVE",
"273 158 CURVE SMOOTH",
"162 158 OFFCURVE",
"70 232 OFFCURVE",
"70 391 CURVE SMOOTH",
"70 616 OFFCURVE",
"256 748 OFFCURVE",
"521 748 CURVE SMOOTH",
"814 748 OFFCURVE",
"909 589 OFFCURVE",
"909 447 CURVE SMOOTH",
"909 366 OFFCURVE",
"880 281 OFFCURVE",
"803 222 CURVE",
"1082 222 LINE",
"1082 150 LINE"
);
}
);
width = 1122;
}
);
unicode = 11350;
},
{
glyphname = pluta_gran;
lastChange = "2018-09-18 15:38:24 +0000";
layers = (
{
layerId = "229B7033-F00A-4676-AEB9-BF59C6456AE0";
paths = (
{
closed = 1;
nodes = (
"164 365 LINE",
"150 377 OFFCURVE",
"146 385 OFFCURVE",
"146 409 CURVE SMOOTH",
"146 430 OFFCURVE",
"176 446 OFFCURVE",
"228 477 CURVE SMOOTH",
"293 516 OFFCURVE",
"308 555 OFFCURVE",
"308 589 CURVE SMOOTH",
"308 670 OFFCURVE",
"219 693 OFFCURVE",
"200 772 CURVE",
"120 772 LINE",
"132 682 OFFCURVE",
"232 642 OFFCURVE",
"232 586 CURVE SMOOTH",
"232 560 OFFCURVE",
"210 544 OFFCURVE",
"168 522 CURVE SMOOTH",
"120 497 OFFCURVE",
"71 468 OFFCURVE",
"71 414 CURVE SMOOTH",
"71 377 OFFCURVE",
"87 363 OFFCURVE",
"108 340 CURVE"
);
},
{
closed = 1;
nodes = (
"396 -44 OFFCURVE",
"347 -65 OFFCURVE",
"276 -65 CURVE SMOOTH",
"195 -65 OFFCURVE",
"156 -37 OFFCURVE",
"156 -4 CURVE SMOOTH",
"156 20 OFFCURVE",
"177 42 OFFCURVE",
"218 42 CURVE SMOOTH",
"349 42 LINE",
"349 114 LINE",
"241 114 LINE SMOOTH",
"192 114 OFFCURVE",
"156 120 OFFCURVE",
"156 154 CURVE SMOOTH",
"156 183 OFFCURVE",
"182 195 OFFCURVE",
"233 195 CURVE SMOOTH",
"336 195 LINE",
"336 267 LINE",
"224 267 LINE SMOOTH",
"176 267 OFFCURVE",
"156 279 OFFCURVE",
"156 308 CURVE SMOOTH",
"156 337 OFFCURVE",
"195 350 OFFCURVE",
"269 350 CURVE SMOOTH",
"336 350 LINE",
"336 422 LINE",
"281 422 LINE SMOOTH",
"124 422 OFFCURVE",
"70 385 OFFCURVE",
"70 310 CURVE SMOOTH",
"70 271 OFFCURVE",
"89 245 OFFCURVE",
"124 229 CURVE",
"124 228 LINE",
"94 210 OFFCURVE",
"70 184 OFFCURVE",
"70 142 CURVE SMOOTH",
"70 109 OFFCURVE",
"85 85 OFFCURVE",
"104 70 CURVE",
"104 69 LINE",
"86 51 OFFCURVE",
"70 25 OFFCURVE",
"70 -11 CURVE SMOOTH",
"70 -79 OFFCURVE",
"129 -137 OFFCURVE",
"258 -137 CURVE SMOOTH",
"367 -137 OFFCURVE",
"435 -99 OFFCURVE",
"457 -86 CURVE",
"428 -26 LINE"
);
}
);
width = 477;
}
);
leftMetricsKey = ttha_gran;
unicode = 1135D;
},
{
glyphname = anusvaraVedic_gran;
lastChange = "2018-09-18 15:39:46 +0000";
layers = (
{
layerId = "229B7033-F00A-4676-AEB9-BF59C6456AE0";
paths = (
{
closed = 1;
nodes = (
"736 495 LINE",
"726 337 OFFCURVE",
"668 90 OFFCURVE",
"426 90 CURVE SMOOTH",
"184 90 OFFCURVE",
"126 340 OFFCURVE",
"116 495 CURVE",
"30 485 LINE",
"50 257 OFFCURVE",
"159 18 OFFCURVE",
"426 18 CURVE SMOOTH",
"693 18 OFFCURVE",
"802 257 OFFCURVE",
"822 485 CURVE"
);
},
{
closed = 1;
nodes = (
"508 261 OFFCURVE",
"569 318 OFFCURVE",
"569 400 CURVE SMOOTH",
"569 482 OFFCURVE",
"508 539 OFFCURVE",
"426 539 CURVE SMOOTH",
"344 539 OFFCURVE",
"283 482 OFFCURVE",
"283 400 CURVE SMOOTH",
"283 318 OFFCURVE",
"344 261 OFFCURVE",
"426 261 CURVE SMOOTH"
);
},
{
closed = 1;
nodes = (
"388 333 OFFCURVE",
"359 362 OFFCURVE",
"359 400 CURVE SMOOTH",
"359 438 OFFCURVE",
"388 467 OFFCURVE",
"426 467 CURVE SMOOTH",
"464 467 OFFCURVE",
"493 438 OFFCURVE",
"493 400 CURVE SMOOTH",
"493 362 OFFCURVE",
"464 333 OFFCURVE",
"426 333 CURVE SMOOTH"
);
}
);
width = 852;
}
);
unicode = 1135E;
},
{
glyphname = doubleAnusvaraVedic_gran;
lastChange = "2018-09-18 15:39:46 +0000";
layers = (
{
layerId = "229B7033-F00A-4676-AEB9-BF59C6456AE0";
paths = (
{
closed = 1;
nodes = (
"1056 566 LINE",
"1046 386 OFFCURVE",
"977 10 OFFCURVE",
"586 10 CURVE SMOOTH",
"197 10 OFFCURVE",
"126 386 OFFCURVE",
"116 566 CURVE",
"30 556 LINE",
"40 366 OFFCURVE",
"134 -62 OFFCURVE",
"586 -62 CURVE SMOOTH",
"1038 -62 OFFCURVE",
"1132 366 OFFCURVE",
"1142 556 CURVE"
);
},
{
closed = 1;
nodes = (
"896 566 LINE",
"886 408 OFFCURVE",
"828 161 OFFCURVE",
"586 161 CURVE SMOOTH",
"344 161 OFFCURVE",
"286 411 OFFCURVE",
"276 566 CURVE",
"190 556 LINE",
"210 308 OFFCURVE",
"319 89 OFFCURVE",
"586 89 CURVE SMOOTH",
"853 89 OFFCURVE",
"962 308 OFFCURVE",
"982 556 CURVE"
);
},
{
closed = 1;
nodes = (
"668 311 OFFCURVE",
"729 368 OFFCURVE",
"729 450 CURVE SMOOTH",
"729 532 OFFCURVE",
"668 589 OFFCURVE",
"586 589 CURVE SMOOTH",
"504 589 OFFCURVE",
"443 532 OFFCURVE",
"443 450 CURVE SMOOTH",
"443 368 OFFCURVE",
"504 311 OFFCURVE",
"586 311 CURVE SMOOTH"
);
},
{
closed = 1;
nodes = (
"548 383 OFFCURVE",
"519 412 OFFCURVE",
"519 450 CURVE SMOOTH",
"519 488 OFFCURVE",
"548 517 OFFCURVE",
"586 517 CURVE SMOOTH",
"624 517 OFFCURVE",
"653 488 OFFCURVE",
"653 450 CURVE SMOOTH",
"653 412 OFFCURVE",
"624 383 OFFCURVE",
"586 383 CURVE SMOOTH"
);
}
);
width = 1172;
}
);
unicode = 1135F;
},
{
glyphname = lVocalic_gran;
lastChange = "2018-09-18 15:39:42 +0000";
layers = (
{
components = (
{
name = ra_gran;
transform = "{1, 0, 0, 1, 506, 0}";
}
);
layerId = "229B7033-F00A-4676-AEB9-BF59C6456AE0";
paths = (
{
closed = 1;
nodes = (
"639 416 LINE",
"599 498 OFFCURVE",
"517 576 OFFCURVE",
"384 576 CURVE SMOOTH",
"219 576 OFFCURVE",
"70 454 OFFCURVE",
"70 237 CURVE SMOOTH",
"70 60 OFFCURVE",
"162 -12 OFFCURVE",
"269 -12 CURVE SMOOTH",
"376 -12 OFFCURVE",
"446 54 OFFCURVE",
"446 165 CURVE SMOOTH",
"446 265 OFFCURVE",
"377 328 OFFCURVE",
"281 328 CURVE SMOOTH",
"216 328 OFFCURVE",
"153 295 OFFCURVE",
"113 248 CURVE",
"128 184 LINE",
"167 227 OFFCURVE",
"214 258 OFFCURVE",
"267 258 CURVE SMOOTH",
"322 258 OFFCURVE",
"360 221 OFFCURVE",
"360 155 CURVE SMOOTH",
"360 95 OFFCURVE",
"325 60 OFFCURVE",
"273 60 CURVE SMOOTH",
"207 60 OFFCURVE",
"156 113 OFFCURVE",
"156 237 CURVE SMOOTH",
"156 393 OFFCURVE",
"246 504 OFFCURVE",
"377 504 CURVE SMOOTH",
"473 504 OFFCURVE",
"553 441 OFFCURVE",
"594 348 CURVE"
);
}
);
width = 1352;
}
);
leftMetricsKey = ttha_gran;
unicode = 1130C;
},
{
glyphname = rVocalic_gran;
lastChange = "2018-09-18 15:39:42 +0000";
layers = (
{
layerId = "229B7033-F00A-4676-AEB9-BF59C6456AE0";
paths = (
{
closed = 1;
nodes = (
"122 197 OFFCURVE",
"70 360 OFFCURVE",
"70 442 CURVE SMOOTH",
"70 536 OFFCURVE",
"141 576 OFFCURVE",
"208 576 CURVE SMOOTH",
"262 576 OFFCURVE",
"333 550 OFFCURVE",
"333 473 CURVE SMOOTH",
"333 372 OFFCURVE",
"211 335 OFFCURVE",
"134 350 CURVE",
"123 404 LINE",
"196 384 OFFCURVE",
"261 413 OFFCURVE",
"261 463 CURVE SMOOTH",
"261 498 OFFCURVE",
"230 512 OFFCURVE",
"205 512 CURVE SMOOTH",
"172 512 OFFCURVE",
"146 488 OFFCURVE",
"146 443 CURVE SMOOTH",
"146 397 OFFCURVE",
"168 265 OFFCURVE",
"392 265 CURVE SMOOTH",
"616 265 OFFCURVE",
"639 397 OFFCURVE",
"639 443 CURVE SMOOTH",
"639 488 OFFCURVE",
"613 512 OFFCURVE",
"580 512 CURVE SMOOTH",
"555 512 OFFCURVE",
"524 498 OFFCURVE",
"524 463 CURVE SMOOTH",
"524 413 OFFCURVE",
"589 384 OFFCURVE",
"662 404 CURVE",
"651 350 LINE",
"574 335 OFFCURVE",
"452 372 OFFCURVE",
"452 473 CURVE SMOOTH",
"452 550 OFFCURVE",
"523 576 OFFCURVE",
"577 576 CURVE SMOOTH",
"644 576 OFFCURVE",
"715 536 OFFCURVE",
"715 442 CURVE SMOOTH",
"715 360 OFFCURVE",
"662 197 OFFCURVE",
"392 197 CURVE SMOOTH"
);
},
{
closed = 1;
nodes = (
"70 203 OFFCURVE",
"238 265 OFFCURVE",
"392 265 CURVE SMOOTH",
"542 265 OFFCURVE",
"715 204 OFFCURVE",
"715 46 CURVE SMOOTH",
"715 -61 OFFCURVE",
"643 -132 OFFCURVE",
"537 -132 CURVE SMOOTH",
"449 -132 OFFCURVE",
"403 -80 OFFCURVE",
"388 -56 CURVE",
"395 -56 LINE",
"380 -80 OFFCURVE",
"334 -132 OFFCURVE",
"249 -132 CURVE SMOOTH",
"150 -132 OFFCURVE",
"70 -66 OFFCURVE",
"70 46 CURVE SMOOTH"
);
},
{
closed = 1;
nodes = (
"291 197 OFFCURVE",
"156 172 OFFCURVE",
"156 44 CURVE SMOOTH",
"156 -41 OFFCURVE",
"218 -65 OFFCURVE",
"261 -65 CURVE SMOOTH",
"308 -65 OFFCURVE",
"351 -35 OFFCURVE",
"360 6 CURVE",
"424 6 LINE",
"433 -35 OFFCURVE",
"479 -63 OFFCURVE",
"526 -63 CURVE SMOOTH",
"569 -63 OFFCURVE",
"629 -41 OFFCURVE",
"629 44 CURVE SMOOTH",
"629 172 OFFCURVE",
"498 197 OFFCURVE",
"392 197 CURVE SMOOTH"
);
}
);
width = 785;
}
);
leftMetricsKey = ttha_gran;
rightMetricsKey = ttha_gran;
unicode = 1130B;
},
{
glyphname = zerocomb_gran;
lastChange = "2018-09-18 15:39:45 +0000";
layers = (
{
layerId = "229B7033-F00A-4676-AEB9-BF59C6456AE0";
paths = (
{
closed = 1;
nodes = (
"-102 633 OFFCURVE",
"-43 708 OFFCURVE",
"-43 807 CURVE SMOOTH",
"-43 894 OFFCURVE",
"-92 980 OFFCURVE",
"-200 980 CURVE SMOOTH",
"-299 980 OFFCURVE",
"-359 907 OFFCURVE",
"-359 807 CURVE SMOOTH",
"-359 707 OFFCURVE",
"-300 633 OFFCURVE",
"-200 633 CURVE SMOOTH"
);
},
{
closed = 1;
nodes = (
"-145 932 OFFCURVE",
"-105 871 OFFCURVE",
"-105 807 CURVE SMOOTH",
"-105 741 OFFCURVE",
"-145 681 OFFCURVE",
"-201 681 CURVE SMOOTH",
"-259 681 OFFCURVE",
"-297 744 OFFCURVE",
"-297 807 CURVE SMOOTH",
"-297 870 OFFCURVE",
"-258 932 OFFCURVE",
"-200 932 CURVE SMOOTH"
);
}
);
width = 0;
}
);
unicode = 11366;
},
{
glyphname = onecomb_gran;
lastChange = "2018-09-18 15:39:45 +0000";
layers = (
{
layerId = "229B7033-F00A-4676-AEB9-BF59C6456AE0";
paths = (
{
closed = 1;
nodes = (
"-252 633 OFFCURVE",
"-211 677 OFFCURVE",
"-211 776 CURVE SMOOTH",
"-211 933 LINE",
"-90 933 LINE",
"-90 981 LINE",
"-424 981 LINE",
"-424 812 LINE",
"-364 821 LINE",
"-364 933 LINE",
"-273 933 LINE",
"-273 768 LINE SMOOTH",
"-273 701 OFFCURVE",
"-296 681 OFFCURVE",
"-349 681 CURVE SMOOTH",
"-395 681 OFFCURVE",
"-417 696 OFFCURVE",
"-417 732 CURVE SMOOTH",
"-417 778 OFFCURVE",
"-384 800 OFFCURVE",
"-315 800 CURVE SMOOTH",
"-199 800 LINE SMOOTH",
"-159 800 OFFCURVE",
"-106 788 OFFCURVE",
"-106 734 CURVE SMOOTH",
"-106 702 OFFCURVE",
"-126 684 OFFCURVE",
"-154 684 CURVE SMOOTH",
"-169 684 OFFCURVE",
"-185 687 OFFCURVE",
"-197 690 CURVE",
"-209 643 LINE",
"-190 638 OFFCURVE",
"-167 635 OFFCURVE",
"-149 635 CURVE SMOOTH",
"-82 635 OFFCURVE",
"-44 670 OFFCURVE",
"-44 731 CURVE SMOOTH",
"-44 808 OFFCURVE",
"-108 848 OFFCURVE",
"-203 848 CURVE SMOOTH",
"-311 848 LINE SMOOTH",
"-433 848 OFFCURVE",
"-479 796 OFFCURVE",
"-479 731 CURVE SMOOTH",
"-479 668 OFFCURVE",
"-426 633 OFFCURVE",
"-353 633 CURVE SMOOTH"
);
}
);
width = 0;
}
);
unicode = 11367;
},
{
glyphname = twocomb_gran;
lastChange = "2018-09-18 15:39:45 +0000";
layers = (
{
layerId = "229B7033-F00A-4676-AEB9-BF59C6456AE0";
paths = (
{
closed = 1;
nodes = (
"-566 985 OFFCURVE",
"-632 936 OFFCURVE",
"-632 862 CURVE SMOOTH",
"-632 813 OFFCURVE",
"-604 766 OFFCURVE",
"-543 734 CURVE",
"-491 755 LINE",
"-540 778 OFFCURVE",
"-570 818 OFFCURVE",
"-570 860 CURVE SMOOTH",
"-570 907 OFFCURVE",
"-532 937 OFFCURVE",
"-477 937 CURVE SMOOTH",
"-420 937 OFFCURVE",
"-380 908 OFFCURVE",
"-380 860 CURVE SMOOTH",
"-380 823 OFFCURVE",
"-406 776 OFFCURVE",
"-495 768 CURVE SMOOTH",
"-541 764 LINE SMOOTH",
"-614 758 OFFCURVE",
"-651 740 OFFCURVE",
"-651 696 CURVE SMOOTH",
"-651 655 OFFCURVE",
"-619 633 OFFCURVE",
"-562 633 CURVE SMOOTH",
"-187 633 LINE",
"-187 681 LINE",
"-568 681 LINE SMOOTH",
"-583 681 OFFCURVE",
"-589 689 OFFCURVE",
"-589 699 CURVE SMOOTH",
"-589 709 OFFCURVE",
"-583 717 OFFCURVE",
"-540 721 CURVE SMOOTH",
"-492 726 LINE SMOOTH",
"-387 737 OFFCURVE",
"-318 788 OFFCURVE",
"-318 866 CURVE SMOOTH",
"-318 932 OFFCURVE",
"-366 985 OFFCURVE",
"-471 985 CURVE SMOOTH"
);
}
);
width = 0;
}
);
unicode = 11368;
},
{
glyphname = threecomb_gran;
lastChange = "2018-09-18 15:39:45 +0000";
layers = (
{
layerId = "229B7033-F00A-4676-AEB9-BF59C6456AE0";
paths = (
{
closed = 1;
nodes = (
"-514 635 LINE",
"-514 933 LINE",
"-433 933 LINE",
"-433 726 LINE",
"-371 726 LINE",
"-371 782 LINE",
"-354 795 OFFCURVE",
"-329 807 OFFCURVE",
"-302 807 CURVE SMOOTH",
"-272 807 OFFCURVE",
"-250 792 OFFCURVE",
"-250 753 CURVE SMOOTH",
"-250 728 OFFCURVE",
"-259 701 OFFCURVE",
"-272 681 CURVE",
"-433 681 LINE",
"-433 633 LINE",
"-48 633 LINE",
"-48 681 LINE",
"-210 681 LINE",
"-197 703 OFFCURVE",
"-188 732 OFFCURVE",
"-188 761 CURVE SMOOTH",
"-188 821 OFFCURVE",
"-224 857 OFFCURVE",
"-291 857 CURVE SMOOTH",
"-330 857 OFFCURVE",
"-355 844 OFFCURVE",
"-371 834 CURVE",
"-371 933 LINE",
"-257 933 LINE",
"-257 981 LINE",
"-576 981 LINE",
"-576 635 LINE"
);
}
);
width = 0;
}
);
unicode = 11369;
},
{
glyphname = fourcomb_gran;
lastChange = "2018-09-18 15:39:45 +0000";
layers = (
{
layerId = "229B7033-F00A-4676-AEB9-BF59C6456AE0";
paths = (
{
closed = 1;
nodes = (
"-48 803 LINE",
"-48 981 LINE",
"-110 981 LINE",
"-110 851 LINE",
"-399 851 LINE SMOOTH",
"-511 851 OFFCURVE",
"-553 797 OFFCURVE",
"-553 736 CURVE SMOOTH",
"-553 679 OFFCURVE",
"-509 633 OFFCURVE",
"-424 633 CURVE SMOOTH",
"-329 633 OFFCURVE",
"-267 690 OFFCURVE",
"-267 769 CURVE SMOOTH",
"-267 933 LINE",
"-184 933 LINE",
"-184 981 LINE",
"-491 981 LINE",
"-491 812 LINE",
"-429 821 LINE",
"-429 933 LINE",
"-329 933 LINE",
"-329 751 LINE SMOOTH",
"-329 717 OFFCURVE",
"-371 687 OFFCURVE",
"-424 687 CURVE SMOOTH",
"-470 687 OFFCURVE",
"-491 712 OFFCURVE",
"-491 739 CURVE SMOOTH",
"-491 774 OFFCURVE",
"-457 803 OFFCURVE",
"-398 803 CURVE SMOOTH"
);
}
);
width = 0;
}
);
unicode = 1136A;
},
{
glyphname = fivecomb_gran;
lastChange = "2018-09-18 15:39:45 +0000";
layers = (
{
layerId = "229B7033-F00A-4676-AEB9-BF59C6456AE0";
paths = (
{
closed = 1;
nodes = (
"-338 498 LINE SMOOTH",
"-203 498 OFFCURVE",
"-74 582 OFFCURVE",
"-74 712 CURVE SMOOTH",
"-74 788 OFFCURVE",
"-123 844 OFFCURVE",
"-188 844 CURVE SMOOTH",
"-217 844 OFFCURVE",
"-240 834 OFFCURVE",
"-255 823 CURVE",
"-255 776 LINE",
"-239 786 OFFCURVE",
"-219 797 OFFCURVE",
"-196 797 CURVE SMOOTH",
"-155 797 OFFCURVE",
"-136 763 OFFCURVE",
"-136 710 CURVE SMOOTH",
"-136 606 OFFCURVE",
"-216 546 OFFCURVE",
"-338 546 CURVE SMOOTH",
"-345 546 LINE SMOOTH",
"-514 546 OFFCURVE",
"-578 664 OFFCURVE",
"-578 795 CURVE SMOOTH",
"-578 803 LINE SMOOTH",
"-578 1007 OFFCURVE",
"-471 1087 OFFCURVE",
"-330 1087 CURVE SMOOTH",
"-235 1087 OFFCURVE",
"-169 1047 OFFCURVE",
"-127 1008 CURVE",
"-99 1053 LINE",
"-156 1103 OFFCURVE",
"-224 1135 OFFCURVE",
"-328 1135 CURVE SMOOTH",
"-556 1135 OFFCURVE",
"-640 963 OFFCURVE",
"-640 816 CURVE SMOOTH",
"-640 788 LINE SMOOTH",
"-640 645 OFFCURVE",
"-550 498 OFFCURVE",
"-345 498 CURVE SMOOTH"
);
},
{
closed = 1;
nodes = (
"-401 649 LINE",
"-401 933 LINE",
"-317 933 LINE",
"-317 649 LINE",
"-255 649 LINE",
"-255 933 LINE",
"-150 933 LINE",
"-150 981 LINE",
"-463 981 LINE",
"-463 649 LINE"
);
}
);
width = 0;
}
);
unicode = 1136B;
},
{
glyphname = sixcomb_gran;
lastChange = "2018-09-18 15:39:45 +0000";
layers = (
{
layerId = "229B7033-F00A-4676-AEB9-BF59C6456AE0";
paths = (
{
closed = 1;
nodes = (
"-368 633 OFFCURVE",
"-330 707 OFFCURVE",
"-330 776 CURVE SMOOTH",
"-330 933 LINE",
"-212 933 LINE",
"-212 981 LINE",
"-541 981 LINE",
"-541 812 LINE",
"-479 812 LINE",
"-479 933 LINE",
"-392 933 LINE",
"-392 768 LINE SMOOTH",
"-392 719 OFFCURVE",
"-418 681 OFFCURVE",
"-471 681 CURVE SMOOTH",
"-517 681 OFFCURVE",
"-541 709 OFFCURVE",
"-541 739 CURVE SMOOTH",
"-541 776 OFFCURVE",
"-506 803 OFFCURVE",
"-437 803 CURVE SMOOTH",
"-41 803 LINE",
"-41 851 LINE",
"-443 851 LINE SMOOTH",
"-545 851 OFFCURVE",
"-603 799 OFFCURVE",
"-603 734 CURVE SMOOTH",
"-603 672 OFFCURVE",
"-551 633 OFFCURVE",
"-475 633 CURVE SMOOTH"
);
},
{
closed = 1;
nodes = (
"-206 637 LINE",
"-206 806 LINE",
"-268 806 LINE",
"-268 637 LINE"
);
},
{
closed = 1;
nodes = (
"-76 637 LINE",
"-76 806 LINE",
"-138 806 LINE",
"-138 637 LINE"
);
}
);
width = 0;
}
);
unicode = 1136C;
},
{
glyphname = acomb_gran;
lastChange = "2018-09-18 15:39:45 +0000";
layers = (
{
layerId = "229B7033-F00A-4676-AEB9-BF59C6456AE0";
paths = (
{
closed = 1;
nodes = (
"-42 851 LINE",
"-410 851 LINE SMOOTH",
"-512 851 OFFCURVE",
"-560 792 OFFCURVE",
"-560 733 CURVE SMOOTH",
"-560 674 OFFCURVE",
"-512 633 OFFCURVE",
"-437 633 CURVE SMOOTH",
"-346 633 OFFCURVE",
"-294 676 OFFCURVE",
"-294 776 CURVE SMOOTH",
"-294 933 LINE",
"-214 933 LINE",
"-214 981 LINE",
"-508 981 LINE",
"-508 812 LINE",
"-446 821 LINE",
"-446 933 LINE",
"-356 933 LINE",
"-356 768 LINE SMOOTH",
"-356 701 OFFCURVE",
"-386 681 OFFCURVE",
"-431 681 CURVE SMOOTH",
"-474 681 OFFCURVE",
"-498 704 OFFCURVE",
"-498 739 CURVE SMOOTH",
"-498 775 OFFCURVE",
"-474 803 OFFCURVE",
"-426 803 CURVE SMOOTH",
"-42 803 LINE"
);
},
{
closed = 1;
nodes = (
"-251 691 OFFCURVE",
"-223 633 OFFCURVE",
"-145 633 CURVE SMOOTH",
"-65 633 OFFCURVE",
"-32 691 OFFCURVE",
"-32 739 CURVE SMOOTH",
"-32 932 LINE",
"-94 932 LINE",
"-94 734 LINE SMOOTH",
"-94 706 OFFCURVE",
"-117 681 OFFCURVE",
"-145 681 CURVE SMOOTH",
"-173 681 OFFCURVE",
"-189 706 OFFCURVE",
"-189 734 CURVE SMOOTH",
"-189 818 LINE",
"-251 818 LINE",
"-251 739 LINE SMOOTH"
);
}
);
width = 0;
}
);
unicode = 11370;
},
{
glyphname = kacomb_gran;
lastChange = "2018-09-18 15:39:45 +0000";
layers = (
{
layerId = "229B7033-F00A-4676-AEB9-BF59C6456AE0";
paths = (
{
closed = 1;
nodes = (
"-611 784 OFFCURVE",
"-570 807 OFFCURVE",
"-508 807 CURVE SMOOTH",
"-281 807 LINE SMOOTH",
"-189 807 OFFCURVE",
"-119 808 OFFCURVE",
"-119 740 CURVE SMOOTH",
"-119 700 OFFCURVE",
"-144 681 OFFCURVE",
"-168 681 CURVE SMOOTH",
"-196 681 OFFCURVE",
"-216 705 OFFCURVE",
"-216 735 CURVE SMOOTH",
"-216 770 OFFCURVE",
"-189 804 OFFCURVE",
"-147 816 CURVE",
"-197 838 LINE",
"-248 820 OFFCURVE",
"-273 773 OFFCURVE",
"-273 729 CURVE SMOOTH",
"-273 671 OFFCURVE",
"-229 633 OFFCURVE",
"-172 633 CURVE SMOOTH",
"-116 633 OFFCURVE",
"-57 668 OFFCURVE",
"-57 746 CURVE SMOOTH",
"-57 837 OFFCURVE",
"-144 855 OFFCURVE",
"-253 855 CURVE SMOOTH",
"-525 855 LINE SMOOTH",
"-599 855 OFFCURVE",
"-673 810 OFFCURVE",
"-673 735 CURVE SMOOTH",
"-673 674 OFFCURVE",
"-636 633 OFFCURVE",
"-576 633 CURVE SMOOTH",
"-528 633 OFFCURVE",
"-494 657 OFFCURVE",
"-480 697 CURVE",
"-493 697 LINE",
"-477 649 OFFCURVE",
"-450 633 OFFCURVE",
"-411 633 CURVE SMOOTH",
"-345 633 OFFCURVE",
"-313 689 OFFCURVE",
"-313 768 CURVE SMOOTH",
"-313 933 LINE",
"-201 933 LINE",
"-201 981 LINE",
"-566 981 LINE",
"-566 846 LINE",
"-504 846 LINE",
"-504 933 LINE",
"-375 933 LINE",
"-375 759 LINE SMOOTH",
"-375 710 OFFCURVE",
"-382 681 OFFCURVE",
"-415 681 CURVE SMOOTH",
"-453 681 OFFCURVE",
"-460 722 OFFCURVE",
"-460 749 CURVE SMOOTH",
"-460 752 LINE",
"-512 752 LINE",
"-512 749 LINE SMOOTH",
"-512 714 OFFCURVE",
"-530 681 OFFCURVE",
"-565 681 CURVE SMOOTH",
"-594 681 OFFCURVE",
"-611 705 OFFCURVE",
"-611 736 CURVE SMOOTH"
);
}
);
width = 0;
}
);
unicode = 11371;
},
{
glyphname = nacomb_gran;
lastChange = "2018-09-18 15:39:45 +0000";
layers = (
{
layerId = "229B7033-F00A-4676-AEB9-BF59C6456AE0";
paths = (
{
closed = 1;
nodes = (
"-481 564 LINE",
"-295 564 LINE SMOOTH",
"-151 564 OFFCURVE",
"-51 608 OFFCURVE",
"-51 724 CURVE SMOOTH",
"-51 807 OFFCURVE",
"-102 847 OFFCURVE",
"-171 847 CURVE SMOOTH",
"-208 847 OFFCURVE",
"-236 836 OFFCURVE",
"-257 823 CURVE",
"-255 773 LINE",
"-238 787 OFFCURVE",
"-215 798 OFFCURVE",
"-187 798 CURVE SMOOTH",
"-146 798 OFFCURVE",
"-113 775 OFFCURVE",
"-113 721 CURVE SMOOTH",
"-113 641 OFFCURVE",
"-186 612 OFFCURVE",
"-310 612 CURVE SMOOTH",
"-481 612 LINE"
);
},
{
closed = 1;
nodes = (
"-419 660 LINE",
"-419 932 LINE",
"-315 932 LINE",
"-315 660 LINE",
"-253 660 LINE",
"-253 932 LINE",
"-148 932 LINE",
"-148 980 LINE",
"-481 980 LINE",
"-481 660 LINE"
);
}
);
width = 0;
}
);
unicode = 11372;
},
{
glyphname = vicomb_gran;
lastChange = "2018-09-18 15:39:45 +0000";
layers = (
{
layerId = "229B7033-F00A-4676-AEB9-BF59C6456AE0";
paths = (
{
closed = 1;
nodes = (
"-292 681 LINE",
"-439 681 LINE",
"-422 709 OFFCURVE",
"-410 760 OFFCURVE",
"-410 803 CURVE SMOOTH",
"-410 904 OFFCURVE",
"-477 983 OFFCURVE",
"-593 983 CURVE SMOOTH",
"-708 983 OFFCURVE",
"-790 907 OFFCURVE",
"-790 779 CURVE SMOOTH",
"-790 671 OFFCURVE",
"-735 626 OFFCURVE",
"-661 626 CURVE SMOOTH",
"-596 626 OFFCURVE",
"-546 665 OFFCURVE",
"-546 732 CURVE SMOOTH",
"-546 792 OFFCURVE",
"-596 830 OFFCURVE",
"-653 830 CURVE SMOOTH",
"-692 830 OFFCURVE",
"-730 810 OFFCURVE",
"-754 782 CURVE",
"-745 737 LINE",
"-722 763 OFFCURVE",
"-694 782 OFFCURVE",
"-662 782 CURVE SMOOTH",
"-629 782 OFFCURVE",
"-606 760 OFFCURVE",
"-606 726 CURVE SMOOTH",
"-606 695 OFFCURVE",
"-627 674 OFFCURVE",
"-659 674 CURVE SMOOTH",
"-698 674 OFFCURVE",
"-728 702 OFFCURVE",
"-728 775 CURVE SMOOTH",
"-728 863 OFFCURVE",
"-678 935 OFFCURVE",
"-594 935 CURVE SMOOTH",
"-520 935 OFFCURVE",
"-472 880 OFFCURVE",
"-472 792 CURVE SMOOTH",
"-472 740 OFFCURVE",
"-485 702 OFFCURVE",
"-503 671 CURVE",
"-501 633 LINE",
"-230 633 LINE",
"-230 923 LINE",
"-258 940 OFFCURVE",
"-297 972 OFFCURVE",
"-297 1016 CURVE SMOOTH",
"-297 1055 OFFCURVE",
"-266 1086 OFFCURVE",
"-206 1086 CURVE SMOOTH",
"-118 1086 OFFCURVE",
"-102 1012 OFFCURVE",
"-102 956 CURVE SMOOTH",
"-102 633 LINE",
"-40 633 LINE",
"-40 955 LINE SMOOTH",
"-40 1053 OFFCURVE",
"-92 1134 OFFCURVE",
"-208 1134 CURVE SMOOTH",
"-290 1134 OFFCURVE",
"-359 1087 OFFCURVE",
"-359 1013 CURVE SMOOTH",
"-359 972 OFFCURVE",
"-337 927 OFFCURVE",
"-292 903 CURVE"
);
}
);
width = 0;
}
);
unicode = 11373;
},
{
glyphname = pacomb_gran;
lastChange = "2018-09-18 15:39:45 +0000";
layers = (
{
layerId = "229B7033-F00A-4676-AEB9-BF59C6456AE0";
paths = (
{
closed = 1;
nodes = (
"-77 633 LINE",
"-77 972 LINE",
"-139 972 LINE",
"-139 681 LINE",
"-335 681 LINE",
"-335 972 LINE",
"-397 972 LINE",
"-397 633 LINE"
);
}
);
width = 0;
}
);
unicode = 11374;
},
{
glyphname = zero_tamil;
lastChange = "2018-09-18 15:38:24 +0000";
layers = (
{
layerId = "229B7033-F00A-4676-AEB9-BF59C6456AE0";
paths = (
{
closed = 1;
nodes = (
"484 -12 OFFCURVE",
"591 105 OFFCURVE",
"591 279 CURVE SMOOTH",
"591 432 OFFCURVE",
"500 566 OFFCURVE",
"326 566 CURVE SMOOTH",
"168 566 OFFCURVE",
"59 454 OFFCURVE",
"59 279 CURVE SMOOTH",
"59 103 OFFCURVE",
"167 -12 OFFCURVE",
"327 -12 CURVE SMOOTH"
);
},
{
closed = 1;
nodes = (
"435 493 OFFCURVE",
"502 411 OFFCURVE",
"502 278 CURVE SMOOTH",
"502 142 OFFCURVE",
"435 61 OFFCURVE",
"325 61 CURVE SMOOTH",
"212 61 OFFCURVE",
"148 146 OFFCURVE",
"148 278 CURVE SMOOTH",
"148 410 OFFCURVE",
"213 493 OFFCURVE",
"326 493 CURVE SMOOTH"
);
}
);
width = 650;
}
);
unicode = 0BE6;
},
{
glyphname = one_tamil;
lastChange = "2018-09-18 15:38:24 +0000";
layers = (
{
layerId = "229B7033-F00A-4676-AEB9-BF59C6456AE0";
paths = (
{
closed = 1;
nodes = (
"345 -12 OFFCURVE",
"411 6 OFFCURVE",
"452 57 CURVE SMOOTH",
"480 91 OFFCURVE",
"496 136 OFFCURVE",
"496 226 CURVE SMOOTH",
"496 482 LINE",
"683 482 LINE",
"683 554 LINE",
"160 554 LINE",
"160 286 LINE",
"239 302 LINE",
"239 482 LINE",
"411 482 LINE",
"411 213 LINE SMOOTH",
"411 93 OFFCURVE",
"356 60 OFFCURVE",
"269 60 CURVE SMOOTH",
"192 60 OFFCURVE",
"135 91 OFFCURVE",
"135 153 CURVE SMOOTH",
"135 191 OFFCURVE",
"149 215 OFFCURVE",
"178 232 CURVE SMOOTH",
"211 251 OFFCURVE",
"257 258 OFFCURVE",
"325 258 CURVE SMOOTH",
"519 258 LINE SMOOTH",
"602 258 OFFCURVE",
"690 247 OFFCURVE",
"690 156 CURVE SMOOTH",
"690 92 OFFCURVE",
"657 62 OFFCURVE",
"594 62 CURVE SMOOTH",
"568 62 OFFCURVE",
"541 66 OFFCURVE",
"521 72 CURVE",
"502 5 LINE",
"533 -4 OFFCURVE",
"571 -8 OFFCURVE",
"602 -8 CURVE SMOOTH",
"713 -8 OFFCURVE",
"776 50 OFFCURVE",
"776 152 CURVE SMOOTH",
"776 208 OFFCURVE",
"755 252 OFFCURVE",
"720 279 CURVE SMOOTH",
"674 314 OFFCURVE",
"616 328 OFFCURVE",
"512 328 CURVE SMOOTH",
"332 328 LINE SMOOTH",
"129 328 OFFCURVE",
"49 260 OFFCURVE",
"49 152 CURVE SMOOTH",
"49 47 OFFCURVE",
"140 -12 OFFCURVE",
"261 -12 CURVE SMOOTH"
);
}
);
width = 825;
}
);
unicode = 0BE7;
},
{
glyphname = two_tamil;
lastChange = "2018-09-18 15:38:24 +0000";
layers = (
{
layerId = "229B7033-F00A-4676-AEB9-BF59C6456AE0";
paths = (
{
closed = 1;
nodes = (
"162 566 OFFCURVE",
"71 486 OFFCURVE",
"71 362 CURVE SMOOTH",
"71 282 OFFCURVE",
"122 202 OFFCURVE",
"223 148 CURVE",
"290 183 LINE",
"209 221 OFFCURVE",
"158 289 OFFCURVE",
"158 362 CURVE SMOOTH",
"158 443 OFFCURVE",
"216 493 OFFCURVE",
"328 493 CURVE SMOOTH",
"443 493 OFFCURVE",
"516 432 OFFCURVE",
"516 349 CURVE SMOOTH",
"516 284 OFFCURVE",
"484 222 OFFCURVE",
"302 205 CURVE SMOOTH",
"226 198 LINE SMOOTH",
"106 187 OFFCURVE",
"62 154 OFFCURVE",
"62 94 CURVE SMOOTH",
"62 41 OFFCURVE",
"97 0 OFFCURVE",
"191 0 CURVE SMOOTH",
"1050 0 LINE",
"1050 72 LINE",
"182 72 LINE SMOOTH",
"156 72 OFFCURVE",
"146 79 OFFCURVE",
"146 95 CURVE SMOOTH",
"146 112 OFFCURVE",
"156 120 OFFCURVE",
"229 127 CURVE SMOOTH",
"309 135 LINE SMOOTH",
"483 153 OFFCURVE",
"602 193 OFFCURVE",
"602 349 CURVE SMOOTH",
"602 467 OFFCURVE",
"511 566 OFFCURVE",
"323 566 CURVE SMOOTH"
);
}
);
width = 1067;
}
);
unicode = 0BE8;
},
{
glyphname = three_tamil;
lastChange = "2018-09-18 15:38:24 +0000";
layers = (
{
layerId = "229B7033-F00A-4676-AEB9-BF59C6456AE0";
paths = (
{
closed = 1;
nodes = (
"174 0 LINE",
"174 482 LINE",
"344 482 LINE",
"344 144 LINE",
"430 144 LINE",
"430 246 LINE",
"459 269 OFFCURVE",
"500 289 OFFCURVE",
"543 289 CURVE SMOOTH",
"595 289 OFFCURVE",
"632 263 OFFCURVE",
"632 192 CURVE SMOOTH",
"632 146 OFFCURVE",
"617 105 OFFCURVE",
"595 72 CURVE",
"344 72 LINE",
"344 0 LINE",
"968 0 LINE",
"968 72 LINE",
"682 72 LINE",
"703 108 OFFCURVE",
"718 153 OFFCURVE",
"718 201 CURVE SMOOTH",
"718 302 OFFCURVE",
"658 362 OFFCURVE",
"558 362 CURVE SMOOTH",
"499 362 OFFCURVE",
"456 340 OFFCURVE",
"430 324 CURVE",
"430 482 LINE",
"604 482 LINE",
"604 554 LINE",
"88 554 LINE",
"88 0 LINE"
);
}
);
width = 985;
}
);
unicode = 0BE9;
},
{
glyphname = four_tamil;
lastChange = "2018-09-18 15:38:24 +0000";
layers = (
{
layerId = "229B7033-F00A-4676-AEB9-BF59C6456AE0";
paths = (
{
closed = 1;
nodes = (
"345 -12 OFFCURVE",
"411 6 OFFCURVE",
"452 57 CURVE SMOOTH",
"480 91 OFFCURVE",
"496 137 OFFCURVE",
"496 226 CURVE SMOOTH",
"496 482 LINE",
"663 482 LINE",
"663 554 LINE",
"160 554 LINE",
"160 286 LINE",
"239 302 LINE",
"239 482 LINE",
"411 482 LINE",
"411 213 LINE SMOOTH",
"411 94 OFFCURVE",
"356 60 OFFCURVE",
"269 60 CURVE SMOOTH",
"192 60 OFFCURVE",
"135 91 OFFCURVE",
"135 153 CURVE SMOOTH",
"135 191 OFFCURVE",
"149 215 OFFCURVE",
"178 232 CURVE SMOOTH",
"211 251 OFFCURVE",
"261 258 OFFCURVE",
"325 258 CURVE SMOOTH",
"724 258 LINE",
"724 328 LINE",
"332 328 LINE SMOOTH",
"129 328 OFFCURVE",
"49 259 OFFCURVE",
"49 152 CURVE SMOOTH",
"49 47 OFFCURVE",
"140 -12 OFFCURVE",
"261 -12 CURVE SMOOTH"
);
},
{
closed = 1;
nodes = (
"863 258 LINE",
"863 554 LINE",
"777 554 LINE",
"777 328 LINE",
"698 328 LINE",
"698 258 LINE"
);
}
);
width = 941;
}
);
unicode = 0BEA;
},
{
glyphname = five_tamil;
lastChange = "2018-09-18 15:38:24 +0000";
layers = (
{
layerId = "229B7033-F00A-4676-AEB9-BF59C6456AE0";
paths = (
{
closed = 1;
nodes = (
"570 -321 LINE",
"795 -321 OFFCURVE",
"1002 -198 OFFCURVE",
"1002 84 CURVE SMOOTH",
"1002 228 OFFCURVE",
"928 319 OFFCURVE",
"820 319 CURVE SMOOTH",
"771 319 OFFCURVE",
"733 302 OFFCURVE",
"708 284 CURVE",
"708 211 LINE",
"735 229 OFFCURVE",
"768 247 OFFCURVE",
"805 247 CURVE SMOOTH",
"875 247 OFFCURVE",
"914 190 OFFCURVE",
"914 84 CURVE SMOOTH",
"914 -138 OFFCURVE",
"773 -244 OFFCURVE",
"570 -244 CURVE SMOOTH",
"559 -244 LINE SMOOTH",
"277 -244 OFFCURVE",
"154 -41 OFFCURVE",
"154 244 CURVE SMOOTH",
"154 256 LINE SMOOTH",
"154 596 OFFCURVE",
"348 768 OFFCURVE",
"583 768 CURVE SMOOTH",
"741 768 OFFCURVE",
"846 716 OFFCURVE",
"939 652 CURVE",
"985 724 LINE",
"873 790 OFFCURVE",
"760 843 OFFCURVE",
"587 843 CURVE SMOOTH",
"207 843 OFFCURVE",
"68 523 OFFCURVE",
"68 279 CURVE SMOOTH",
"68 231 LINE SMOOTH",
"68 -73 OFFCURVE",
"217 -321 OFFCURVE",
"559 -321 CURVE SMOOTH"
);
},
{
closed = 1;
nodes = (
"447 0 LINE",
"447 482 LINE",
"622 482 LINE",
"622 0 LINE",
"708 0 LINE",
"708 482 LINE",
"883 482 LINE",
"883 554 LINE",
"361 554 LINE",
"361 0 LINE"
);
}
);
width = 1051;
}
);
unicode = 0BEB;
},
{
glyphname = six_tamil;
lastChange = "2018-09-18 15:38:24 +0000";
layers = (
{
layerId = "229B7033-F00A-4676-AEB9-BF59C6456AE0";
paths = (
{
closed = 1;
nodes = (
"345 -12 OFFCURVE",
"411 6 OFFCURVE",
"452 57 CURVE SMOOTH",
"480 91 OFFCURVE",
"496 137 OFFCURVE",
"496 226 CURVE SMOOTH",
"496 482 LINE",
"683 482 LINE",
"683 554 LINE",
"160 554 LINE",
"160 286 LINE",
"239 302 LINE",
"239 482 LINE",
"411 482 LINE",
"411 213 LINE SMOOTH",
"411 94 OFFCURVE",
"356 60 OFFCURVE",
"269 60 CURVE SMOOTH",
"192 60 OFFCURVE",
"135 91 OFFCURVE",
"135 153 CURVE SMOOTH",
"135 191 OFFCURVE",
"149 215 OFFCURVE",
"178 232 CURVE SMOOTH",
"211 251 OFFCURVE",
"257 258 OFFCURVE",
"325 258 CURVE SMOOTH",
"985 258 LINE",
"985 328 LINE",
"332 328 LINE SMOOTH",
"129 328 OFFCURVE",
"49 259 OFFCURVE",
"49 152 CURVE SMOOTH",
"49 47 OFFCURVE",
"140 -12 OFFCURVE",
"261 -12 CURVE SMOOTH"
);
},
{
closed = 1;
nodes = (
"696 0 LINE",
"696 267 LINE",
"615 275 LINE",
"615 0 LINE"
);
},
{
closed = 1;
nodes = (
"896 0 LINE",
"896 267 LINE",
"815 275 LINE",
"815 0 LINE"
);
}
);
width = 1006;
}
);
unicode = 0BEC;
},
{
glyphname = seven_tamil;
lastChange = "2018-09-18 15:38:24 +0000";
layers = (
{
layerId = "229B7033-F00A-4676-AEB9-BF59C6456AE0";
paths = (
{
closed = 1;
nodes = (
"356 -12 OFFCURVE",
"422 54 OFFCURVE",
"422 165 CURVE SMOOTH",
"422 265 OFFCURVE",
"357 328 OFFCURVE",
"261 328 CURVE SMOOTH",
"195 328 OFFCURVE",
"133 295 OFFCURVE",
"93 248 CURVE",
"108 184 LINE",
"147 227 OFFCURVE",
"194 258 OFFCURVE",
"247 258 CURVE SMOOTH",
"302 258 OFFCURVE",
"340 221 OFFCURVE",
"340 155 CURVE SMOOTH",
"340 91 OFFCURVE",
"307 56 OFFCURVE",
"253 56 CURVE SMOOTH",
"187 56 OFFCURVE",
"136 103 OFFCURVE",
"136 232 CURVE SMOOTH",
"136 313 OFFCURVE",
"163 378 OFFCURVE",
"214 423 CURVE SMOOTH",
"254 458 OFFCURVE",
"310 482 OFFCURVE",
"439 482 CURVE SMOOTH",
"508 482 LINE",
"508 554 LINE",
"451 554 LINE SMOOTH",
"301 554 OFFCURVE",
"213 525 OFFCURVE",
"150 468 CURVE SMOOTH",
"93 417 OFFCURVE",
"57 341 OFFCURVE",
"57 239 CURVE SMOOTH",
"57 63 OFFCURVE",
"142 -12 OFFCURVE",
"249 -12 CURVE SMOOTH"
);
},
{
closed = 1;
nodes = (
"614 0 LINE",
"614 482 LINE",
"784 482 LINE",
"784 554 LINE",
"494 554 LINE",
"492 482 LINE",
"528 482 LINE",
"528 0 LINE"
);
}
);
width = 801;
}
);
unicode = 0BED;
},
{
glyphname = eight_tamil;
lastChange = "2018-09-18 15:38:24 +0000";
layers = (
{
layerId = "229B7033-F00A-4676-AEB9-BF59C6456AE0";
paths = (
{
closed = 1;
nodes = (
"340 -124 LINE",
"565 -124 OFFCURVE",
"742 -36 OFFCURVE",
"799 128 CURVE",
"804 150 LINE",
"813 182 OFFCURVE",
"816 215 OFFCURVE",
"816 252 CURVE SMOOTH",
"816 422 OFFCURVE",
"714 566 OFFCURVE",
"523 566 CURVE SMOOTH",
"381 566 OFFCURVE",
"297 485 OFFCURVE",
"297 366 CURVE SMOOTH",
"297 251 OFFCURVE",
"379 172 OFFCURVE",
"471 112 CURVE",
"521 159 LINE",
"452 202 OFFCURVE",
"385 270 OFFCURVE",
"385 362 CURVE SMOOTH",
"385 453 OFFCURVE",
"448 493 OFFCURVE",
"522 493 CURVE SMOOTH",
"647 493 OFFCURVE",
"730 392 OFFCURVE",
"730 251 CURVE SMOOTH",
"730 217 OFFCURVE",
"726 183 OFFCURVE",
"713 150 CURVE",
"710 130 LINE",
"662 26 OFFCURVE",
"545 -51 OFFCURVE",
"344 -51 CURVE SMOOTH",
"327 -51 LINE SMOOTH",
"184 -51 OFFCURVE",
"114 -9 OFFCURVE",
"114 56 CURVE SMOOTH",
"114 71 OFFCURVE",
"120 83 OFFCURVE",
"129 90 CURVE SMOOTH",
"144 101 OFFCURVE",
"154 104 OFFCURVE",
"217 104 CURVE SMOOTH",
"956 104 LINE",
"953 176 LINE",
"206 176 LINE SMOOTH",
"125 176 OFFCURVE",
"99 166 OFFCURVE",
"74 149 CURVE SMOOTH",
"43 128 OFFCURVE",
"29 93 OFFCURVE",
"29 60 CURVE SMOOTH",
"29 -48 OFFCURVE",
"127 -124 OFFCURVE",
"321 -124 CURVE SMOOTH"
);
},
{
closed = 1;
nodes = (
"1033 -154 LINE",
"1033 554 LINE",
"947 554 LINE",
"947 -154 LINE"
);
}
);
width = 1121;
}
);
unicode = 0BEE;
},
{
glyphname = nine_tamil;
lastChange = "2018-09-18 15:38:24 +0000";
layers = (
{
layerId = "229B7033-F00A-4676-AEB9-BF59C6456AE0";
paths = (
{
closed = 1;
nodes = (
"345 -12 OFFCURVE",
"411 6 OFFCURVE",
"452 57 CURVE SMOOTH",
"480 91 OFFCURVE",
"496 137 OFFCURVE",
"496 226 CURVE SMOOTH",
"496 482 LINE",
"683 482 LINE",
"683 554 LINE",
"160 554 LINE",
"160 286 LINE",
"239 302 LINE",
"239 482 LINE",
"411 482 LINE",
"411 213 LINE SMOOTH",
"411 94 OFFCURVE",
"356 60 OFFCURVE",
"269 60 CURVE SMOOTH",
"192 60 OFFCURVE",
"135 91 OFFCURVE",
"135 153 CURVE SMOOTH",
"135 191 OFFCURVE",
"149 215 OFFCURVE",
"178 232 CURVE SMOOTH",
"211 251 OFFCURVE",
"257 258 OFFCURVE",
"325 258 CURVE SMOOTH",
"582 258 LINE",
"586 328 LINE",
"332 328 LINE SMOOTH",
"129 328 OFFCURVE",
"49 259 OFFCURVE",
"49 152 CURVE SMOOTH",
"49 47 OFFCURVE",
"140 -12 OFFCURVE",
"261 -12 CURVE SMOOTH"
);
},
{
closed = 1;
nodes = (
"865 -12 OFFCURVE",
"908 50 OFFCURVE",
"908 140 CURVE SMOOTH",
"908 250 OFFCURVE",
"827 305 OFFCURVE",
"723 318 CURVE",
"718 324 LINE",
"697 327 OFFCURVE",
"681 328 OFFCURVE",
"661 328 CURVE SMOOTH",
"567 328 LINE",
"566 258 LINE",
"685 258 LINE SMOOTH",
"753 258 OFFCURVE",
"831 225 OFFCURVE",
"831 137 CURVE SMOOTH",
"831 87 OFFCURVE",
"810 56 OFFCURVE",
"764 56 CURVE SMOOTH",
"714 56 OFFCURVE",
"679 81 OFFCURVE",
"679 145 CURVE SMOOTH",
"679 199 OFFCURVE",
"697 240 OFFCURVE",
"726 267 CURVE",
"731 278 LINE",
"766 307 OFFCURVE",
"812 316 OFFCURVE",
"865 316 CURVE SMOOTH",
"956 316 OFFCURVE",
"1020 268 OFFCURVE",
"1020 173 CURVE SMOOTH",
"1020 121 OFFCURVE",
"1005 78 OFFCURVE",
"971 31 CURVE",
"1040 -12 LINE",
"1082 50 OFFCURVE",
"1106 104 OFFCURVE",
"1106 179 CURVE SMOOTH",
"1106 296 OFFCURVE",
"1029 386 OFFCURVE",
"867 386 CURVE SMOOTH",
"770 386 OFFCURVE",
"687 344 OFFCURVE",
"641 276 CURVE",
"637 261 LINE",
"617 230 OFFCURVE",
"604 193 OFFCURVE",
"604 152 CURVE SMOOTH",
"604 35 OFFCURVE",
"678 -12 OFFCURVE",
"765 -12 CURVE SMOOTH"
);
}
);
width = 1155;
}
);
unicode = 0BEF;
},
{
glyphname = ten_tamil;
lastChange = "2018-09-18 15:38:24 +0000";
layers = (
{
layerId = "229B7033-F00A-4676-AEB9-BF59C6456AE0";
paths = (
{
closed = 1;
nodes = (
"335 -12 OFFCURVE",
"385 32 OFFCURVE",
"412 113 CURVE",
"389 107 LINE",
"410 41 OFFCURVE",
"473 -12 OFFCURVE",
"560 -12 CURVE SMOOTH",
"720 -12 OFFCURVE",
"807 117 OFFCURVE",
"807 390 CURVE SMOOTH",
"807 392 LINE SMOOTH",
"807 628 OFFCURVE",
"745 740 OFFCURVE",
"654 799 CURVE SMOOTH",
"603 832 OFFCURVE",
"544 843 OFFCURVE",
"489 843 CURVE SMOOTH",
"420 843 OFFCURVE",
"352 825 OFFCURVE",
"294 795 CURVE",
"319 724 LINE",
"361 747 OFFCURVE",
"419 768 OFFCURVE",
"481 768 CURVE SMOOTH",
"610 768 OFFCURVE",
"720 693 OFFCURVE",
"720 390 CURVE SMOOTH",
"720 140 OFFCURVE",
"655 60 OFFCURVE",
"559 60 CURVE SMOOTH",
"530 60 OFFCURVE",
"498 70 OFFCURVE",
"476 96 CURVE SMOOTH",
"449 127 OFFCURVE",
"440 165 OFFCURVE",
"440 236 CURVE SMOOTH",
"440 554 LINE",
"354 554 LINE",
"354 234 LINE SMOOTH",
"354 169 OFFCURVE",
"349 123 OFFCURVE",
"329 93 CURVE SMOOTH",
"316 73 OFFCURVE",
"295 60 OFFCURVE",
"264 60 CURVE SMOOTH",
"233 60 OFFCURVE",
"213 72 OFFCURVE",
"199 91 CURVE SMOOTH",
"178 121 OFFCURVE",
"174 168 OFFCURVE",
"174 227 CURVE SMOOTH",
"174 554 LINE",
"88 554 LINE",
"88 213 LINE SMOOTH",
"88 116 OFFCURVE",
"100 71 OFFCURVE",
"141 30 CURVE SMOOTH",
"169 2 OFFCURVE",
"207 -12 OFFCURVE",
"257 -12 CURVE SMOOTH"
);
}
);
width = 875;
}
);
unicode = 0BF0;
},
{
glyphname = onehundred_tamil;
lastChange = "2018-09-18 15:38:24 +0000";
layers = (
{
layerId = "229B7033-F00A-4676-AEB9-BF59C6456AE0";
paths = (
{
closed = 1;
nodes = (
"440 0 LINE",
"440 482 LINE",
"614 482 LINE",
"614 0 LINE",
"700 0 LINE",
"700 482 LINE",
"870 482 LINE",
"870 554 LINE",
"354 554 LINE",
"354 0 LINE"
);
},
{
closed = 1;
nodes = (
"191 565 OFFCURVE",
"153 549 OFFCURVE",
"129 518 CURVE SMOOTH",
"106 489 OFFCURVE",
"88 454 OFFCURVE",
"88 352 CURVE SMOOTH",
"88 0 LINE",
"174 0 LINE",
"174 331 LINE SMOOTH",
"174 393 OFFCURVE",
"175 445 OFFCURVE",
"202 472 CURVE SMOOTH",
"215 485 OFFCURVE",
"232 493 OFFCURVE",
"258 493 CURVE SMOOTH",
"297 493 OFFCURVE",
"331 474 OFFCURVE",
"360 429 CURVE",
"358 515 LINE",
"333 540 OFFCURVE",
"295 565 OFFCURVE",
"240 565 CURVE SMOOTH"
);
}
);
width = 887;
}
);
unicode = 0BF1;
},
{
glyphname = onethousand_tamil;
lastChange = "2018-09-18 15:38:24 +0000";
layers = (
{
layerId = "229B7033-F00A-4676-AEB9-BF59C6456AE0";
paths = (
{
closed = 1;
nodes = (
"768 174 OFFCURVE",
"741 164 OFFCURVE",
"707 145 CURVE",
"711 81 LINE",
"733 95 OFFCURVE",
"757 108 OFFCURVE",
"791 108 CURVE SMOOTH",
"848 108 OFFCURVE",
"869 64 OFFCURVE",
"869 26 CURVE SMOOTH",
"869 -7 OFFCURVE",
"861 -31 OFFCURVE",
"840 -49 CURVE SMOOTH",
"812 -73 OFFCURVE",
"770 -84 OFFCURVE",
"665 -84 CURVE SMOOTH",
"245 -84 LINE SMOOTH",
"178 -84 OFFCURVE",
"139 -94 OFFCURVE",
"104 -119 CURVE SMOOTH",
"70 -144 OFFCURVE",
"47 -184 OFFCURVE",
"47 -243 CURVE SMOOTH",
"47 -266 OFFCURVE",
"50 -297 OFFCURVE",
"54 -321 CURVE",
"136 -317 LINE",
"134 -301 OFFCURVE",
"133 -283 OFFCURVE",
"133 -263 CURVE SMOOTH",
"133 -219 OFFCURVE",
"145 -194 OFFCURVE",
"167 -179 CURVE SMOOTH",
"189 -164 OFFCURVE",
"216 -156 OFFCURVE",
"272 -156 CURVE SMOOTH",
"673 -156 LINE SMOOTH",
"778 -156 OFFCURVE",
"854 -143 OFFCURVE",
"903 -99 CURVE SMOOTH",
"935 -70 OFFCURVE",
"955 -29 OFFCURVE",
"955 33 CURVE SMOOTH",
"955 114 OFFCURVE",
"896 174 OFFCURVE",
"817 174 CURVE SMOOTH"
);
},
{
closed = 1;
nodes = (
"345 -12 OFFCURVE",
"411 6 OFFCURVE",
"452 57 CURVE SMOOTH",
"480 91 OFFCURVE",
"496 137 OFFCURVE",
"496 226 CURVE SMOOTH",
"496 482 LINE",
"683 482 LINE",
"683 554 LINE",
"160 554 LINE",
"160 286 LINE",
"239 302 LINE",
"239 482 LINE",
"411 482 LINE",
"411 213 LINE SMOOTH",
"411 94 OFFCURVE",
"356 60 OFFCURVE",
"269 60 CURVE SMOOTH",
"192 60 OFFCURVE",
"135 91 OFFCURVE",
"135 153 CURVE SMOOTH",
"135 191 OFFCURVE",
"149 215 OFFCURVE",
"178 232 CURVE SMOOTH",
"211 251 OFFCURVE",
"257 258 OFFCURVE",
"325 258 CURVE SMOOTH",
"843 258 LINE",
"843 328 LINE",
"332 328 LINE SMOOTH",
"129 328 OFFCURVE",
"49 259 OFFCURVE",
"49 152 CURVE SMOOTH",
"49 47 OFFCURVE",
"140 -12 OFFCURVE",
"261 -12 CURVE SMOOTH"
);
},
{
closed = 1;
nodes = (
"714 0 LINE",
"714 267 LINE",
"632 275 LINE",
"632 0 LINE"
);
}
);
width = 972;
}
);
unicode = 0BF2;
},
{
glyphname = danda_deva;
lastChange = "2018-09-18 15:38:24 +0000";
layers = (
{
layerId = "229B7033-F00A-4676-AEB9-BF59C6456AE0";
paths = (
{
closed = 1;
nodes = (
"194 0 LINE",
"280 0 LINE",
"280 622 LINE",
"194 622 LINE"
);
}
);
width = 379;
}
);
unicode = 0964;
},
{
glyphname = dbldanda_deva;
lastChange = "2018-09-18 15:38:24 +0000";
layers = (
{
layerId = "229B7033-F00A-4676-AEB9-BF59C6456AE0";
paths = (
{
closed = 1;
nodes = (
"414 0 LINE",
"500 0 LINE",
"500 622 LINE",
"414 622 LINE"
);
},
{
closed = 1;
nodes = (
"194 0 LINE",
"280 0 LINE",
"280 622 LINE",
"194 622 LINE"
);
}
);
width = 599;
}
);
unicode = 0965;
},
{
glyphname = asteriskabovecomb;
lastChange = "2018-09-18 15:39:08 +0000";
layers = (
{
layerId = "229B7033-F00A-4676-AEB9-BF59C6456AE0";
paths = (
{
closed = 1;
nodes = (
"-152 812 LINE",
"-214 846 LINE",
"-236 780 LINE",
"-166 770 LINE",
"-217 722 LINE",
"-161 680 LINE",
"-130 744 LINE",
"-99 680 LINE",
"-43 722 LINE",
"-94 770 LINE",
"-24 780 LINE",
"-46 846 LINE",
"-108 812 LINE",
"-95 882 LINE",
"-165 882 LINE"
);
}
);
width = 0;
}
);
unicode = 20F0;
},
{
glyphname = udatta_deva;
lastChange = "2018-09-18 15:39:08 +0000";
layers = (
{
layerId = "229B7033-F00A-4676-AEB9-BF59C6456AE0";
paths = (
{
closed = 1;
nodes = (
"-92 921 LINE",
"-168 921 LINE",
"-168 671 LINE",
"-92 671 LINE"
);
}
);
width = 0;
}
);
unicode = 0951;
},
{
glyphname = anudatta_deva;
lastChange = "2018-09-18 15:38:44 +0000";
layers = (
{
layerId = "229B7033-F00A-4676-AEB9-BF59C6456AE0";
paths = (
{
closed = 1;
nodes = (
"-413 -149 LINE",
"-84 -149 LINE",
"-84 -77 LINE",
"-413 -77 LINE"
);
}
);
width = 0;
}
);
unicode = 0952;
},
{
glyphname = karshana_vedic;
lastChange = "2018-09-18 15:39:08 +0000";
layers = (
{
layerId = "229B7033-F00A-4676-AEB9-BF59C6456AE0";
paths = (
{
closed = 1;
nodes = (
"-311 624 LINE",
"-198 837 LINE",
"-71 624 LINE",
"-12 651 LINE",
"-166 898 LINE",
"-237 898 LINE",
"-375 649 LINE"
);
}
);
width = 0;
}
);
unicode = 1CD0;
},
{
glyphname = prenkha_vedic;
lastChange = "2018-09-18 15:39:08 +0000";
layers = (
{
layerId = "229B7033-F00A-4676-AEB9-BF59C6456AE0";
paths = (
{
closed = 1;
nodes = (
"-361 636 LINE",
"-28 636 LINE",
"-28 703 LINE",
"-361 703 LINE"
);
}
);
width = 0;
}
);
unicode = 1CD2;
},
{
glyphname = nihshvasa_vedic;
lastChange = "2018-09-18 15:39:08 +0000";
layers = (
{
layerId = "229B7033-F00A-4676-AEB9-BF59C6456AE0";
paths = (
{
closed = 1;
nodes = (
"-166 667 LINE",
"-98 667 LINE",
"-68 904 LINE",
"-137 904 LINE"
);
},
{
closed = 1;
nodes = (
"-290 667 LINE",
"-222 667 LINE",
"-193 904 LINE",
"-261 904 LINE"
);
}
);
width = 0;
}
);
unicode = 1CD3;
category = Mark;
subCategory = Nonspacing;
},
{
glyphname = ardhavisarga_vedic;
lastChange = "2018-09-18 15:38:24 +0000";
layers = (
{
layerId = "229B7033-F00A-4676-AEB9-BF59C6456AE0";
paths = (
{
closed = 1;
nodes = (
"395 545 LINE",
"373 455 OFFCURVE",
"339 405 OFFCURVE",
"263 405 CURVE SMOOTH",
"187 405 OFFCURVE",
"153 455 OFFCURVE",
"131 545 CURVE",
"55 529 LINE",
"86 385 OFFCURVE",
"173 336 OFFCURVE",
"263 336 CURVE SMOOTH",
"353 336 OFFCURVE",
"440 385 OFFCURVE",
"471 529 CURVE"
);
},
{
closed = 1;
nodes = (
"440 169 OFFCURVE",
"353 218 OFFCURVE",
"263 218 CURVE SMOOTH",
"173 218 OFFCURVE",
"86 169 OFFCURVE",
"55 25 CURVE",
"131 9 LINE",
"153 99 OFFCURVE",
"187 149 OFFCURVE",
"263 149 CURVE SMOOTH",
"339 149 OFFCURVE",
"373 99 OFFCURVE",
"395 9 CURVE",
"471 25 LINE"
);
}
);
width = 521;
}
);
unicode = 1CF2;
},
{
glyphname = rotatedArdhavisarga_vedic;
lastChange = "2018-09-18 15:38:24 +0000";
layers = (
{
layerId = "229B7033-F00A-4676-AEB9-BF59C6456AE0";
paths = (
{
closed = 1;
nodes = (
"522 104 LINE",
"462 132 OFFCURVE",
"419 194 OFFCURVE",
"419 270 CURVE SMOOTH",
"419 352 OFFCURVE",
"469 418 OFFCURVE",
"537 441 CURVE",
"502 495 LINE",
"408 462 OFFCURVE",
"348 376 OFFCURVE",
"348 270 CURVE SMOOTH",
"348 170 OFFCURVE",
"401 87 OFFCURVE",
"487 50 CURVE"
);
},
{
closed = 1;
nodes = (
"234 87 OFFCURVE",
"287 170 OFFCURVE",
"287 270 CURVE SMOOTH",
"287 376 OFFCURVE",
"227 462 OFFCURVE",
"133 495 CURVE",
"98 441 LINE",
"166 418 OFFCURVE",
"216 352 OFFCURVE",
"216 270 CURVE SMOOTH",
"216 194 OFFCURVE",
"173 132 OFFCURVE",
"113 104 CURVE",
"148 50 LINE"
);
}
);
width = 635;
}
);
unicode = 1CF3;
},
{
glyphname = tonecandraabove_vedic;
lastChange = "2018-09-18 15:39:08 +0000";
layers = (
{
layerId = "229B7033-F00A-4676-AEB9-BF59C6456AE0";
paths = (
{
closed = 1;
nodes = (
"-3 899 LINE",
"-25 799 OFFCURVE",
"-59 749 OFFCURVE",
"-135 749 CURVE SMOOTH",
"-211 749 OFFCURVE",
"-245 799 OFFCURVE",
"-267 899 CURVE",
"-343 893 LINE",
"-312 729 OFFCURVE",
"-225 680 OFFCURVE",
"-135 680 CURVE SMOOTH",
"-45 680 OFFCURVE",
"42 729 OFFCURVE",
"73 893 CURVE"
);
}
);
width = 0;
}
);
unicode = 1CF4;
},
{
glyphname = pa_tamil;
lastChange = "2018-09-18 15:38:24 +0000";
layers = (
{
layerId = "229B7033-F00A-4676-AEB9-BF59C6456AE0";
paths = (
{
closed = 1;
nodes = (
"690 0 LINE",
"690 554 LINE",
"604 554 LINE",
"604 72 LINE",
"174 72 LINE",
"174 554 LINE",
"88 554 LINE",
"88 0 LINE"
);
}
);
width = 778;
}
);
unicode = 0BAA;
},
{
glyphname = va_tamil;
lastChange = "2018-09-18 15:38:24 +0000";
layers = (
{
layerId = "229B7033-F00A-4676-AEB9-BF59C6456AE0";
paths = (
{
closed = 1;
nodes = (
"356 -12 OFFCURVE",
"422 54 OFFCURVE",
"422 165 CURVE SMOOTH",
"422 265 OFFCURVE",
"357 328 OFFCURVE",
"261 328 CURVE SMOOTH",
"196 328 OFFCURVE",
"133 295 OFFCURVE",
"93 248 CURVE",
"108 184 LINE",
"147 227 OFFCURVE",
"194 258 OFFCURVE",
"247 258 CURVE SMOOTH",
"302 258 OFFCURVE",
"340 221 OFFCURVE",
"340 155 CURVE SMOOTH",
"340 91 OFFCURVE",
"305 56 OFFCURVE",
"253 56 CURVE SMOOTH",
"187 56 OFFCURVE",
"136 103 OFFCURVE",
"136 237 CURVE SMOOTH",
"136 383 OFFCURVE",
"220 492 OFFCURVE",
"360 492 CURVE SMOOTH",
"484 492 OFFCURVE",
"563 411 OFFCURVE",
"563 269 CURVE SMOOTH",
"563 178 OFFCURVE",
"542 109 OFFCURVE",
"511 63 CURVE",
"515 0 LINE",
"956 0 LINE",
"956 554 LINE",
"870 554 LINE",
"870 72 LINE",
"603 72 LINE",
"630 131 OFFCURVE",
"651 194 OFFCURVE",
"651 280 CURVE SMOOTH",
"651 437 OFFCURVE",
"567 566 OFFCURVE",
"364 566 CURVE SMOOTH",
"199 566 OFFCURVE",
"57 457 OFFCURVE",
"57 243 CURVE SMOOTH",
"57 63 OFFCURVE",
"142 -12 OFFCURVE",
"249 -12 CURVE SMOOTH"
);
}
);
width = 1044;
}
);
unicode = 0BB5;
},
{
glyphname = ka_gran.below;
lastChange = "2018-09-18 15:39:24 +0000";
layers = (
{
layerId = "229B7033-F00A-4676-AEB9-BF59C6456AE0";
paths = (
{
closed = 1;
nodes = (
"-740 -353 OFFCURVE",
"-692 -319 OFFCURVE",
"-615 -319 CURVE SMOOTH",
"-300 -319 LINE SMOOTH",
"-177 -319 OFFCURVE",
"-73 -317 OFFCURVE",
"-73 -408 CURVE SMOOTH",
"-73 -457 OFFCURVE",
"-103 -487 OFFCURVE",
"-146 -487 CURVE SMOOTH",
"-189 -487 OFFCURVE",
"-211 -457 OFFCURVE",
"-211 -417 CURVE SMOOTH",
"-211 -375 OFFCURVE",
"-184 -344 OFFCURVE",
"-128 -328 CURVE",
"-182 -299 LINE",
"-250 -323 OFFCURVE",
"-283 -375 OFFCURVE",
"-283 -429 CURVE SMOOTH",
"-283 -500 OFFCURVE",
"-225 -553 OFFCURVE",
"-147 -553 CURVE SMOOTH",
"-75 -553 OFFCURVE",
"3 -513 OFFCURVE",
"3 -412 CURVE SMOOTH",
"3 -271 OFFCURVE",
"-144 -253 OFFCURVE",
"-289 -253 CURVE SMOOTH",
"-625 -253 LINE SMOOTH",
"-724 -253 OFFCURVE",
"-816 -314 OFFCURVE",
"-816 -422 CURVE SMOOTH",
"-816 -499 OFFCURVE",
"-770 -553 OFFCURVE",
"-696 -553 CURVE SMOOTH",
"-626 -553 OFFCURVE",
"-583 -507 OFFCURVE",
"-565 -454 CURVE",
"-582 -454 LINE",
"-560 -518 OFFCURVE",
"-527 -553 OFFCURVE",
"-466 -553 CURVE SMOOTH",
"-387 -553 OFFCURVE",
"-334 -491 OFFCURVE",
"-334 -385 CURVE SMOOTH",
"-334 -139 LINE",
"-192 -139 LINE",
"-192 -73 LINE",
"-679 -73 LINE",
"-679 -288 LINE",
"-603 -275 LINE",
"-603 -139 LINE",
"-410 -139 LINE",
"-410 -384 LINE SMOOTH",
"-410 -450 OFFCURVE",
"-428 -487 OFFCURVE",
"-472 -487 CURVE SMOOTH",
"-524 -487 OFFCURVE",
"-534 -434 OFFCURVE",
"-534 -401 CURVE SMOOTH",
"-534 -396 LINE",
"-610 -396 LINE",
"-610 -401 LINE SMOOTH",
"-610 -444 OFFCURVE",
"-637 -487 OFFCURVE",
"-679 -487 CURVE SMOOTH",
"-712 -487 OFFCURVE",
"-740 -461 OFFCURVE",
"-740 -414 CURVE SMOOTH"
);
}
);
width = 0;
}
);
script = gran;
category = Mark;
subCategory = Nonspacing;
},
{
glyphname = kha_gran.below;
lastChange = "2018-09-18 15:39:24 +0000";
layers = (
{
layerId = "229B7033-F00A-4676-AEB9-BF59C6456AE0";
paths = (
{
closed = 1;
nodes = (
"-110 -553 LINE",
"6 -553 LINE",
"6 -73 LINE",
"-70 -73 LINE",
"-70 -487 LINE",
"-110 -487 LINE"
);
},
{
closed = 1;
nodes = (
"-351 -303 OFFCURVE",
"-379 -333 OFFCURVE",
"-421 -366 CURVE SMOOTH",
"-454 -392 OFFCURVE",
"-495 -414 OFFCURVE",
"-495 -467 CURVE SMOOTH",
"-495 -531 OFFCURVE",
"-438 -553 OFFCURVE",
"-384 -553 CURVE SMOOTH",
"-248 -553 OFFCURVE",
"-231 -553 OFFCURVE",
"-95 -553 CURVE",
"-95 -487 LINE",
"-363 -487 LINE SMOOTH",
"-409 -487 OFFCURVE",
"-419 -471 OFFCURVE",
"-419 -458 CURVE SMOOTH",
"-419 -434 OFFCURVE",
"-381 -423 OFFCURVE",
"-343 -392 CURVE SMOOTH",
"-293 -352 OFFCURVE",
"-275 -303 OFFCURVE",
"-275 -260 CURVE SMOOTH",
"-275 -178 OFFCURVE",
"-353 -61 OFFCURVE",
"-591 -61 CURVE SMOOTH",
"-831 -61 OFFCURVE",
"-960 -182 OFFCURVE",
"-960 -343 CURVE SMOOTH",
"-960 -476 OFFCURVE",
"-888 -562 OFFCURVE",
"-776 -562 CURVE SMOOTH",
"-694 -562 OFFCURVE",
"-614 -512 OFFCURVE",
"-614 -415 CURVE SMOOTH",
"-614 -321 OFFCURVE",
"-683 -262 OFFCURVE",
"-762 -262 CURVE SMOOTH",
"-824 -262 OFFCURVE",
"-887 -295 OFFCURVE",
"-927 -352 CURVE",
"-912 -416 LINE",
"-873 -363 OFFCURVE",
"-832 -332 OFFCURVE",
"-779 -332 CURVE SMOOTH",
"-724 -332 OFFCURVE",
"-690 -366 OFFCURVE",
"-690 -413 CURVE SMOOTH",
"-690 -466 OFFCURVE",
"-736 -496 OFFCURVE",
"-781 -496 CURVE SMOOTH",
"-834 -496 OFFCURVE",
"-884 -457 OFFCURVE",
"-884 -323 CURVE SMOOTH",
"-884 -207 OFFCURVE",
"-790 -127 OFFCURVE",
"-598 -127 CURVE SMOOTH",
"-426 -127 OFFCURVE",
"-351 -192 OFFCURVE",
"-351 -259 CURVE SMOOTH"
);
}
);
width = 0;
}
);
script = gran;
category = Mark;
subCategory = Nonspacing;
},
{
glyphname = ga_gran.below;
lastChange = "2018-09-18 15:39:24 +0000";
layers = (
{
layerId = "229B7033-F00A-4676-AEB9-BF59C6456AE0";
paths = (
{
closed = 1;
nodes = (
"-354 -574 LINE SMOOTH",
"-101 -574 OFFCURVE",
"-77 -355 OFFCURVE",
"-77 -271 CURVE SMOOTH",
"-77 -152 OFFCURVE",
"-129 -63 OFFCURVE",
"-242 -63 CURVE SMOOTH",
"-365 -63 OFFCURVE",
"-417 -154 OFFCURVE",
"-417 -262 CURVE SMOOTH",
"-417 -272 LINE SMOOTH",
"-417 -333 OFFCURVE",
"-438 -389 OFFCURVE",
"-513 -389 CURVE SMOOTH",
"-598 -389 OFFCURVE",
"-616 -333 OFFCURVE",
"-616 -246 CURVE SMOOTH",
"-616 -93 LINE",
"-692 -93 LINE",
"-692 -259 LINE SMOOTH",
"-692 -370 OFFCURVE",
"-657 -455 OFFCURVE",
"-519 -455 CURVE SMOOTH",
"-394 -455 OFFCURVE",
"-341 -374 OFFCURVE",
"-341 -269 CURVE SMOOTH",
"-341 -253 LINE SMOOTH",
"-341 -204 OFFCURVE",
"-317 -129 OFFCURVE",
"-246 -129 CURVE SMOOTH",
"-174 -129 OFFCURVE",
"-153 -213 OFFCURVE",
"-153 -281 CURVE SMOOTH",
"-153 -343 OFFCURVE",
"-171 -508 OFFCURVE",
"-349 -508 CURVE SMOOTH",
"-564 -508 LINE SMOOTH",
"-620 -508 OFFCURVE",
"-653 -516 OFFCURVE",
"-682 -537 CURVE SMOOTH",
"-710 -558 OFFCURVE",
"-729 -591 OFFCURVE",
"-729 -640 CURVE SMOOTH",
"-729 -659 OFFCURVE",
"-727 -685 OFFCURVE",
"-723 -705 CURVE",
"-655 -702 LINE",
"-657 -688 OFFCURVE",
"-658 -673 OFFCURVE",
"-658 -657 CURVE SMOOTH",
"-658 -627 OFFCURVE",
"-648 -605 OFFCURVE",
"-629 -593 CURVE SMOOTH",
"-610 -581 OFFCURVE",
"-588 -574 OFFCURVE",
"-542 -574 CURVE SMOOTH"
);
}
);
width = 0;
}
);
script = gran;
category = Mark;
subCategory = Nonspacing;
},
{
glyphname = ga_gran.flat.below;
lastChange = "2018-09-18 15:39:24 +0000";
layers = (
{
layerId = "229B7033-F00A-4676-AEB9-BF59C6456AE0";
paths = (
{
closed = 1;
nodes = (
"-704 -574 LINE",
"-354 -574 LINE SMOOTH",
"-101 -574 OFFCURVE",
"-77 -355 OFFCURVE",
"-77 -271 CURVE SMOOTH",
"-77 -152 OFFCURVE",
"-129 -63 OFFCURVE",
"-242 -63 CURVE SMOOTH",
"-365 -63 OFFCURVE",
"-417 -154 OFFCURVE",
"-417 -262 CURVE SMOOTH",
"-417 -272 LINE SMOOTH",
"-417 -333 OFFCURVE",
"-438 -389 OFFCURVE",
"-513 -389 CURVE SMOOTH",
"-598 -389 OFFCURVE",
"-616 -333 OFFCURVE",
"-616 -246 CURVE SMOOTH",
"-616 -93 LINE",
"-692 -93 LINE",
"-692 -259 LINE SMOOTH",
"-692 -370 OFFCURVE",
"-657 -455 OFFCURVE",
"-519 -455 CURVE SMOOTH",
"-394 -455 OFFCURVE",
"-341 -374 OFFCURVE",
"-341 -269 CURVE SMOOTH",
"-341 -253 LINE SMOOTH",
"-341 -204 OFFCURVE",
"-317 -129 OFFCURVE",
"-246 -129 CURVE SMOOTH",
"-174 -129 OFFCURVE",
"-153 -213 OFFCURVE",
"-153 -281 CURVE SMOOTH",
"-153 -343 OFFCURVE",
"-171 -508 OFFCURVE",
"-349 -508 CURVE SMOOTH",
"-704 -508 LINE"
);
}
);
width = 0;
}
);
script = gran;
category = Mark;
subCategory = Nonspacing;
},
{
glyphname = gha_gran.below;
lastChange = "2018-09-18 15:39:24 +0000";
layers = (
{
layerId = "229B7033-F00A-4676-AEB9-BF59C6456AE0";
paths = (
{
closed = 1;
nodes = (
"-862 -563 OFFCURVE",
"-797 -497 OFFCURVE",
"-797 -410 CURVE SMOOTH",
"-797 -326 OFFCURVE",
"-857 -263 OFFCURVE",
"-943 -263 CURVE SMOOTH",
"-1008 -263 OFFCURVE",
"-1071 -296 OFFCURVE",
"-1111 -343 CURVE",
"-1096 -407 LINE",
"-1057 -364 OFFCURVE",
"-1010 -333 OFFCURVE",
"-964 -333 CURVE SMOOTH",
"-912 -333 OFFCURVE",
"-874 -370 OFFCURVE",
"-874 -416 CURVE SMOOTH",
"-874 -460 OFFCURVE",
"-909 -497 OFFCURVE",
"-958 -497 CURVE SMOOTH",
"-1017 -497 OFFCURVE",
"-1068 -448 OFFCURVE",
"-1068 -334 CURVE SMOOTH",
"-1068 -208 OFFCURVE",
"-984 -129 OFFCURVE",
"-844 -129 CURVE SMOOTH",
"-720 -129 OFFCURVE",
"-639 -205 OFFCURVE",
"-639 -311 CURVE SMOOTH",
"-639 -378 OFFCURVE",
"-662 -444 OFFCURVE",
"-693 -490 CURVE",
"-689 -553 LINE",
"-332 -553 LINE",
"-332 -73 LINE",
"-408 -73 LINE",
"-408 -487 LINE",
"-611 -487 LINE",
"-578 -428 OFFCURVE",
"-563 -356 OFFCURVE",
"-563 -298 CURVE SMOOTH",
"-563 -183 OFFCURVE",
"-637 -63 OFFCURVE",
"-840 -63 CURVE SMOOTH",
"-1005 -63 OFFCURVE",
"-1144 -154 OFFCURVE",
"-1144 -334 CURVE SMOOTH",
"-1144 -478 OFFCURVE",
"-1066 -563 OFFCURVE",
"-956 -563 CURVE SMOOTH"
);
},
{
closed = 1;
nodes = (
"-101 -553 LINE",
"-101 -73 LINE",
"-177 -73 LINE",
"-177 -487 LINE",
"-380 -487 LINE",
"-380 -553 LINE"
);
}
);
width = 0;
}
);
script = gran;
category = Mark;
subCategory = Nonspacing;
},
{
glyphname = nga_gran.below;
lastChange = "2018-09-18 15:39:24 +0000";
layers = (
{
layerId = "229B7033-F00A-4676-AEB9-BF59C6456AE0";
paths = (
{
closed = 1;
nodes = (
"-571 -690 LINE",
"-499 -690 LINE",
"-499 -565 LINE",
"-571 -565 LINE"
);
},
{
closed = 1;
nodes = (
"-781 -65 OFFCURVE",
"-860 -134 OFFCURVE",
"-860 -220 CURVE SMOOTH",
"-860 -295 OFFCURVE",
"-803 -342 OFFCURVE",
"-731 -342 CURVE SMOOTH",
"-652 -342 OFFCURVE",
"-614 -294 OFFCURVE",
"-614 -246 CURVE SMOOTH",
"-614 -197 OFFCURVE",
"-649 -158 OFFCURVE",
"-712 -158 CURVE SMOOTH",
"-767 -158 OFFCURVE",
"-794 -187 OFFCURVE",
"-814 -210 CURVE",
"-799 -246 LINE",
"-784 -224 OFFCURVE",
"-760 -198 OFFCURVE",
"-727 -198 CURVE SMOOTH",
"-696 -198 OFFCURVE",
"-682 -220 OFFCURVE",
"-682 -243 CURVE SMOOTH",
"-682 -267 OFFCURVE",
"-698 -289 OFFCURVE",
"-730 -289 CURVE SMOOTH",
"-764 -289 OFFCURVE",
"-783 -265 OFFCURVE",
"-783 -224 CURVE SMOOTH",
"-783 -144 OFFCURVE",
"-723 -127 OFFCURVE",
"-666 -127 CURVE SMOOTH",
"-592 -127 OFFCURVE",
"-558 -161 OFFCURVE",
"-558 -223 CURVE SMOOTH",
"-558 -296 LINE",
"-486 -296 LINE",
"-486 -229 LINE SMOOTH",
"-486 -178 OFFCURVE",
"-473 -127 OFFCURVE",
"-411 -127 CURVE SMOOTH",
"-348 -127 OFFCURVE",
"-329 -177 OFFCURVE",
"-329 -229 CURVE SMOOTH",
"-329 -327 OFFCURVE",
"-386 -381 OFFCURVE",
"-504 -381 CURVE SMOOTH",
"-709 -381 LINE SMOOTH",
"-791 -381 OFFCURVE",
"-840 -415 OFFCURVE",
"-840 -481 CURVE SMOOTH",
"-840 -562 OFFCURVE",
"-783 -583 OFFCURVE",
"-698 -583 CURVE SMOOTH",
"-252 -583 LINE",
"-252 -517 LINE",
"-695 -517 LINE SMOOTH",
"-739 -517 OFFCURVE",
"-769 -517 OFFCURVE",
"-769 -482 CURVE SMOOTH",
"-769 -454 OFFCURVE",
"-734 -447 OFFCURVE",
"-690 -447 CURVE SMOOTH",
"-497 -447 LINE SMOOTH",
"-335 -447 OFFCURVE",
"-253 -364 OFFCURVE",
"-253 -230 CURVE SMOOTH",
"-253 -121 OFFCURVE",
"-312 -65 OFFCURVE",
"-405 -65 CURVE SMOOTH",
"-458 -65 OFFCURVE",
"-500 -84 OFFCURVE",
"-528 -125 CURVE",
"-517 -127 LINE",
"-540 -90 OFFCURVE",
"-584 -65 OFFCURVE",
"-657 -65 CURVE SMOOTH"
);
}
);
width = 0;
}
);
script = gran;
category = Mark;
subCategory = Nonspacing;
},
{
glyphname = ca_gran.below;
lastChange = "2018-09-18 15:39:24 +0000";
layers = (
{
layerId = "229B7033-F00A-4676-AEB9-BF59C6456AE0";
paths = (
{
closed = 1;
nodes = (
"-902 -487 LINE",
"-902 -553 LINE",
"-122 -553 LINE",
"-122 -487 LINE"
);
},
{
closed = 1;
nodes = (
"-198 -540 LINE",
"-122 -540 LINE",
"-122 -81 LINE",
"-198 -81 LINE"
);
},
{
closed = 1;
nodes = (
"-685 -552 LINE",
"-490 -539 OFFCURVE",
"-393 -394 OFFCURVE",
"-393 -269 CURVE SMOOTH",
"-393 -174 OFFCURVE",
"-447 -70 OFFCURVE",
"-620 -70 CURVE SMOOTH",
"-741 -70 OFFCURVE",
"-829 -123 OFFCURVE",
"-829 -214 CURVE SMOOTH",
"-829 -288 OFFCURVE",
"-772 -336 OFFCURVE",
"-694 -336 CURVE SMOOTH",
"-610 -336 OFFCURVE",
"-555 -274 OFFCURVE",
"-555 -203 CURVE SMOOTH",
"-555 -157 OFFCURVE",
"-579 -126 OFFCURVE",
"-607 -102 CURVE",
"-665 -116 LINE",
"-638 -142 OFFCURVE",
"-628 -172 OFFCURVE",
"-628 -202 CURVE SMOOTH",
"-628 -249 OFFCURVE",
"-656 -270 OFFCURVE",
"-693 -270 CURVE SMOOTH",
"-734 -270 OFFCURVE",
"-753 -243 OFFCURVE",
"-753 -210 CURVE SMOOTH",
"-753 -160 OFFCURVE",
"-708 -136 OFFCURVE",
"-631 -136 CURVE SMOOTH",
"-543 -136 OFFCURVE",
"-469 -167 OFFCURVE",
"-469 -279 CURVE SMOOTH",
"-469 -328 OFFCURVE",
"-484 -479 OFFCURVE",
"-685 -492 CURVE"
);
}
);
width = 0;
}
);
script = gran;
category = Mark;
subCategory = Nonspacing;
},
{
glyphname = cha_gran.below;
lastChange = "2018-09-18 15:39:24 +0000";
layers = (
{
layerId = "229B7033-F00A-4676-AEB9-BF59C6456AE0";
paths = (
{
closed = 1;
nodes = (
"-75 -133 OFFCURVE",
"-115 -63 OFFCURVE",
"-218 -63 CURVE SMOOTH",
"-320 -63 OFFCURVE",
"-364 -133 OFFCURVE",
"-364 -243 CURVE SMOOTH",
"-364 -553 LINE",
"-288 -553 LINE",
"-288 -254 LINE SMOOTH",
"-288 -182 OFFCURVE",
"-280 -129 OFFCURVE",
"-218 -129 CURVE SMOOTH",
"-155 -129 OFFCURVE",
"-151 -182 OFFCURVE",
"-151 -254 CURVE SMOOTH",
"-151 -553 LINE",
"-75 -553 LINE",
"-75 -243 LINE SMOOTH"
);
},
{
closed = 1;
nodes = (
"-1060 -487 LINE",
"-1060 -553 LINE",
"-75 -553 LINE",
"-75 -487 LINE"
);
},
{
closed = 1;
nodes = (
"-843 -552 LINE",
"-648 -539 OFFCURVE",
"-551 -394 OFFCURVE",
"-551 -269 CURVE SMOOTH",
"-551 -174 OFFCURVE",
"-605 -70 OFFCURVE",
"-778 -70 CURVE SMOOTH",
"-899 -70 OFFCURVE",
"-987 -123 OFFCURVE",
"-987 -214 CURVE SMOOTH",
"-987 -288 OFFCURVE",
"-930 -336 OFFCURVE",
"-852 -336 CURVE SMOOTH",
"-768 -336 OFFCURVE",
"-713 -274 OFFCURVE",
"-713 -203 CURVE SMOOTH",
"-713 -157 OFFCURVE",
"-737 -126 OFFCURVE",
"-765 -102 CURVE",
"-823 -116 LINE",
"-796 -142 OFFCURVE",
"-786 -172 OFFCURVE",
"-786 -202 CURVE SMOOTH",
"-786 -249 OFFCURVE",
"-814 -270 OFFCURVE",
"-851 -270 CURVE SMOOTH",
"-892 -270 OFFCURVE",
"-911 -243 OFFCURVE",
"-911 -210 CURVE SMOOTH",
"-911 -160 OFFCURVE",
"-866 -136 OFFCURVE",
"-789 -136 CURVE SMOOTH",
"-701 -136 OFFCURVE",
"-627 -167 OFFCURVE",
"-627 -279 CURVE SMOOTH",
"-627 -328 OFFCURVE",
"-642 -479 OFFCURVE",
"-843 -492 CURVE"
);
}
);
width = 0;
}
);
script = gran;
category = Mark;
subCategory = Nonspacing;
},
{
glyphname = ja_gran.below;
lastChange = "2018-09-18 15:39:24 +0000";
layers = (
{
layerId = "229B7033-F00A-4676-AEB9-BF59C6456AE0";
paths = (
{
closed = 1;
nodes = (
"-761 -463 OFFCURVE",
"-654 -438 OFFCURVE",
"-611 -429 CURVE SMOOTH",
"-489 -404 LINE SMOOTH",
"-333 -372 OFFCURVE",
"-245 -309 OFFCURVE",
"-245 -204 CURVE SMOOTH",
"-245 -117 OFFCURVE",
"-304 -65 OFFCURVE",
"-393 -65 CURVE SMOOTH",
"-450 -65 OFFCURVE",
"-493 -88 OFFCURVE",
"-520 -132 CURVE",
"-509 -134 LINE",
"-533 -98 OFFCURVE",
"-568 -65 OFFCURVE",
"-652 -65 CURVE SMOOTH",
"-773 -65 OFFCURVE",
"-851 -135 OFFCURVE",
"-851 -222 CURVE SMOOTH",
"-851 -293 OFFCURVE",
"-796 -342 OFFCURVE",
"-724 -342 CURVE SMOOTH",
"-645 -342 OFFCURVE",
"-607 -289 OFFCURVE",
"-607 -243 CURVE SMOOTH",
"-607 -196 OFFCURVE",
"-641 -157 OFFCURVE",
"-704 -157 CURVE SMOOTH",
"-759 -157 OFFCURVE",
"-787 -186 OFFCURVE",
"-806 -209 CURVE",
"-792 -245 LINE",
"-776 -223 OFFCURVE",
"-753 -197 OFFCURVE",
"-719 -197 CURVE SMOOTH",
"-688 -197 OFFCURVE",
"-674 -219 OFFCURVE",
"-674 -242 CURVE SMOOTH",
"-674 -266 OFFCURVE",
"-690 -286 OFFCURVE",
"-723 -286 CURVE SMOOTH",
"-757 -286 OFFCURVE",
"-775 -264 OFFCURVE",
"-775 -223 CURVE SMOOTH",
"-775 -143 OFFCURVE",
"-715 -126 OFFCURVE",
"-658 -126 CURVE SMOOTH",
"-584 -126 OFFCURVE",
"-552 -160 OFFCURVE",
"-552 -222 CURVE SMOOTH",
"-552 -272 LINE",
"-476 -272 LINE",
"-476 -228 LINE SMOOTH",
"-476 -174 OFFCURVE",
"-461 -127 OFFCURVE",
"-398 -127 CURVE SMOOTH",
"-351 -127 OFFCURVE",
"-321 -151 OFFCURVE",
"-321 -206 CURVE SMOOTH",
"-321 -285 OFFCURVE",
"-381 -317 OFFCURVE",
"-497 -339 CURVE SMOOTH",
"-629 -364 LINE SMOOTH",
"-732 -384 OFFCURVE",
"-837 -434 OFFCURVE",
"-837 -531 CURVE SMOOTH",
"-837 -602 OFFCURVE",
"-775 -654 OFFCURVE",
"-698 -654 CURVE SMOOTH",
"-637 -654 OFFCURVE",
"-580 -619 OFFCURVE",
"-531 -574 CURVE SMOOTH",
"-495 -541 OFFCURVE",
"-443 -500 OFFCURVE",
"-386 -500 CURVE SMOOTH",
"-347 -500 OFFCURVE",
"-315 -518 OFFCURVE",
"-316 -547 CURVE SMOOTH",
"-317 -572 OFFCURVE",
"-343 -584 OFFCURVE",
"-369 -584 CURVE SMOOTH",
"-379 -584 OFFCURVE",
"-389 -582 OFFCURVE",
"-398 -578 CURVE",
"-414 -638 LINE",
"-394 -647 OFFCURVE",
"-370 -652 OFFCURVE",
"-350 -652 CURVE SMOOTH",
"-288 -652 OFFCURVE",
"-240 -606 OFFCURVE",
"-240 -545 CURVE SMOOTH",
"-240 -492 OFFCURVE",
"-279 -437 OFFCURVE",
"-370 -437 CURVE SMOOTH",
"-450 -437 OFFCURVE",
"-515 -478 OFFCURVE",
"-561 -517 CURVE SMOOTH",
"-594 -545 OFFCURVE",
"-636 -588 OFFCURVE",
"-692 -588 CURVE SMOOTH",
"-725 -588 OFFCURVE",
"-761 -576 OFFCURVE",
"-761 -534 CURVE SMOOTH"
);
}
);
width = 0;
}
);
script = gran;
category = Mark;
subCategory = Nonspacing;
},
{
glyphname = jha_gran.below;
lastChange = "2018-09-18 15:39:24 +0000";
layers = (
{
layerId = "229B7033-F00A-4676-AEB9-BF59C6456AE0";
paths = (
{
closed = 1;
nodes = (
"-113 -166 OFFCURVE",
"-77 -210 OFFCURVE",
"-77 -298 CURVE SMOOTH",
"-77 -429 OFFCURVE",
"-155 -497 OFFCURVE",
"-241 -497 CURVE SMOOTH",
"-313 -497 OFFCURVE",
"-403 -449 OFFCURVE",
"-403 -304 CURVE SMOOTH",
"-403 -210 OFFCURVE",
"-356 -155 OFFCURVE",
"-316 -112 CURVE",
"-369 -68 LINE",
"-432 -124 OFFCURVE",
"-479 -195 OFFCURVE",
"-479 -304 CURVE SMOOTH",
"-479 -445 OFFCURVE",
"-398 -563 OFFCURVE",
"-242 -563 CURVE SMOOTH",
"-74 -563 OFFCURVE",
"-1 -433 OFFCURVE",
"-1 -304 CURVE SMOOTH",
"-1 -213 OFFCURVE",
"-42 -132 OFFCURVE",
"-109 -68 CURVE",
"-164 -112 LINE"
);
},
{
closed = 1;
nodes = (
"-681 -487 LINE",
"-761 -487 LINE",
"-761 -407 LINE",
"-422 -407 LINE",
"-423 -341 LINE",
"-837 -341 LINE",
"-837 -553 LINE",
"-605 -553 LINE",
"-605 -139 LINE",
"-522 -139 LINE",
"-522 -73 LINE",
"-1018 -73 LINE",
"-1018 -553 LINE",
"-942 -553 LINE",
"-942 -139 LINE",
"-681 -139 LINE"
);
}
);
width = 0;
}
);
script = gran;
category = Mark;
subCategory = Nonspacing;
},
{
glyphname = nya_gran.below;
lastChange = "2018-09-18 15:39:24 +0000";
layers = (
{
layerId = "229B7033-F00A-4676-AEB9-BF59C6456AE0";
paths = (
{
closed = 1;
nodes = (
"-828 -416 LINE",
"-828 -422 LINE SMOOTH",
"-828 -529 OFFCURVE",
"-733 -723 OFFCURVE",
"-428 -723 CURVE SMOOTH",
"-177 -723 OFFCURVE",
"-37 -618 OFFCURVE",
"-37 -463 CURVE SMOOTH",
"-37 -350 OFFCURVE",
"-113 -252 OFFCURVE",
"-306 -252 CURVE SMOOTH",
"-410 -252 LINE SMOOTH",
"-578 -252 OFFCURVE",
"-650 -314 OFFCURVE",
"-650 -398 CURVE SMOOTH",
"-650 -483 OFFCURVE",
"-570 -540 OFFCURVE",
"-465 -540 CURVE SMOOTH",
"-328 -540 OFFCURVE",
"-270 -471 OFFCURVE",
"-270 -342 CURVE SMOOTH",
"-270 -139 LINE",
"-115 -139 LINE",
"-115 -73 LINE",
"-553 -73 LINE",
"-553 -292 LINE",
"-477 -278 LINE",
"-477 -139 LINE",
"-346 -139 LINE",
"-346 -353 LINE SMOOTH",
"-346 -437 OFFCURVE",
"-390 -474 OFFCURVE",
"-463 -474 CURVE SMOOTH",
"-527 -474 OFFCURVE",
"-574 -447 OFFCURVE",
"-574 -397 CURVE SMOOTH",
"-574 -334 OFFCURVE",
"-503 -318 OFFCURVE",
"-416 -318 CURVE SMOOTH",
"-313 -318 LINE SMOOTH",
"-198 -318 OFFCURVE",
"-113 -358 OFFCURVE",
"-113 -464 CURVE SMOOTH",
"-113 -576 OFFCURVE",
"-218 -657 OFFCURVE",
"-428 -657 CURVE SMOOTH",
"-661 -657 OFFCURVE",
"-752 -521 OFFCURVE",
"-752 -421 CURVE SMOOTH",
"-752 -416 LINE"
);
},
{
closed = 1;
nodes = (
"-896 -130 OFFCURVE",
"-956 -185 OFFCURVE",
"-956 -253 CURVE SMOOTH",
"-956 -322 OFFCURVE",
"-900 -360 OFFCURVE",
"-839 -360 CURVE SMOOTH",
"-774 -360 OFFCURVE",
"-730 -313 OFFCURVE",
"-730 -255 CURVE SMOOTH",
"-730 -230 OFFCURVE",
"-738 -193 OFFCURVE",
"-776 -162 CURVE",
"-822 -180 LINE",
"-795 -201 OFFCURVE",
"-788 -223 OFFCURVE",
"-788 -244 CURVE SMOOTH",
"-788 -282 OFFCURVE",
"-809 -297 OFFCURVE",
"-839 -297 CURVE SMOOTH",
"-872 -297 OFFCURVE",
"-890 -277 OFFCURVE",
"-890 -251 CURVE SMOOTH",
"-890 -212 OFFCURVE",
"-848 -196 OFFCURVE",
"-799 -196 CURVE SMOOTH",
"-699 -196 OFFCURVE",
"-642 -254 OFFCURVE",
"-625 -354 CURVE",
"-561 -348 LINE",
"-578 -226 OFFCURVE",
"-651 -130 OFFCURVE",
"-797 -130 CURVE SMOOTH"
);
}
);
width = 0;
}
);
script = gran;
category = Mark;
subCategory = Nonspacing;
},
{
glyphname = tta_gran.below;
lastChange = "2018-09-18 15:39:24 +0000";
layers = (
{
layerId = "229B7033-F00A-4676-AEB9-BF59C6456AE0";
paths = (
{
closed = 1;
nodes = (
"-171 -483 LINE",
"-171 -417 LINE",
"-715 -417 LINE",
"-715 -73 LINE",
"-791 -73 LINE",
"-791 -483 LINE"
);
},
{
closed = 1;
nodes = (
"-510 -585 LINE",
"-434 -585 LINE",
"-434 -453 LINE",
"-510 -453 LINE"
);
}
);
width = 0;
}
);
script = gran;
category = Mark;
subCategory = Nonspacing;
},
{
glyphname = ttha_gran.below;
lastChange = "2018-09-18 15:39:24 +0000";
layers = (
{
layerId = "229B7033-F00A-4676-AEB9-BF59C6456AE0";
paths = (
{
closed = 1;
nodes = (
"-236 -560 OFFCURVE",
"-134 -455 OFFCURVE",
"-134 -314 CURVE SMOOTH",
"-134 -174 OFFCURVE",
"-236 -70 OFFCURVE",
"-381 -70 CURVE SMOOTH",
"-526 -70 OFFCURVE",
"-629 -174 OFFCURVE",
"-629 -314 CURVE SMOOTH",
"-629 -455 OFFCURVE",
"-526 -560 OFFCURVE",
"-381 -560 CURVE SMOOTH"
);
},
{
closed = 1;
nodes = (
"-476 -494 OFFCURVE",
"-553 -422 OFFCURVE",
"-553 -314 CURVE SMOOTH",
"-553 -208 OFFCURVE",
"-476 -136 OFFCURVE",
"-381 -136 CURVE SMOOTH",
"-286 -136 OFFCURVE",
"-210 -208 OFFCURVE",
"-210 -314 CURVE SMOOTH",
"-210 -422 OFFCURVE",
"-286 -494 OFFCURVE",
"-381 -494 CURVE SMOOTH"
);
}
);
width = 0;
}
);
script = gran;
category = Mark;
subCategory = Nonspacing;
},
